M48
;Layer_Color=9474304
;FILE_FORMAT=2:4
INCH,TZ
;TYPE=PLATED
T1F00S00C0.0098
T2F00S00C0.0197
T3F00S00C0.0433
T4F00S00C0.0492
T5F00S00C0.1181
%
T01
X13300Y-6900
X17137Y-5250
X19217Y-309
X18432Y4689
X18400Y5494
X17750Y4350
X20000Y4700
X21500Y4011
X22328Y4526
X9900Y4150
X9850Y-2550
Y-2816
Y-3050
X9100Y4900
X4310Y5050
X4308Y3966
X4500Y5900
X3500Y5750
X2850Y6500
X2600Y6900
X2347Y6347
X2050Y6600
X1700Y5750
X1350Y7250
X1160Y7630
X7250Y8450
X8154Y6504
X7650Y6000
X8808Y6150
X9150Y5850
X5797Y10297
X5547Y11603
X5600Y12600
X4247Y11497
X4200Y14000
X3450Y15000
X3750Y15650
X2860Y16130
X2150Y16157
X2028Y16772
X2000Y17800
X1120Y17580
X1250Y17150
Y15650
X4000Y16900
X4250Y17250
X4400Y17800
X5300Y17550
X12500Y16650
X13450Y17107
X16250Y16700
X17400Y15530
X18700Y16300
X19870Y16950
X20550Y17150
Y16400
X20300Y15900
X21443Y16050
X21650Y15680
X18500Y18220
Y19300
X18100Y20800
X18900
X18500Y9400
Y8450
X19850Y7030
X20600Y7250
Y6500
X20300Y6000
X21450Y6150
X21570Y5780
X17500Y5630
X12490Y5530
X12500Y5850
X11470Y7890
X10840Y7940
X9850Y7100
X9500Y6470
X13700Y9287
X14550Y8450
T02
X17800Y-6800
Y-4600
X7600Y-400
X4258Y500
X4400Y7906
X5300Y7800
T03
X11700Y-5100
Y-2100
X14700
Y-3100
Y-4100
Y-5100
X16100Y1500
Y2500
Y3500
Y5500
Y6500
Y7500
T04
X10200Y-7700
X11700
X24500Y4600
X-1700
X7200Y-7700
X8700
X-1700Y6000
Y7400
Y8800
Y11000
Y12400
Y14500
Y15900
Y17300
Y18700
X24500
Y17300
Y15900
Y14500
Y12400
Y11000
Y8800
Y7400
Y6000
T05
X25200Y-8600
X-2400
Y21000
X25200
M30
