G04*
G04 #@! TF.GenerationSoftware,Altium Limited,Altium Designer,22.0.2 (36)*
G04*
G04 Layer_Color=32768*
%FSLAX25Y25*%
%MOIN*%
G70*
G04*
G04 #@! TF.SameCoordinates,FD2FF894-48AE-4880-B7A9-669BF39D4961*
G04*
G04*
G04 #@! TF.FilePolarity,Positive*
G04*
G01*
G75*
%ADD43C,0.00394*%
%ADD44C,0.00197*%
D43*
X112244Y82307D02*
Y95693D01*
X117756Y82307D02*
Y95693D01*
X112244Y82307D02*
X117756D01*
X112244Y95693D02*
X117756D01*
X115000Y87032D02*
Y90969D01*
X113031Y89000D02*
X116969D01*
X190157Y44669D02*
Y53331D01*
Y44669D02*
X209842D01*
Y53331D01*
X190157D02*
X209842D01*
X200000Y47032D02*
Y50968D01*
X198031Y49000D02*
X201969D01*
X170669Y59842D02*
X179331D01*
X170669Y40157D02*
Y59842D01*
Y40157D02*
X179331D01*
Y59842D01*
X173031Y50000D02*
X176969D01*
X175000Y48031D02*
Y51968D01*
X147756Y82406D02*
Y95595D01*
X142244Y82406D02*
Y95595D01*
X147756D01*
X142244Y82406D02*
X147756D01*
X145000Y87032D02*
Y90969D01*
X143032Y89000D02*
X146968D01*
X59244Y74343D02*
Y87532D01*
X64756Y74343D02*
Y87532D01*
X59244Y74343D02*
X64756D01*
X59244Y87532D02*
X64756D01*
X62000Y78969D02*
Y82906D01*
X60031Y80937D02*
X63968D01*
X71669Y-7543D02*
X80331D01*
X71669D02*
Y12142D01*
X80331D01*
Y-7543D02*
Y12142D01*
X74032Y2299D02*
X77969D01*
X76000Y331D02*
Y4268D01*
X182032Y51000D02*
X185968D01*
X184000Y49031D02*
Y52969D01*
X181244Y57693D02*
X186756D01*
X181244Y44307D02*
X186756D01*
Y57693D01*
X181244Y44307D02*
Y57693D01*
X220421Y42110D02*
Y55890D01*
X235579Y42110D02*
Y55890D01*
X220421D02*
X235579D01*
X220421Y42110D02*
X235579D01*
X226031Y49000D02*
X229969D01*
X228000Y47032D02*
Y50968D01*
X218543Y37547D02*
Y55559D01*
X211457Y37547D02*
X218543D01*
X211457D02*
Y55559D01*
X218543D01*
X220031Y63937D02*
X223969D01*
X222000Y61968D02*
Y65905D01*
X219244Y57244D02*
X224756D01*
X219244Y70630D02*
X224756D01*
X219244Y57244D02*
Y70630D01*
X224756Y57244D02*
Y70630D01*
X213024Y60913D02*
Y75087D01*
X190976Y60913D02*
Y75087D01*
Y60913D02*
X213024D01*
X190976Y75087D02*
X213024D01*
X200031Y68000D02*
X203969D01*
X202000Y66031D02*
Y69968D01*
X190032Y51000D02*
X193968D01*
X192000Y49031D02*
Y52969D01*
X189244Y44307D02*
X194756D01*
X189244Y57693D02*
X194756D01*
Y44307D02*
Y57693D01*
X189244Y44307D02*
Y57693D01*
X197244Y44405D02*
Y57595D01*
X202756Y44405D02*
Y57595D01*
X197244D02*
X202756D01*
X197244Y44405D02*
X202756D01*
X200000Y49031D02*
Y52969D01*
X198031Y51000D02*
X201969D01*
X205244Y44405D02*
Y57595D01*
X210756Y44405D02*
Y57595D01*
X205244D02*
X210756D01*
X205244Y44405D02*
X210756D01*
X208000Y49031D02*
Y52969D01*
X206031Y51000D02*
X209968D01*
X172031Y80000D02*
X175969D01*
X174000Y78031D02*
Y81968D01*
X171244Y86693D02*
X176756D01*
X171244Y73307D02*
X176756D01*
X171244D02*
Y86693D01*
X176756Y73307D02*
Y86693D01*
X171468Y63244D02*
X184658D01*
X171468Y68756D02*
X184658D01*
X171468Y63244D02*
Y68756D01*
X184658Y63244D02*
Y68756D01*
X176094Y66000D02*
X180032D01*
X178063Y64031D02*
Y67968D01*
X191201Y83370D02*
Y104630D01*
X178602Y83370D02*
X191201D01*
X178602D02*
Y98724D01*
Y104630D01*
X191201D01*
X215779Y59158D02*
Y78843D01*
X188221Y59158D02*
X215779D01*
X188221D02*
Y78843D01*
X215779D01*
X202000Y68016D02*
Y69984D01*
X201016Y69000D02*
X202984D01*
X221031Y77000D02*
X224969D01*
X223000Y75032D02*
Y78969D01*
X220244Y83693D02*
X225756D01*
X220244Y70307D02*
X225756D01*
X220244D02*
Y83693D01*
X225756Y70307D02*
Y83693D01*
X221031Y61063D02*
X224969D01*
X223000Y59095D02*
Y63032D01*
X220244Y54370D02*
X225756D01*
X220244Y67756D02*
X225756D01*
Y54370D02*
Y67756D01*
X220244Y54370D02*
Y67756D01*
X230031Y69000D02*
X233968D01*
X232000Y67032D02*
Y70969D01*
X229244Y62307D02*
X234756D01*
X229244Y75693D02*
X234756D01*
Y62307D02*
Y75693D01*
X229244Y62307D02*
Y75693D01*
X4031Y70000D02*
X7969D01*
X6000Y68032D02*
Y71969D01*
X3244Y76693D02*
X8756D01*
X3244Y63307D02*
X8756D01*
Y76693D01*
X3244Y63307D02*
Y76693D01*
X48669Y74158D02*
X57331D01*
Y93843D01*
X48669D02*
X57331D01*
X48669Y74158D02*
Y93843D01*
X51032Y84000D02*
X54969D01*
X53000Y82032D02*
Y85969D01*
X42031Y83000D02*
X45968D01*
X44000Y81032D02*
Y84969D01*
X41244Y76307D02*
X46756D01*
X41244Y89693D02*
X46756D01*
X41244Y76307D02*
Y89693D01*
X46756Y76307D02*
Y89693D01*
X9457Y78441D02*
Y96453D01*
X16543D01*
Y78441D02*
Y96453D01*
X9457Y78441D02*
X16543D01*
X7579Y78110D02*
Y91890D01*
X-7579Y78110D02*
Y91890D01*
Y78110D02*
X7579D01*
X-7579Y91890D02*
X7579D01*
X-1969Y85000D02*
X1969D01*
X0Y83031D02*
Y86968D01*
X14976Y58913D02*
Y73087D01*
X37024Y58913D02*
Y73087D01*
X14976D02*
X37024D01*
X14976Y58913D02*
X37024D01*
X24032Y66000D02*
X27968D01*
X26000Y64031D02*
Y67968D01*
X34032Y83000D02*
X37969D01*
X36000Y81032D02*
Y84969D01*
X33244Y89693D02*
X38756D01*
X33244Y76307D02*
X38756D01*
X33244D02*
Y89693D01*
X38756Y76307D02*
Y89693D01*
X30756Y76406D02*
Y89595D01*
X25244Y76406D02*
Y89595D01*
Y76406D02*
X30756D01*
X25244Y89595D02*
X30756D01*
X28000Y81032D02*
Y84969D01*
X26032Y83000D02*
X29969D01*
X22756Y76406D02*
Y89595D01*
X17244Y76406D02*
Y89595D01*
Y76406D02*
X22756D01*
X17244Y89595D02*
X22756D01*
X20000Y81032D02*
Y84969D01*
X18032Y83000D02*
X21969D01*
X52031Y54000D02*
X55968D01*
X54000Y52031D02*
Y55968D01*
X51244Y47307D02*
X56756D01*
X51244Y60693D02*
X56756D01*
Y47307D02*
Y60693D01*
X51244Y47307D02*
Y60693D01*
X43406Y70756D02*
X56595D01*
X43406Y65244D02*
X56595D01*
Y70756D01*
X43406Y65244D02*
Y70756D01*
X48031Y68000D02*
X51968D01*
X50000Y66031D02*
Y69968D01*
X36799Y29370D02*
Y50630D01*
X49398D01*
Y35276D02*
Y50630D01*
Y29370D02*
Y35276D01*
X36799Y29370D02*
X49398D01*
X12220Y55158D02*
Y74843D01*
X39779D01*
Y55158D02*
Y74843D01*
X12220Y55158D02*
X39779D01*
X26000Y64016D02*
Y65984D01*
X25016Y65000D02*
X26984D01*
X3032Y57000D02*
X6968D01*
X5000Y55032D02*
Y58969D01*
X2244Y50307D02*
X7756D01*
X2244Y63693D02*
X7756D01*
Y50307D02*
Y63693D01*
X2244Y50307D02*
Y63693D01*
X3032Y73000D02*
X6968D01*
X5000Y71031D02*
Y74968D01*
X2244Y79693D02*
X7756D01*
X2244Y66307D02*
X7756D01*
X2244D02*
Y79693D01*
X7756Y66307D02*
Y79693D01*
X-5968Y65000D02*
X-2032D01*
X-4000Y63032D02*
Y66969D01*
X-6756Y71693D02*
X-1244D01*
X-6756Y58307D02*
X-1244D01*
X-6756D02*
Y71693D01*
X-1244Y58307D02*
Y71693D01*
X169669Y158843D02*
X178331D01*
X169669Y139157D02*
Y158843D01*
Y139157D02*
X178331D01*
Y158843D01*
X172031Y149000D02*
X175969D01*
X174000Y147031D02*
Y150969D01*
X181032Y150000D02*
X184968D01*
X183000Y148031D02*
Y151969D01*
X180244Y156693D02*
X185756D01*
X180244Y143307D02*
X185756D01*
Y156693D01*
X180244Y143307D02*
Y156693D01*
X220031Y163000D02*
X223969D01*
X222000Y161031D02*
Y164969D01*
X219244Y156307D02*
X224756D01*
X219244Y169693D02*
X224756D01*
X219244Y156307D02*
Y169693D01*
X224756Y156307D02*
Y169693D01*
X220421Y141110D02*
Y154890D01*
X235579Y141110D02*
Y154890D01*
X220421D02*
X235579D01*
X220421Y141110D02*
X235579D01*
X226031Y148000D02*
X229969D01*
X228000Y146031D02*
Y149969D01*
X218543Y136547D02*
Y154559D01*
X211457Y136547D02*
X218543D01*
X211457D02*
Y154559D01*
X218543D01*
X213024Y159913D02*
Y174087D01*
X190976Y159913D02*
Y174087D01*
Y159913D02*
X213024D01*
X190976Y174087D02*
X213024D01*
X200031Y167000D02*
X203969D01*
X202000Y165032D02*
Y168968D01*
X230031Y168000D02*
X233968D01*
X232000Y166032D02*
Y169968D01*
X229244Y161307D02*
X234756D01*
X229244Y174693D02*
X234756D01*
Y161307D02*
Y174693D01*
X229244Y161307D02*
Y174693D01*
X172031Y179000D02*
X175969D01*
X174000Y177032D02*
Y180968D01*
X171244Y185693D02*
X176756D01*
X171244Y172307D02*
X176756D01*
X171244D02*
Y185693D01*
X176756Y172307D02*
Y185693D01*
X191201Y182370D02*
Y203630D01*
X178602Y182370D02*
X191201D01*
X178602D02*
Y197724D01*
Y203630D01*
X191201D01*
X171468Y162244D02*
X184658D01*
X171468Y167756D02*
X184658D01*
X171468Y162244D02*
Y167756D01*
X184658Y162244D02*
Y167756D01*
X176094Y165000D02*
X180032D01*
X178063Y163031D02*
Y166969D01*
X221031Y160000D02*
X224969D01*
X223000Y158031D02*
Y161969D01*
X220244Y153307D02*
X225756D01*
X220244Y166693D02*
X225756D01*
Y153307D02*
Y166693D01*
X220244Y153307D02*
Y166693D01*
X189032Y150000D02*
X192968D01*
X191000Y148031D02*
Y151969D01*
X188244Y143307D02*
X193756D01*
X188244Y156693D02*
X193756D01*
Y143307D02*
Y156693D01*
X188244Y143307D02*
Y156693D01*
X204244Y143405D02*
Y156595D01*
X209756Y143405D02*
Y156595D01*
X204244D02*
X209756D01*
X204244Y143405D02*
X209756D01*
X207000Y148031D02*
Y151969D01*
X205031Y150000D02*
X208968D01*
X196244Y143405D02*
Y156595D01*
X201756Y143405D02*
Y156595D01*
X196244D02*
X201756D01*
X196244Y143405D02*
X201756D01*
X199000Y148031D02*
Y151969D01*
X197031Y150000D02*
X200969D01*
X221031Y176000D02*
X224969D01*
X223000Y174031D02*
Y177969D01*
X220244Y182693D02*
X225756D01*
X220244Y169307D02*
X225756D01*
X220244D02*
Y182693D01*
X225756Y169307D02*
Y182693D01*
X215779Y158158D02*
Y177842D01*
X188221Y158158D02*
X215779D01*
X188221D02*
Y177842D01*
X215779D01*
X202000Y167016D02*
Y168984D01*
X201016Y168000D02*
X202984D01*
X49000Y165032D02*
Y168968D01*
X47032Y167000D02*
X50968D01*
X42406Y164244D02*
Y169756D01*
X55594Y164244D02*
Y169756D01*
X42406Y164244D02*
X55594D01*
X42406Y169756D02*
X55594D01*
X50244Y147307D02*
Y160693D01*
X55756Y147307D02*
Y160693D01*
X50244D02*
X55756D01*
X50244Y147307D02*
X55756D01*
X53000Y152032D02*
Y155968D01*
X51032Y154000D02*
X54969D01*
X48669Y172158D02*
X57331D01*
Y191842D01*
X48669D02*
X57331D01*
X48669Y172158D02*
Y191842D01*
X51032Y182000D02*
X54969D01*
X53000Y180032D02*
Y183968D01*
X42031Y182000D02*
X45968D01*
X44000Y180032D02*
Y183968D01*
X41244Y175307D02*
X46756D01*
X41244Y188693D02*
X46756D01*
X41244Y175307D02*
Y188693D01*
X46756Y175307D02*
Y188693D01*
X6579Y177110D02*
Y190890D01*
X-8579Y177110D02*
Y190890D01*
Y177110D02*
X6579D01*
X-8579Y190890D02*
X6579D01*
X-2968Y184000D02*
X969D01*
X-1000Y182032D02*
Y185968D01*
X8457Y177441D02*
Y195453D01*
X15543D01*
Y177441D02*
Y195453D01*
X8457Y177441D02*
X15543D01*
X-2244Y157307D02*
Y170693D01*
X-7756Y157307D02*
Y170693D01*
Y157307D02*
X-2244D01*
X-7756Y170693D02*
X-2244D01*
X-5000Y162031D02*
Y165969D01*
X-6968Y164000D02*
X-3032D01*
X4031Y169000D02*
X7969D01*
X6000Y167032D02*
Y170968D01*
X3244Y175693D02*
X8756D01*
X3244Y162307D02*
X8756D01*
Y175693D01*
X3244Y162307D02*
Y175693D01*
X13976Y157913D02*
Y172087D01*
X36024Y157913D02*
Y172087D01*
X13976D02*
X36024D01*
X13976Y157913D02*
X36024D01*
X23031Y165000D02*
X26969D01*
X25000Y163031D02*
Y166969D01*
X3032Y156000D02*
X6968D01*
X5000Y154032D02*
Y157968D01*
X2244Y149307D02*
X7756D01*
X2244Y162693D02*
X7756D01*
Y149307D02*
Y162693D01*
X2244Y149307D02*
Y162693D01*
X3032Y172000D02*
X6968D01*
X5000Y170031D02*
Y173969D01*
X2244Y178693D02*
X7756D01*
X2244Y165307D02*
X7756D01*
X2244D02*
Y178693D01*
X7756Y165307D02*
Y178693D01*
X22756Y175343D02*
Y188531D01*
X17244Y175343D02*
Y188531D01*
Y175343D02*
X22756D01*
X17244Y188531D02*
X22756D01*
X20000Y179969D02*
Y183905D01*
X18032Y181937D02*
X21969D01*
X11220Y154157D02*
Y173843D01*
X38780D01*
Y154157D02*
Y173843D01*
X11220Y154157D02*
X38780D01*
X25000Y163016D02*
Y164984D01*
X24016Y164000D02*
X25984D01*
X34032Y182000D02*
X37969D01*
X36000Y180032D02*
Y183968D01*
X33244Y188693D02*
X38756D01*
X33244Y175307D02*
X38756D01*
X33244D02*
Y188693D01*
X38756Y175307D02*
Y188693D01*
X30756Y175469D02*
Y188657D01*
X25244Y175469D02*
Y188657D01*
Y175469D02*
X30756D01*
X25244Y188657D02*
X30756D01*
X28000Y180095D02*
Y184031D01*
X26032Y182063D02*
X29969D01*
X35799Y129370D02*
Y150630D01*
X48398D01*
Y135276D02*
Y150630D01*
Y129370D02*
Y135276D01*
X35799Y129370D02*
X48398D01*
X77406Y104244D02*
X90595D01*
X77406Y109756D02*
X90595D01*
Y104244D02*
Y109756D01*
X77406Y104244D02*
Y109756D01*
X82032Y107000D02*
X85969D01*
X84000Y105032D02*
Y108968D01*
X97031Y96000D02*
X100969D01*
X99000Y94032D02*
Y97969D01*
X96244Y89307D02*
X101756D01*
X96244Y102693D02*
X101756D01*
X96244Y89307D02*
Y102693D01*
X101756Y89307D02*
Y102693D01*
X91874Y89307D02*
Y102693D01*
X76126D02*
X91874D01*
X76126Y89701D02*
Y102693D01*
Y89307D02*
Y89701D01*
Y89307D02*
X91874D01*
X84000Y95213D02*
Y96787D01*
X83213Y96000D02*
X84787D01*
X68032Y96063D02*
X71969D01*
X70000Y94095D02*
Y98032D01*
X67244Y102756D02*
X72756D01*
X67244Y89370D02*
X72756D01*
Y102756D01*
X67244Y89370D02*
Y102756D01*
X135031Y88937D02*
X138969D01*
X137000Y86968D02*
Y90905D01*
X134244Y95630D02*
X139756D01*
X134244Y82244D02*
X139756D01*
Y95630D01*
X134244Y82244D02*
Y95630D01*
X119405Y87756D02*
X132595D01*
X119405Y82244D02*
X132595D01*
X119405D02*
Y87756D01*
X132595Y82244D02*
Y87756D01*
X124031Y85000D02*
X127969D01*
X126000Y83031D02*
Y86968D01*
X161000Y23031D02*
Y26969D01*
X159031Y25000D02*
X162969D01*
X97843Y29669D02*
Y38331D01*
X78158D02*
X97843D01*
X78158Y29669D02*
Y38331D01*
Y29669D02*
X97843D01*
X88000Y32032D02*
Y35969D01*
X86032Y34000D02*
X89969D01*
X109669Y-6543D02*
X118331D01*
Y13142D01*
X109669D02*
X118331D01*
X109669Y-6543D02*
Y13142D01*
X112031Y3299D02*
X115969D01*
X114000Y1331D02*
Y5268D01*
X89552Y80502D02*
X130497D01*
X89552Y39557D02*
X130497D01*
Y80502D01*
X89552Y39557D02*
Y80502D01*
X110024Y58061D02*
Y61998D01*
X108056Y60029D02*
X111993D01*
X105032Y89000D02*
X108968D01*
X107000Y87032D02*
Y90969D01*
X104244Y95693D02*
X109756D01*
X104244Y82307D02*
X109756D01*
Y95693D01*
X104244Y82307D02*
Y95693D01*
X107063Y32032D02*
Y35969D01*
X105095Y34000D02*
X109031D01*
X113756Y31244D02*
Y36756D01*
X100370Y31244D02*
Y36756D01*
Y31244D02*
X113756D01*
X100370Y36756D02*
X113756D01*
X182000Y-47969D02*
Y-44032D01*
X180032Y-46000D02*
X183968D01*
X188693Y-48756D02*
Y-43244D01*
X175307Y-48756D02*
Y-43244D01*
X188693D01*
X175307Y-48756D02*
X188693D01*
X195780Y-69842D02*
Y-50157D01*
X168220D02*
X195780D01*
X168220Y-69842D02*
Y-50157D01*
Y-69842D02*
X195780D01*
X182000Y-60984D02*
Y-59016D01*
X181016Y-60000D02*
X182984D01*
X167425Y-47953D02*
X196953D01*
X167425D02*
Y-46968D01*
Y-12520D01*
X196953D01*
Y-47953D02*
Y-12520D01*
X181937Y-69968D02*
Y-66031D01*
X179969Y-68000D02*
X183905D01*
X188630Y-70756D02*
Y-65244D01*
X175244Y-70756D02*
Y-65244D01*
X188630D01*
X175244Y-70756D02*
X188630D01*
X135756Y-79658D02*
Y-66469D01*
X130244Y-79658D02*
Y-66469D01*
X135756D01*
X130244Y-79658D02*
X135756D01*
X133000Y-75032D02*
Y-71095D01*
X131032Y-73063D02*
X134968D01*
X130244Y-96531D02*
Y-83342D01*
X135756Y-96531D02*
Y-83342D01*
X130244Y-96531D02*
X135756D01*
X130244Y-83342D02*
X135756D01*
X133000Y-91905D02*
Y-87968D01*
X131032Y-89937D02*
X134968D01*
X159031Y65000D02*
X162969D01*
X161000Y63032D02*
Y66969D01*
X140370Y52244D02*
X153756D01*
X140370Y57756D02*
X153756D01*
Y52244D02*
Y57756D01*
X140370Y52244D02*
Y57756D01*
X145095Y55000D02*
X149031D01*
X147063Y53031D02*
Y56968D01*
X26032Y184000D02*
X29969D01*
X28000Y182032D02*
Y185968D01*
X18158Y179669D02*
X37843D01*
X18158D02*
Y188331D01*
X37843D01*
Y179669D02*
Y188331D01*
X197031Y148000D02*
X200969D01*
X199000Y146031D02*
Y149969D01*
X189157Y152331D02*
X208842D01*
Y143669D02*
Y152331D01*
X189157Y143669D02*
X208842D01*
X189157D02*
Y152331D01*
X26032Y85000D02*
X29969D01*
X28000Y83031D02*
Y86968D01*
X18158Y80669D02*
X37843D01*
X18158D02*
Y89331D01*
X37843D01*
Y80669D02*
Y89331D01*
D44*
X156000Y10000D02*
Y40000D01*
X166000D01*
Y10000D02*
Y40000D01*
X156000Y10000D02*
X166000D01*
X156000Y50000D02*
X166000D01*
Y80000D01*
X156000D02*
X166000D01*
X156000Y50000D02*
Y80000D01*
M02*
