G04*
G04 #@! TF.GenerationSoftware,Altium Limited,Altium Designer,22.0.2 (36)*
G04*
G04 Layer_Color=16711935*
%FSLAX25Y25*%
%MOIN*%
G70*
G04*
G04 #@! TF.SameCoordinates,FD2FF894-48AE-4880-B7A9-669BF39D4961*
G04*
G04*
G04 #@! TF.FilePolarity,Positive*
G04*
G01*
G75*
%ADD15C,0.00591*%
D15*
X87083Y-43193D02*
X91216Y-47327D01*
X87083Y-43193D02*
Y-25673D01*
X109917D01*
Y-43193D02*
Y-25673D01*
X105783Y-47327D02*
X109917Y-43193D01*
X91216Y-47327D02*
X105783D01*
X83583Y-3693D02*
X87717Y-7827D01*
X83583Y-3693D02*
Y13827D01*
X106417D01*
Y-3693D02*
Y13827D01*
X102284Y-7827D02*
X106417Y-3693D01*
X87717Y-7827D02*
X102284D01*
X96682Y-43925D02*
X96307Y-44112D01*
X95932Y-44487D01*
X95745Y-44862D01*
Y-45612D01*
X95932Y-45987D01*
X96307Y-46361D01*
X96682Y-46549D01*
X97244Y-46736D01*
X98182D01*
X98744Y-46549D01*
X99119Y-46361D01*
X99494Y-45987D01*
X99681Y-45612D01*
Y-44862D01*
X99494Y-44487D01*
X99119Y-44112D01*
X98744Y-43925D01*
X96495Y-42819D02*
X96307Y-42444D01*
X95745Y-41882D01*
X99681D01*
X96495Y-39932D02*
X96307Y-39557D01*
X95745Y-38995D01*
X99681D01*
X93182Y-4425D02*
X92807Y-4612D01*
X92432Y-4987D01*
X92245Y-5362D01*
Y-6112D01*
X92432Y-6487D01*
X92807Y-6861D01*
X93182Y-7049D01*
X93744Y-7236D01*
X94682D01*
X95244Y-7049D01*
X95619Y-6861D01*
X95994Y-6487D01*
X96181Y-6112D01*
Y-5362D01*
X95994Y-4987D01*
X95619Y-4612D01*
X95244Y-4425D01*
X92995Y-3319D02*
X92807Y-2944D01*
X92245Y-2382D01*
X96181D01*
X93182Y-245D02*
X92995D01*
X92620Y-57D01*
X92432Y130D01*
X92245Y505D01*
Y1255D01*
X92432Y1630D01*
X92620Y1817D01*
X92995Y2004D01*
X93370D01*
X93744Y1817D01*
X94307Y1442D01*
X96181Y-432D01*
Y2192D01*
M02*
