G04*
G04 #@! TF.GenerationSoftware,Altium Limited,Altium Designer,22.0.2 (36)*
G04*
G04 Layer_Physical_Order=2*
G04 Layer_Color=16711680*
%FSLAX25Y25*%
%MOIN*%
G70*
G04*
G04 #@! TF.SameCoordinates,FD2FF894-48AE-4880-B7A9-669BF39D4961*
G04*
G04*
G04 #@! TF.FilePolarity,Positive*
G04*
G01*
G75*
%ADD11C,0.00984*%
%ADD12C,0.01968*%
%ADD17R,0.04921X0.03937*%
%ADD19R,0.06299X0.04724*%
%ADD26R,0.03937X0.04921*%
G04:AMPARAMS|DCode=30|XSize=61.02mil|YSize=23.62mil|CornerRadius=11.81mil|HoleSize=0mil|Usage=FLASHONLY|Rotation=180.000|XOffset=0mil|YOffset=0mil|HoleType=Round|Shape=RoundedRectangle|*
%AMROUNDEDRECTD30*
21,1,0.06102,0.00000,0,0,180.0*
21,1,0.03740,0.02362,0,0,180.0*
1,1,0.02362,-0.01870,0.00000*
1,1,0.02362,0.01870,0.00000*
1,1,0.02362,0.01870,0.00000*
1,1,0.02362,-0.01870,0.00000*
%
%ADD30ROUNDEDRECTD30*%
%ADD32R,0.08465X0.03740*%
%ADD33R,0.08465X0.12795*%
%ADD34C,0.03937*%
%ADD35C,0.01968*%
%ADD37C,0.07874*%
%ADD38R,0.07874X0.07874*%
%ADD39C,0.03937*%
%ADD40C,0.19685*%
%ADD41R,0.01575X0.05709*%
G36*
X262000Y216511D02*
X261500Y216349D01*
X260709Y217438D01*
X259438Y218709D01*
X257984Y219765D01*
X256383Y220581D01*
X254674Y221136D01*
X252899Y221417D01*
X251101D01*
X249326Y221136D01*
X247617Y220581D01*
X246016Y219765D01*
X244562Y218709D01*
X243291Y217438D01*
X242235Y215984D01*
X241419Y214383D01*
X240864Y212674D01*
X240583Y210899D01*
Y209101D01*
X240864Y207326D01*
X241419Y205617D01*
X242235Y204016D01*
X243291Y202562D01*
X244562Y201291D01*
X246016Y200235D01*
X247617Y199419D01*
X249326Y198864D01*
X251101Y198583D01*
X252899D01*
X254674Y198864D01*
X256383Y199419D01*
X257984Y200235D01*
X259438Y201291D01*
X260709Y202562D01*
X261500Y203651D01*
X262000Y203489D01*
Y-79489D01*
X261500Y-79651D01*
X260709Y-78562D01*
X259438Y-77291D01*
X257984Y-76235D01*
X256383Y-75419D01*
X254674Y-74864D01*
X252899Y-74583D01*
X251101D01*
X249326Y-74864D01*
X247617Y-75419D01*
X246016Y-76235D01*
X244562Y-77291D01*
X243291Y-78562D01*
X242235Y-80016D01*
X241419Y-81617D01*
X240864Y-83326D01*
X240583Y-85101D01*
Y-86899D01*
X240864Y-88674D01*
X241419Y-90383D01*
X242235Y-91984D01*
X243291Y-93438D01*
X244562Y-94709D01*
X246016Y-95765D01*
X247617Y-96581D01*
X249326Y-97136D01*
X251101Y-97417D01*
X252899D01*
X254674Y-97136D01*
X256383Y-96581D01*
X257984Y-95765D01*
X259438Y-94709D01*
X260709Y-93438D01*
X261500Y-92349D01*
X262000Y-92511D01*
Y-98000D01*
X127606D01*
Y-18000D01*
X127483Y-17386D01*
X127135Y-16865D01*
X126614Y-16517D01*
X126000Y-16394D01*
X121469D01*
X121263Y-16435D01*
X121053Y-16449D01*
X120958Y-16496D01*
X120854Y-16517D01*
X120680Y-16633D01*
X120511Y-16716D01*
X120384Y-16590D01*
X119128Y-15864D01*
X117726Y-15488D01*
X116274D01*
X114873Y-15864D01*
X113616Y-16590D01*
X113489Y-16716D01*
X113320Y-16633D01*
X113146Y-16517D01*
X113042Y-16496D01*
X112947Y-16449D01*
X112737Y-16435D01*
X112531Y-16394D01*
X58000D01*
X57385Y-16517D01*
X56865Y-16865D01*
X56517Y-17386D01*
X56394Y-18000D01*
Y-98000D01*
X-34000D01*
Y-92511D01*
X-33500Y-92349D01*
X-32709Y-93438D01*
X-31438Y-94709D01*
X-29984Y-95765D01*
X-28383Y-96581D01*
X-26674Y-97136D01*
X-24899Y-97417D01*
X-23101D01*
X-21326Y-97136D01*
X-19617Y-96581D01*
X-18016Y-95765D01*
X-16562Y-94709D01*
X-15291Y-93438D01*
X-14235Y-91984D01*
X-13419Y-90383D01*
X-12864Y-88674D01*
X-12583Y-86899D01*
Y-85101D01*
X-12864Y-83326D01*
X-13419Y-81617D01*
X-14235Y-80016D01*
X-15291Y-78562D01*
X-16562Y-77291D01*
X-18016Y-76235D01*
X-19617Y-75419D01*
X-21326Y-74864D01*
X-23101Y-74583D01*
X-24899D01*
X-26674Y-74864D01*
X-28383Y-75419D01*
X-29984Y-76235D01*
X-31438Y-77291D01*
X-32709Y-78562D01*
X-33500Y-79651D01*
X-34000Y-79489D01*
Y203489D01*
X-33500Y203651D01*
X-32709Y202562D01*
X-31438Y201291D01*
X-29984Y200235D01*
X-28383Y199419D01*
X-26674Y198864D01*
X-24899Y198583D01*
X-23101D01*
X-21326Y198864D01*
X-19617Y199419D01*
X-18016Y200235D01*
X-16562Y201291D01*
X-15291Y202562D01*
X-14235Y204016D01*
X-13419Y205617D01*
X-12864Y207326D01*
X-12583Y209101D01*
Y210899D01*
X-12864Y212674D01*
X-13419Y214383D01*
X-14235Y215984D01*
X-15291Y217438D01*
X-16562Y218709D01*
X-18016Y219765D01*
X-19617Y220581D01*
X-21326Y221136D01*
X-23101Y221417D01*
X-24899D01*
X-26674Y221136D01*
X-28383Y220581D01*
X-29984Y219765D01*
X-31438Y218709D01*
X-32709Y217438D01*
X-33500Y216349D01*
X-34000Y216511D01*
Y222000D01*
X262000D01*
Y216511D01*
D02*
G37*
G36*
X126000Y-98000D02*
X58000D01*
Y-18000D01*
X112531D01*
X112781Y-18433D01*
X112399Y-19094D01*
X112205Y-19819D01*
X117000D01*
X121795D01*
X121601Y-19094D01*
X121219Y-18433D01*
X121469Y-18000D01*
X126000D01*
Y-98000D01*
D02*
G37*
%LPC*%
G36*
X189337Y210559D02*
X188663D01*
X188012Y210385D01*
X187429Y210048D01*
X186952Y209571D01*
X186615Y208988D01*
X186441Y208337D01*
Y207663D01*
X186615Y207012D01*
X186812Y206672D01*
Y206090D01*
X183188D01*
Y206672D01*
X183385Y207012D01*
X183559Y207663D01*
Y208337D01*
X183385Y208988D01*
X183048Y209571D01*
X182571Y210048D01*
X181988Y210385D01*
X181337Y210559D01*
X180663D01*
X180012Y210385D01*
X179429Y210048D01*
X178952Y209571D01*
X178615Y208988D01*
X178472Y208452D01*
X163435Y193415D01*
X162978Y192732D01*
X162818Y191925D01*
Y170316D01*
X162356Y170124D01*
X155490Y176990D01*
X154806Y177447D01*
X154000Y177607D01*
X54468D01*
X53988Y177885D01*
X53337Y178059D01*
X52663D01*
X52012Y177885D01*
X51429Y177548D01*
X50952Y177071D01*
X50615Y176488D01*
X50441Y175837D01*
Y175163D01*
X50484Y175004D01*
X50179Y174607D01*
X43968D01*
X43488Y174885D01*
X42837Y175059D01*
X42163D01*
X41512Y174885D01*
X40929Y174548D01*
X40452Y174071D01*
X40115Y173488D01*
X40106Y173452D01*
X39559Y173344D01*
X39465Y173466D01*
X38890Y173907D01*
X38618Y174020D01*
X38718Y174520D01*
X40035D01*
Y181606D01*
X32035D01*
Y181669D01*
X27626D01*
X27522Y181825D01*
X26777Y182570D01*
X26819Y182671D01*
Y186000D01*
Y188969D01*
X24539D01*
Y186057D01*
X24039Y185790D01*
X24035Y185793D01*
Y189417D01*
X15965D01*
Y182331D01*
X21053D01*
X21342Y181980D01*
X21155Y181543D01*
X15965D01*
Y174684D01*
X15965Y174457D01*
X15538Y174280D01*
X13193D01*
X13074Y174431D01*
X12994Y174619D01*
X9575D01*
X10076Y174118D01*
X10392Y173987D01*
X10476Y173681D01*
X10489Y173406D01*
X10093Y172890D01*
X9815Y172219D01*
X9720Y171500D01*
X9815Y170781D01*
X9896Y170586D01*
X9618Y170170D01*
X9035D01*
Y171606D01*
X965D01*
Y170044D01*
X-965D01*
Y171480D01*
X-6055D01*
X-9065Y174490D01*
X-9749Y174947D01*
X-10555Y175107D01*
X-11858D01*
X-11864Y175127D01*
X-12589Y176384D01*
X-13616Y177410D01*
X-14873Y178136D01*
X-16274Y178512D01*
X-17726D01*
X-19128Y178136D01*
X-20384Y177410D01*
X-21410Y176384D01*
X-22136Y175127D01*
X-22512Y173726D01*
Y172274D01*
X-22136Y170872D01*
X-21410Y169616D01*
X-20384Y168589D01*
X-19128Y167864D01*
X-17726Y167488D01*
X-16274D01*
X-14873Y167864D01*
X-13616Y168589D01*
X-12589Y169616D01*
X-11896Y170816D01*
X-11481Y170856D01*
X-11387Y170852D01*
X-9035Y168500D01*
Y164394D01*
X-965D01*
Y165830D01*
X965D01*
Y164520D01*
X9035D01*
Y165956D01*
X9691D01*
X9807Y165840D01*
X9815Y165781D01*
X10093Y165110D01*
X10535Y164534D01*
X10827Y164310D01*
Y163690D01*
X10535Y163465D01*
X10093Y162890D01*
X9815Y162219D01*
X9807Y162161D01*
X9691Y162044D01*
X9035D01*
Y163480D01*
X965D01*
Y162170D01*
X-965D01*
Y163606D01*
X-9035D01*
Y161107D01*
X-11858D01*
X-11864Y161127D01*
X-12589Y162384D01*
X-13616Y163410D01*
X-14873Y164136D01*
X-16274Y164512D01*
X-17726D01*
X-19128Y164136D01*
X-20384Y163410D01*
X-21410Y162384D01*
X-22136Y161127D01*
X-22512Y159726D01*
Y158274D01*
X-22136Y156872D01*
X-21410Y155616D01*
X-20384Y154589D01*
X-19128Y153864D01*
X-17726Y153488D01*
X-16274D01*
X-14873Y153864D01*
X-13616Y154589D01*
X-12589Y155616D01*
X-11864Y156872D01*
X-11858Y156893D01*
X-9035D01*
Y156520D01*
X-965D01*
Y157956D01*
X965D01*
Y156394D01*
X9035D01*
Y157830D01*
X9618D01*
X9896Y157414D01*
X9815Y157219D01*
X9720Y156500D01*
X9815Y155781D01*
X10093Y155110D01*
X10535Y154534D01*
X11110Y154093D01*
X11781Y153815D01*
X12500Y153720D01*
X16240D01*
X16960Y153815D01*
X17630Y154093D01*
X18021Y154393D01*
X31979D01*
X32370Y154093D01*
X33040Y153815D01*
X33760Y153720D01*
X35475D01*
X35841Y153220D01*
X35799Y153091D01*
D01*
X35662Y152647D01*
X35299Y152435D01*
X34837Y152559D01*
X34163D01*
X33512Y152385D01*
X32929Y152048D01*
X32452Y151571D01*
X32115Y150988D01*
X31941Y150337D01*
Y149663D01*
X32115Y149012D01*
X32452Y148429D01*
X32929Y147952D01*
X33512Y147615D01*
X34163Y147441D01*
X34837D01*
X35299Y147565D01*
X35799Y147272D01*
Y144232D01*
X40524D01*
Y144807D01*
X40524D01*
Y148661D01*
X41901D01*
Y144807D01*
X42098D01*
Y148661D01*
X43476D01*
Y144807D01*
X43476D01*
Y144232D01*
X48201D01*
Y153091D01*
X48201D01*
X48071Y153591D01*
X48595Y154115D01*
X48965Y154394D01*
Y154394D01*
X48965Y154394D01*
X57035D01*
Y161480D01*
X55044D01*
Y162965D01*
X56480D01*
Y167386D01*
X56942Y167577D01*
X65893Y158627D01*
Y129241D01*
X65431Y129050D01*
X52990Y141490D01*
X52306Y141947D01*
X51500Y142107D01*
X43468D01*
X42988Y142385D01*
X42337Y142559D01*
X41663D01*
X41012Y142385D01*
X40429Y142048D01*
X39952Y141571D01*
X39615Y140988D01*
X39441Y140337D01*
Y139663D01*
X39615Y139012D01*
X39952Y138429D01*
X40429Y137952D01*
X41012Y137615D01*
X41172Y137573D01*
Y135768D01*
X35799D01*
Y126909D01*
X36343D01*
X36345Y126901D01*
X36802Y126218D01*
X40671Y122348D01*
X41355Y121892D01*
X42161Y121731D01*
X46788D01*
X52940Y115579D01*
X53084Y115044D01*
X53421Y114460D01*
X53897Y113984D01*
X54481Y113647D01*
X55016Y113503D01*
X61168Y107352D01*
Y68074D01*
X61329Y67268D01*
X61785Y66584D01*
X80860Y47510D01*
X81543Y47053D01*
X82350Y46893D01*
X85259D01*
X85450Y46431D01*
X82854Y43834D01*
X49446D01*
X49201Y44232D01*
X49201Y44334D01*
Y53091D01*
X48946D01*
Y54966D01*
X49465Y55484D01*
X49965Y55277D01*
Y54394D01*
X58035D01*
Y61480D01*
X56044D01*
Y63965D01*
X57480D01*
Y72035D01*
X50394D01*
Y63965D01*
X51830D01*
Y61480D01*
X49965D01*
Y60107D01*
X49000D01*
X48193Y59947D01*
X47510Y59490D01*
X47446Y59426D01*
X46903Y59591D01*
X46682Y60124D01*
X46181Y60625D01*
Y59000D01*
X44108D01*
Y60473D01*
X43975Y61141D01*
X43974Y61141D01*
X43947Y61279D01*
X43490Y61963D01*
X41621Y63832D01*
X40938Y64289D01*
X40541Y64367D01*
X40466Y64465D01*
X40387Y64526D01*
X40358Y65119D01*
X40638Y65393D01*
X42520D01*
Y63965D01*
X49606D01*
Y72035D01*
X45669D01*
X45553Y72315D01*
X45507Y72535D01*
X45947Y73194D01*
X46107Y74000D01*
Y76188D01*
X46176Y76228D01*
X46835Y76887D01*
X47302Y77695D01*
X47543Y78597D01*
Y79530D01*
X47302Y80431D01*
X46835Y81239D01*
X46176Y81898D01*
X45368Y82365D01*
X44467Y82606D01*
X43534D01*
X42632Y82365D01*
X41824Y81898D01*
X41165Y81239D01*
X40698Y80431D01*
X40535Y79823D01*
X40035Y79889D01*
Y82606D01*
X26945D01*
X26045Y83507D01*
X26236Y83969D01*
X26819D01*
Y86937D01*
Y89906D01*
X24539D01*
Y86262D01*
X24039Y85995D01*
X24035Y85998D01*
Y90480D01*
X15965D01*
Y83394D01*
X20195D01*
X20484Y83043D01*
X20297Y82606D01*
X15965D01*
Y75520D01*
X15564Y75280D01*
X13866D01*
X13532Y75780D01*
X13584Y75905D01*
Y76695D01*
X13282Y77424D01*
X12781Y77925D01*
Y76300D01*
X11600D01*
Y75119D01*
X9975D01*
X10476Y74618D01*
X10890Y74446D01*
X11091Y73895D01*
X11083Y73866D01*
X10815Y73219D01*
X10720Y72500D01*
X10815Y71781D01*
X11093Y71110D01*
X11535Y70534D01*
X11613Y70474D01*
X11641Y69953D01*
X11031Y69949D01*
X10427Y70553D01*
X9743Y71010D01*
X9035Y71151D01*
Y72606D01*
X965D01*
Y71044D01*
X35D01*
Y72480D01*
X-8035D01*
Y71107D01*
X-11127D01*
X-11874Y71855D01*
X-11864Y71873D01*
X-11488Y73274D01*
Y74726D01*
X-11864Y76127D01*
X-12589Y77384D01*
X-13616Y78411D01*
X-14873Y79136D01*
X-16274Y79512D01*
X-17726D01*
X-19128Y79136D01*
X-20384Y78411D01*
X-21410Y77384D01*
X-22136Y76127D01*
X-22512Y74726D01*
Y73274D01*
X-22136Y71873D01*
X-21410Y70616D01*
X-20384Y69590D01*
X-19128Y68864D01*
X-17726Y68488D01*
X-16274D01*
X-14873Y68864D01*
X-14854Y68874D01*
X-13490Y67510D01*
X-12807Y67053D01*
X-12000Y66893D01*
X-8035D01*
Y65394D01*
X35D01*
Y66830D01*
X965D01*
Y65520D01*
X9035D01*
Y65520D01*
X9429Y65730D01*
X9693Y65553D01*
X10500Y65393D01*
X11450D01*
X11646Y64910D01*
X11642Y64881D01*
X11362Y64607D01*
X10500D01*
X9693Y64447D01*
X9429Y64270D01*
X9035Y64480D01*
Y64480D01*
X965D01*
Y63170D01*
X35D01*
Y64606D01*
X-8035D01*
Y62107D01*
X-11858D01*
X-11864Y62128D01*
X-12589Y63384D01*
X-13616Y64411D01*
X-14873Y65136D01*
X-16274Y65512D01*
X-17726D01*
X-19128Y65136D01*
X-20384Y64411D01*
X-21410Y63384D01*
X-22136Y62128D01*
X-22512Y60726D01*
Y59274D01*
X-22136Y57872D01*
X-21410Y56616D01*
X-20384Y55589D01*
X-19128Y54864D01*
X-17726Y54488D01*
X-16274D01*
X-14873Y54864D01*
X-13616Y55589D01*
X-12589Y56616D01*
X-11864Y57872D01*
X-11858Y57893D01*
X-8035D01*
Y57520D01*
X35D01*
Y58956D01*
X965D01*
Y57394D01*
X9035D01*
Y58849D01*
X9743Y58990D01*
X10427Y59447D01*
X11354Y60373D01*
X11827Y60283D01*
Y59690D01*
X11535Y59465D01*
X11093Y58890D01*
X10815Y58219D01*
X10720Y57500D01*
X10815Y56781D01*
X11093Y56110D01*
X11535Y55534D01*
X12110Y55093D01*
X12781Y54815D01*
X13500Y54720D01*
X17240D01*
X17960Y54815D01*
X18630Y55093D01*
X19206Y55534D01*
X19647Y56110D01*
X19925Y56781D01*
X20020Y57500D01*
X19925Y58219D01*
X19647Y58890D01*
X19206Y59465D01*
X18913Y59690D01*
Y60310D01*
X19206Y60535D01*
X19647Y61110D01*
X19925Y61781D01*
X20020Y62500D01*
X19957Y62979D01*
X20007Y63090D01*
X20294Y63401D01*
X20375Y63441D01*
X20837D01*
X20915Y63381D01*
Y63138D01*
X21090Y62487D01*
X21367Y62006D01*
Y26274D01*
X21527Y25467D01*
X21984Y24783D01*
X36776Y9992D01*
Y-2972D01*
X48390D01*
Y1426D01*
X65417D01*
X66342Y1548D01*
X66360Y1555D01*
X71224D01*
Y2893D01*
X165000D01*
X165806Y3053D01*
X166490Y3510D01*
X176490Y13510D01*
X176947Y14194D01*
X177107Y15000D01*
Y41516D01*
X177895D01*
X178624Y41818D01*
X179125Y42319D01*
X177500D01*
Y44681D01*
X179125D01*
X178624Y45182D01*
X177895Y45484D01*
X177107D01*
Y54831D01*
X177385Y55312D01*
X177559Y55962D01*
Y56636D01*
X177385Y57287D01*
X177048Y57871D01*
X176571Y58347D01*
X175988Y58684D01*
X175337Y58858D01*
X174663D01*
X174012Y58684D01*
X173429Y58347D01*
X172952Y57871D01*
X172615Y57287D01*
X172441Y56636D01*
Y55962D01*
X172615Y55312D01*
X172893Y54831D01*
Y15873D01*
X166974Y9954D01*
X166512Y10145D01*
Y20512D01*
X164066D01*
X163937Y20995D01*
X164031Y21049D01*
X164951Y21969D01*
X165601Y23094D01*
X165795Y23819D01*
X161000D01*
X156205D01*
X156399Y23094D01*
X157049Y21969D01*
X157969Y21049D01*
X158063Y20995D01*
X157934Y20512D01*
X155488D01*
Y9488D01*
X165855D01*
X166046Y9026D01*
X164127Y7107D01*
X80150D01*
Y7417D01*
X76000D01*
X71850D01*
Y7107D01*
X71224D01*
Y8445D01*
X66360D01*
X66342Y8452D01*
X65417Y8574D01*
X48390D01*
Y12972D01*
X39756D01*
X25582Y27147D01*
Y62006D01*
X25859Y62487D01*
X26003Y63022D01*
X26086Y63106D01*
X26777Y63104D01*
X26929Y62952D01*
X27512Y62615D01*
X28048Y62472D01*
X29510Y61010D01*
X30193Y60553D01*
X31000Y60393D01*
X32979D01*
X33087Y60310D01*
Y59690D01*
X32794Y59465D01*
X32353Y58890D01*
X32075Y58219D01*
X31980Y57500D01*
X32075Y56781D01*
X32353Y56110D01*
X32794Y55534D01*
X33370Y55093D01*
X34040Y54815D01*
X34760Y54720D01*
X36785D01*
X37102Y54334D01*
X37054Y54093D01*
Y53091D01*
X36799D01*
Y44232D01*
X41524D01*
Y44807D01*
X41524D01*
Y48661D01*
X42902D01*
Y44807D01*
X44412D01*
X44476Y44307D01*
X44476Y44232D01*
X44231Y43834D01*
X42226D01*
X41420Y43674D01*
X40736Y43217D01*
X38360Y40841D01*
X37903Y40157D01*
X37743Y39350D01*
Y35768D01*
X36799D01*
Y26909D01*
X49201D01*
Y29231D01*
X89839D01*
X90645Y29392D01*
X91329Y29848D01*
X100302Y38822D01*
X100759Y39505D01*
X100792Y39673D01*
X101048Y39929D01*
X101385Y40512D01*
X101559Y41163D01*
Y41837D01*
X101385Y42488D01*
X101070Y43033D01*
Y43961D01*
X100909Y44767D01*
X100453Y45451D01*
X92413Y53490D01*
X91729Y53947D01*
X90923Y54107D01*
X82450D01*
X78338Y58219D01*
X78548Y58429D01*
X78885Y59012D01*
X79028Y59548D01*
X81991Y62510D01*
X82526Y62654D01*
X83110Y62991D01*
X83319Y63200D01*
X85577Y60943D01*
X85692Y60512D01*
X86029Y59929D01*
X86506Y59452D01*
X87089Y59115D01*
X87740Y58941D01*
X88414D01*
X88493Y58962D01*
X88941Y58565D01*
Y58163D01*
X89115Y57512D01*
X89452Y56929D01*
X89929Y56452D01*
X90512Y56115D01*
X91163Y55941D01*
X91837D01*
X92488Y56115D01*
X93071Y56452D01*
X93548Y56929D01*
X93885Y57512D01*
X94059Y58163D01*
Y58570D01*
X94063Y58576D01*
X94118Y58855D01*
X94597Y59000D01*
X99787Y53810D01*
X100470Y53353D01*
X101277Y53193D01*
X123432D01*
X123912Y52915D01*
X124563Y52741D01*
X125237D01*
X125888Y52915D01*
X126471Y53252D01*
X126948Y53729D01*
X127285Y54312D01*
X127459Y54963D01*
Y55637D01*
X127285Y56288D01*
X126963Y56844D01*
X127048Y56929D01*
X127385Y57512D01*
X127559Y58163D01*
Y58837D01*
X127385Y59488D01*
X127107Y59968D01*
Y63127D01*
X145952Y81972D01*
X146488Y82115D01*
X147071Y82452D01*
X147548Y82929D01*
X147885Y83512D01*
X148028Y84048D01*
X151148Y87168D01*
X170148D01*
X170539Y86905D01*
Y85118D01*
X174000D01*
Y83937D01*
X175181D01*
Y80968D01*
X175272D01*
X175463Y80507D01*
X174563Y79606D01*
X169965D01*
Y72520D01*
X172019D01*
Y70035D01*
X170583D01*
Y61965D01*
X177669D01*
Y70035D01*
X176233D01*
Y72520D01*
X178035D01*
Y77118D01*
X180608Y79691D01*
X180703Y79833D01*
X181780Y80910D01*
X183524D01*
Y81484D01*
X183524D01*
Y85339D01*
X184901D01*
Y81484D01*
X185978D01*
X186185Y80984D01*
X185010Y79809D01*
X184553Y79125D01*
X184393Y78319D01*
Y74000D01*
X184553Y73194D01*
X185010Y72510D01*
X186865Y70655D01*
X186868Y70653D01*
X187093Y70110D01*
X187534Y69534D01*
X187613Y69474D01*
X187642Y68881D01*
X187362Y68607D01*
X185543D01*
Y70035D01*
X178457D01*
Y61965D01*
X183130D01*
X183321Y61503D01*
X182510Y60692D01*
X182053Y60008D01*
X181893Y59202D01*
Y56405D01*
X181615Y55925D01*
X181441Y55274D01*
Y54600D01*
X181615Y53949D01*
X181952Y53366D01*
X182429Y52889D01*
X183012Y52552D01*
X183663Y52378D01*
X184337D01*
X184988Y52552D01*
X185571Y52889D01*
X186048Y53366D01*
X186385Y53949D01*
X186559Y54600D01*
Y55274D01*
X186385Y55925D01*
X186107Y56405D01*
Y58328D01*
X187327Y59548D01*
X187534Y59535D01*
X188110Y59093D01*
X188382Y58980D01*
X188282Y58480D01*
X187965D01*
Y51394D01*
X200290D01*
X200478Y51112D01*
X201097Y50493D01*
X200906Y50032D01*
X196539D01*
Y48244D01*
X200000D01*
Y47063D01*
X201181D01*
Y44094D01*
X203461D01*
Y46880D01*
X203961Y47147D01*
X203965Y47144D01*
Y43520D01*
X212035D01*
Y50606D01*
X206947D01*
X206658Y50957D01*
X206845Y51394D01*
X212035D01*
Y58480D01*
X212436Y58720D01*
X213274D01*
X213676Y58220D01*
X213593Y57800D01*
Y52835D01*
X213753Y52029D01*
X214210Y51345D01*
X221785Y43770D01*
X222469Y43313D01*
X223276Y43152D01*
X224082Y43313D01*
X224766Y43770D01*
X225223Y44453D01*
X225383Y45260D01*
X225223Y46066D01*
X224766Y46750D01*
X217807Y53708D01*
Y57800D01*
X217647Y58606D01*
X217190Y59290D01*
X216891Y59490D01*
X216810Y59983D01*
X216907Y60110D01*
X217185Y60781D01*
X217280Y61500D01*
X217185Y62219D01*
X217113Y62393D01*
X217447Y62893D01*
X218965D01*
Y61457D01*
X227035D01*
Y62893D01*
X227965D01*
Y61520D01*
X233055D01*
X236065Y58510D01*
X236749Y58053D01*
X237555Y57893D01*
X239858D01*
X239864Y57872D01*
X240589Y56616D01*
X241616Y55589D01*
X242873Y54864D01*
X244274Y54488D01*
X245726D01*
X247128Y54864D01*
X248384Y55589D01*
X249411Y56616D01*
X250136Y57872D01*
X250512Y59274D01*
Y60726D01*
X250136Y62128D01*
X249411Y63384D01*
X248384Y64411D01*
X247128Y65136D01*
X245726Y65512D01*
X244274D01*
X242873Y65136D01*
X241616Y64411D01*
X240589Y63384D01*
X239864Y62128D01*
X239858Y62107D01*
X238428D01*
X236035Y64500D01*
Y68606D01*
X227965D01*
Y67107D01*
X227035D01*
Y68543D01*
X218965D01*
Y67107D01*
X217246D01*
X217193Y67160D01*
X217185Y67219D01*
X216907Y67890D01*
X216465Y68466D01*
X216387Y68526D01*
X216358Y69119D01*
X216638Y69393D01*
X220945D01*
X221584Y69520D01*
X227035D01*
Y70956D01*
X227965D01*
Y69394D01*
X236035D01*
Y71893D01*
X239858D01*
X239864Y71873D01*
X240589Y70616D01*
X241616Y69590D01*
X242873Y68864D01*
X244274Y68488D01*
X245726D01*
X247128Y68864D01*
X248384Y69590D01*
X249411Y70616D01*
X250136Y71873D01*
X250512Y73274D01*
Y74726D01*
X250136Y76127D01*
X249411Y77384D01*
X248384Y78411D01*
X247128Y79136D01*
X245726Y79512D01*
X244274D01*
X242873Y79136D01*
X241616Y78411D01*
X240589Y77384D01*
X239864Y76127D01*
X239858Y76107D01*
X236035D01*
Y76480D01*
X227965D01*
Y75170D01*
X227035D01*
Y76606D01*
X218965D01*
Y73607D01*
X216281D01*
X216173Y73690D01*
Y74310D01*
X216465Y74534D01*
X216907Y75110D01*
X217185Y75781D01*
X217280Y76500D01*
X217185Y77219D01*
X216907Y77890D01*
X216465Y78465D01*
X215890Y78907D01*
X215219Y79185D01*
X214500Y79280D01*
X210760D01*
X210040Y79185D01*
X209370Y78907D01*
X208979Y78607D01*
X195021D01*
X194630Y78907D01*
X193960Y79185D01*
X193240Y79280D01*
X190934D01*
X190699Y79721D01*
X190786Y79851D01*
X190946Y80658D01*
Y80910D01*
X191201D01*
Y85593D01*
X240025D01*
X240589Y84616D01*
X241616Y83590D01*
X242873Y82864D01*
X244274Y82488D01*
X245726D01*
X247128Y82864D01*
X248384Y83590D01*
X249411Y84616D01*
X250136Y85873D01*
X250512Y87274D01*
Y88726D01*
X250136Y90127D01*
X249411Y91384D01*
X248384Y92410D01*
X247128Y93136D01*
X245726Y93512D01*
X244274D01*
X242873Y93136D01*
X241616Y92410D01*
X240589Y91384D01*
X239864Y90127D01*
X239778Y89808D01*
X200442D01*
X200251Y90270D01*
X217873Y107893D01*
X239858D01*
X239864Y107872D01*
X240589Y106616D01*
X241616Y105589D01*
X242873Y104864D01*
X244274Y104488D01*
X245726D01*
X247128Y104864D01*
X248384Y105589D01*
X249411Y106616D01*
X250136Y107872D01*
X250512Y109274D01*
Y110726D01*
X250136Y112127D01*
X249411Y113384D01*
X248384Y114410D01*
X247128Y115136D01*
X245726Y115512D01*
X244274D01*
X242873Y115136D01*
X241616Y114410D01*
X240589Y113384D01*
X239864Y112127D01*
X239858Y112107D01*
X217000D01*
X216194Y111947D01*
X215510Y111490D01*
X195403Y91383D01*
X186585D01*
X186451Y91883D01*
X186571Y91952D01*
X187048Y92429D01*
X187385Y93012D01*
X187559Y93663D01*
Y94337D01*
X187385Y94988D01*
X187048Y95571D01*
X186571Y96048D01*
X185988Y96385D01*
X185828Y96428D01*
Y98232D01*
X191201D01*
Y107091D01*
X189966D01*
X189715Y107342D01*
X189640Y107454D01*
X182604Y114490D01*
X181920Y114947D01*
X181114Y115107D01*
X173923D01*
X168607Y120423D01*
Y185127D01*
X171831Y188350D01*
X178799D01*
Y182890D01*
X177923Y182013D01*
X177461Y182204D01*
Y185906D01*
X175181D01*
Y182937D01*
Y179969D01*
X175225D01*
X175416Y179507D01*
X174516Y178606D01*
X169965D01*
Y171520D01*
X171893D01*
Y169035D01*
X170583D01*
Y160965D01*
X177669D01*
Y169035D01*
X176107D01*
Y171520D01*
X178035D01*
Y176165D01*
X181780Y179909D01*
X183524D01*
Y180264D01*
X183819Y180378D01*
Y182200D01*
X186181D01*
Y180378D01*
X186295Y180334D01*
X186476Y179909D01*
X186443Y179423D01*
X183917Y176898D01*
X183461Y176214D01*
X183300Y175408D01*
Y174592D01*
X183461Y173786D01*
X183917Y173102D01*
X186751Y170269D01*
X186815Y169781D01*
X187093Y169110D01*
X187534Y168535D01*
X187613Y168474D01*
X187642Y167881D01*
X187362Y167607D01*
X185543D01*
Y169035D01*
X178457D01*
Y160965D01*
X185416D01*
X185429Y160952D01*
X186012Y160615D01*
X186663Y160441D01*
X186728D01*
X186815Y159781D01*
X187093Y159110D01*
X187534Y158535D01*
X188110Y158093D01*
X188382Y157980D01*
X188282Y157480D01*
X186965D01*
Y150394D01*
X200055D01*
X200955Y149493D01*
X200764Y149031D01*
X200181D01*
Y146063D01*
Y143095D01*
X202461D01*
Y146636D01*
X202961Y146857D01*
X202965Y146854D01*
Y142520D01*
X211035D01*
Y149606D01*
X206805D01*
X206584Y149929D01*
X206799Y150394D01*
X211035D01*
Y157316D01*
X211035Y157480D01*
X211436Y157720D01*
X214192D01*
X214532Y157234D01*
X214516Y157195D01*
Y156405D01*
X214818Y155676D01*
X215319Y155175D01*
Y156800D01*
X216500D01*
Y157981D01*
X218125D01*
X217624Y158482D01*
X217193Y158661D01*
X216937Y159063D01*
X216967Y159254D01*
X217185Y159781D01*
X217280Y160500D01*
X217185Y161219D01*
X217104Y161414D01*
X217382Y161830D01*
X218965D01*
Y160394D01*
X227035D01*
Y161830D01*
X227965D01*
Y160520D01*
X233055D01*
X236065Y157510D01*
X236749Y157053D01*
X237555Y156893D01*
X239858D01*
X239864Y156872D01*
X240589Y155616D01*
X241616Y154589D01*
X242873Y153864D01*
X244274Y153488D01*
X245726D01*
X247128Y153864D01*
X248384Y154589D01*
X249411Y155616D01*
X250136Y156872D01*
X250512Y158274D01*
Y159726D01*
X250136Y161127D01*
X249411Y162384D01*
X248384Y163410D01*
X247128Y164136D01*
X245726Y164512D01*
X244274D01*
X242873Y164136D01*
X241616Y163410D01*
X240589Y162384D01*
X239864Y161127D01*
X239858Y161107D01*
X238428D01*
X236035Y163500D01*
Y167606D01*
X227965D01*
Y166044D01*
X227035D01*
Y167480D01*
X218965D01*
Y166044D01*
X217309D01*
X217193Y166161D01*
X217185Y166219D01*
X216907Y166890D01*
X216465Y167465D01*
X216173Y167690D01*
Y168310D01*
X216465Y168535D01*
X216907Y169110D01*
X217185Y169781D01*
X217193Y169840D01*
X217309Y169956D01*
X218965D01*
Y168520D01*
X227035D01*
Y169956D01*
X227965D01*
Y168394D01*
X236035D01*
Y170893D01*
X239858D01*
X239864Y170872D01*
X240589Y169616D01*
X241616Y168589D01*
X242873Y167864D01*
X244274Y167488D01*
X245726D01*
X247128Y167864D01*
X248384Y168589D01*
X249411Y169616D01*
X250136Y170872D01*
X250512Y172274D01*
Y173726D01*
X250136Y175127D01*
X249411Y176384D01*
X248384Y177410D01*
X247128Y178136D01*
X245726Y178512D01*
X244274D01*
X242873Y178136D01*
X241616Y177410D01*
X240589Y176384D01*
X239864Y175127D01*
X239858Y175107D01*
X236035D01*
Y175480D01*
X227965D01*
Y174170D01*
X227035D01*
Y175606D01*
X218965D01*
Y174170D01*
X217382D01*
X217104Y174586D01*
X217185Y174781D01*
X217280Y175500D01*
X217185Y176219D01*
X216907Y176890D01*
X216465Y177465D01*
X215890Y177907D01*
X215219Y178185D01*
X214500Y178280D01*
X210760D01*
X210040Y178185D01*
X209370Y177907D01*
X208979Y177607D01*
X195021D01*
X194630Y177907D01*
X193960Y178185D01*
X193240Y178280D01*
X191229D01*
X190912Y178666D01*
X190946Y178839D01*
Y179909D01*
X191201D01*
Y184593D01*
X240025D01*
X240589Y183616D01*
X241616Y182589D01*
X242873Y181864D01*
X244274Y181488D01*
X245726D01*
X247128Y181864D01*
X248384Y182589D01*
X249411Y183616D01*
X250136Y184872D01*
X250512Y186274D01*
Y187726D01*
X250136Y189128D01*
X249411Y190384D01*
X248384Y191411D01*
X247128Y192136D01*
X245726Y192512D01*
X244274D01*
X242873Y192136D01*
X241616Y191411D01*
X240589Y190384D01*
X239864Y189128D01*
X239778Y188808D01*
X189134D01*
X188930Y188768D01*
X187378D01*
X187171Y189268D01*
X190329Y192425D01*
X190786Y193109D01*
X190946Y193915D01*
Y197232D01*
X191201D01*
Y206090D01*
X191201Y206090D01*
X191141Y206591D01*
X191385Y207012D01*
X191559Y207663D01*
Y208337D01*
X191385Y208988D01*
X191048Y209571D01*
X190571Y210048D01*
X189988Y210385D01*
X189337Y210559D01*
D02*
G37*
G36*
X31461Y188969D02*
X29181D01*
Y187181D01*
X31461D01*
Y188969D01*
D02*
G37*
G36*
X39461Y188906D02*
X37181D01*
Y187118D01*
X39461D01*
Y188906D01*
D02*
G37*
G36*
X34819D02*
X32539D01*
Y187118D01*
X34819D01*
Y188906D01*
D02*
G37*
G36*
X172819Y185906D02*
X170539D01*
Y184118D01*
X172819D01*
Y185906D01*
D02*
G37*
G36*
X31461Y184819D02*
X29181D01*
Y183031D01*
X31461D01*
Y184819D01*
D02*
G37*
G36*
X39461Y184756D02*
X37181D01*
Y182968D01*
X39461D01*
Y184756D01*
D02*
G37*
G36*
X34819D02*
X32539D01*
Y182968D01*
X34819D01*
Y184756D01*
D02*
G37*
G36*
X-16274Y192512D02*
X-17726D01*
X-19128Y192136D01*
X-20384Y191411D01*
X-21410Y190384D01*
X-22136Y189128D01*
X-22512Y187726D01*
Y186274D01*
X-22136Y184872D01*
X-21410Y183616D01*
X-20384Y182589D01*
X-19128Y181864D01*
X-17726Y181488D01*
X-16274D01*
X-14873Y181864D01*
X-13616Y182589D01*
X-12589Y183616D01*
X-11864Y184872D01*
X-11488Y186274D01*
Y187726D01*
X-11864Y189128D01*
X-12589Y190384D01*
X-13616Y191411D01*
X-14873Y192136D01*
X-16274Y192512D01*
D02*
G37*
G36*
X226461Y182905D02*
X224181D01*
Y181118D01*
X226461D01*
Y182905D01*
D02*
G37*
G36*
X221819D02*
X219539D01*
Y181118D01*
X221819D01*
Y182905D01*
D02*
G37*
G36*
X172819Y181756D02*
X170539D01*
Y179969D01*
X172819D01*
Y181756D01*
D02*
G37*
G36*
X8461Y178905D02*
X6181D01*
Y177118D01*
X8461D01*
Y178905D01*
D02*
G37*
G36*
X3819D02*
X1539D01*
Y177118D01*
X3819D01*
Y178905D01*
D02*
G37*
G36*
X12381Y177425D02*
Y176981D01*
X12825D01*
X12381Y177425D01*
D02*
G37*
G36*
X10019D02*
X9575Y176981D01*
X10019D01*
Y177425D01*
D02*
G37*
G36*
X226461Y178756D02*
X224181D01*
Y176969D01*
X226461D01*
Y178756D01*
D02*
G37*
G36*
X221819D02*
X219539D01*
Y176969D01*
X221819D01*
Y178756D01*
D02*
G37*
G36*
X44337Y180559D02*
X43663D01*
X43012Y180385D01*
X42429Y180048D01*
X41952Y179571D01*
X41615Y178988D01*
X41441Y178337D01*
Y177663D01*
X41615Y177012D01*
X41952Y176429D01*
X42429Y175952D01*
X43012Y175615D01*
X43663Y175441D01*
X44337D01*
X44988Y175615D01*
X45571Y175952D01*
X46048Y176429D01*
X46385Y177012D01*
X46559Y177663D01*
Y178337D01*
X46385Y178988D01*
X46048Y179571D01*
X45571Y180048D01*
X44988Y180385D01*
X44337Y180559D01*
D02*
G37*
G36*
X8461Y174756D02*
X6181D01*
Y172968D01*
X8461D01*
Y174756D01*
D02*
G37*
G36*
X3819D02*
X1539D01*
Y172968D01*
X3819D01*
Y174756D01*
D02*
G37*
G36*
X226461Y159031D02*
X224181D01*
Y157244D01*
X226461D01*
Y159031D01*
D02*
G37*
G36*
X221819D02*
X219539D01*
Y157244D01*
X221819D01*
Y159031D01*
D02*
G37*
G36*
X218125Y155619D02*
X217681D01*
Y155175D01*
X218125Y155619D01*
D02*
G37*
G36*
X8461Y155032D02*
X6181D01*
Y153244D01*
X8461D01*
Y155032D01*
D02*
G37*
G36*
X3819D02*
X1539D01*
Y153244D01*
X3819D01*
Y155032D01*
D02*
G37*
G36*
X226461Y154882D02*
X224181D01*
Y153094D01*
X226461D01*
Y154882D01*
D02*
G37*
G36*
X221819D02*
X219539D01*
Y153094D01*
X221819D01*
Y154882D01*
D02*
G37*
G36*
X174337Y157858D02*
X173663D01*
X173012Y157684D01*
X172429Y157347D01*
X171952Y156870D01*
X171615Y156287D01*
X171441Y155636D01*
Y154962D01*
X171615Y154311D01*
X171952Y153728D01*
X172429Y153252D01*
X173012Y152915D01*
X173663Y152740D01*
X174337D01*
X174988Y152915D01*
X175571Y153252D01*
X176048Y153728D01*
X176385Y154311D01*
X176559Y154962D01*
Y155636D01*
X176385Y156287D01*
X176048Y156870D01*
X175571Y157347D01*
X174988Y157684D01*
X174337Y157858D01*
D02*
G37*
G36*
X56461Y153032D02*
X54181D01*
Y151244D01*
X56461D01*
Y153032D01*
D02*
G37*
G36*
X51819D02*
X49539D01*
Y151244D01*
X51819D01*
Y153032D01*
D02*
G37*
G36*
X8461Y150882D02*
X6181D01*
Y149094D01*
X8461D01*
Y150882D01*
D02*
G37*
G36*
X3819D02*
X1539D01*
Y149094D01*
X3819D01*
Y150882D01*
D02*
G37*
G36*
X197819Y149031D02*
X195539D01*
Y147244D01*
X197819D01*
Y149031D01*
D02*
G37*
G36*
X194461D02*
X192181D01*
Y147244D01*
X194461D01*
Y149031D01*
D02*
G37*
G36*
X189819D02*
X187539D01*
Y147244D01*
X189819D01*
Y149031D01*
D02*
G37*
G36*
X56461Y148882D02*
X54181D01*
Y147095D01*
X56461D01*
Y148882D01*
D02*
G37*
G36*
X51819D02*
X49539D01*
Y147095D01*
X51819D01*
Y148882D01*
D02*
G37*
G36*
X197819Y144882D02*
X195539D01*
Y143095D01*
X197819D01*
Y144882D01*
D02*
G37*
G36*
X194461D02*
X192181D01*
Y143095D01*
X194461D01*
Y144882D01*
D02*
G37*
G36*
X189819D02*
X187539D01*
Y143095D01*
X189819D01*
Y144882D01*
D02*
G37*
G36*
X245726Y150512D02*
X244274D01*
X242873Y150136D01*
X241616Y149410D01*
X240589Y148384D01*
X239864Y147127D01*
X239488Y145726D01*
Y144274D01*
X239864Y142873D01*
X240589Y141616D01*
X241616Y140589D01*
X242873Y139864D01*
X244274Y139488D01*
X245726D01*
X247128Y139864D01*
X248384Y140589D01*
X249411Y141616D01*
X250136Y142873D01*
X250512Y144274D01*
Y145726D01*
X250136Y147127D01*
X249411Y148384D01*
X248384Y149410D01*
X247128Y150136D01*
X245726Y150512D01*
D02*
G37*
G36*
X-16274D02*
X-17726D01*
X-19128Y150136D01*
X-20384Y149410D01*
X-21410Y148384D01*
X-22136Y147127D01*
X-22512Y145726D01*
Y144274D01*
X-22136Y142873D01*
X-21410Y141616D01*
X-20384Y140589D01*
X-19128Y139864D01*
X-17726Y139488D01*
X-16274D01*
X-14873Y139864D01*
X-13616Y140589D01*
X-12589Y141616D01*
X-11864Y142873D01*
X-11488Y144274D01*
Y145726D01*
X-11864Y147127D01*
X-12589Y148384D01*
X-13616Y149410D01*
X-14873Y150136D01*
X-16274Y150512D01*
D02*
G37*
G36*
X-15819Y128795D02*
Y125181D01*
X-12205D01*
X-12399Y125906D01*
X-13049Y127031D01*
X-13969Y127951D01*
X-15094Y128601D01*
X-15819Y128795D01*
D02*
G37*
G36*
X-18181Y128795D02*
X-18906Y128601D01*
X-20031Y127951D01*
X-20951Y127031D01*
X-21601Y125906D01*
X-21795Y125181D01*
X-18181D01*
Y128795D01*
D02*
G37*
G36*
X246181Y128795D02*
Y125181D01*
X249795D01*
X249601Y125906D01*
X248951Y127031D01*
X248031Y127951D01*
X246906Y128601D01*
X246181Y128795D01*
D02*
G37*
G36*
X243819Y128795D02*
X243094Y128601D01*
X241969Y127951D01*
X241049Y127031D01*
X240399Y125906D01*
X240205Y125181D01*
X243819D01*
Y128795D01*
D02*
G37*
G36*
X249795Y122819D02*
X246181D01*
Y119205D01*
X246906Y119399D01*
X248031Y120049D01*
X248951Y120969D01*
X249601Y122094D01*
X249795Y122819D01*
D02*
G37*
G36*
X-12205Y122819D02*
X-15819D01*
Y119205D01*
X-15094Y119399D01*
X-13969Y120049D01*
X-13049Y120969D01*
X-12399Y122094D01*
X-12205Y122819D01*
D02*
G37*
G36*
X-18181D02*
X-21795D01*
X-21601Y122094D01*
X-20951Y120969D01*
X-20031Y120049D01*
X-18906Y119399D01*
X-18181Y119205D01*
Y122819D01*
D02*
G37*
G36*
X243819Y122819D02*
X240205D01*
X240399Y122094D01*
X241049Y120969D01*
X241969Y120049D01*
X243094Y119399D01*
X243819Y119205D01*
Y122819D01*
D02*
G37*
G36*
X42811Y117534D02*
X42138D01*
X41487Y117359D01*
X40903Y117022D01*
X40427Y116546D01*
X40090Y115962D01*
X39915Y115311D01*
Y114637D01*
X40090Y113987D01*
X40427Y113403D01*
X40903Y112927D01*
X41487Y112590D01*
X42138Y112415D01*
X42811D01*
X43462Y112590D01*
X44046Y112927D01*
X44522Y113403D01*
X44859Y113987D01*
X45033Y114637D01*
Y115311D01*
X44859Y115962D01*
X44522Y116546D01*
X44046Y117022D01*
X43462Y117359D01*
X42811Y117534D01*
D02*
G37*
G36*
X-16274Y115512D02*
X-17726D01*
X-19128Y115136D01*
X-20384Y114410D01*
X-21410Y113384D01*
X-22136Y112127D01*
X-22512Y110726D01*
Y109274D01*
X-22136Y107872D01*
X-21410Y106616D01*
X-20384Y105589D01*
X-19128Y104864D01*
X-17726Y104488D01*
X-16274D01*
X-14873Y104864D01*
X-14854Y104874D01*
X-11465Y101484D01*
X-10781Y101027D01*
X-9974Y100867D01*
X56506D01*
X56987Y100590D01*
X57638Y100415D01*
X58311D01*
X58962Y100590D01*
X59546Y100927D01*
X60022Y101403D01*
X60359Y101987D01*
X60533Y102638D01*
Y103311D01*
X60359Y103962D01*
X60022Y104546D01*
X59546Y105022D01*
X58962Y105359D01*
X58311Y105534D01*
X57638D01*
X56987Y105359D01*
X56506Y105082D01*
X-9102D01*
X-11874Y107854D01*
X-11864Y107872D01*
X-11488Y109274D01*
Y110726D01*
X-11864Y112127D01*
X-12589Y113384D01*
X-13616Y114410D01*
X-14873Y115136D01*
X-16274Y115512D01*
D02*
G37*
G36*
X31461Y89906D02*
X29181D01*
Y88118D01*
X31461D01*
Y89906D01*
D02*
G37*
G36*
X39461D02*
X37181D01*
Y88118D01*
X39461D01*
Y89906D01*
D02*
G37*
G36*
X34819D02*
X32539D01*
Y88118D01*
X34819D01*
Y89906D01*
D02*
G37*
G36*
X39461Y85756D02*
X37181D01*
Y83969D01*
X39461D01*
Y85756D01*
D02*
G37*
G36*
X34819D02*
X32539D01*
Y83969D01*
X34819D01*
Y85756D01*
D02*
G37*
G36*
X31461D02*
X29181D01*
Y83969D01*
X31461D01*
Y85756D01*
D02*
G37*
G36*
X-16274Y93512D02*
X-17726D01*
X-19128Y93136D01*
X-20384Y92410D01*
X-21410Y91384D01*
X-22136Y90127D01*
X-22512Y88726D01*
Y87274D01*
X-22136Y85873D01*
X-21410Y84616D01*
X-20384Y83590D01*
X-19128Y82864D01*
X-17726Y82488D01*
X-16274D01*
X-14873Y82864D01*
X-13616Y83590D01*
X-12589Y84616D01*
X-11864Y85873D01*
X-11488Y87274D01*
Y88726D01*
X-11864Y90127D01*
X-12589Y91384D01*
X-13616Y92410D01*
X-14873Y93136D01*
X-16274Y93512D01*
D02*
G37*
G36*
X226461Y83906D02*
X224181D01*
Y82118D01*
X226461D01*
Y83906D01*
D02*
G37*
G36*
X221819D02*
X219539D01*
Y82118D01*
X221819D01*
Y83906D01*
D02*
G37*
G36*
X172819Y82756D02*
X170539D01*
Y80968D01*
X172819D01*
Y82756D01*
D02*
G37*
G36*
X8461Y79905D02*
X6181D01*
Y78118D01*
X8461D01*
Y79905D01*
D02*
G37*
G36*
X3819D02*
X1539D01*
Y78118D01*
X3819D01*
Y79905D01*
D02*
G37*
G36*
X226461Y79756D02*
X224181D01*
Y77969D01*
X226461D01*
Y79756D01*
D02*
G37*
G36*
X221819D02*
X219539D01*
Y77969D01*
X221819D01*
Y79756D01*
D02*
G37*
G36*
X10419Y77925D02*
X9975Y77481D01*
X10419D01*
Y77925D01*
D02*
G37*
G36*
X53466Y81543D02*
X52534D01*
X51632Y81302D01*
X50824Y80835D01*
X50165Y80176D01*
X49698Y79368D01*
X49457Y78466D01*
Y77534D01*
X49698Y76632D01*
X50165Y75824D01*
X50824Y75165D01*
X51632Y74698D01*
X52534Y74457D01*
X53466D01*
X54368Y74698D01*
X55176Y75165D01*
X55835Y75824D01*
X56302Y76632D01*
X56543Y77534D01*
Y78466D01*
X56302Y79368D01*
X55835Y80176D01*
X55176Y80835D01*
X54368Y81302D01*
X53466Y81543D01*
D02*
G37*
G36*
X8461Y75756D02*
X6181D01*
Y73968D01*
X8461D01*
Y75756D01*
D02*
G37*
G36*
X3819D02*
X1539D01*
Y73968D01*
X3819D01*
Y75756D01*
D02*
G37*
G36*
X226461Y60094D02*
X224181D01*
Y58307D01*
X226461D01*
Y60094D01*
D02*
G37*
G36*
X221819D02*
X219539D01*
Y58307D01*
X221819D01*
Y60094D01*
D02*
G37*
G36*
X8461Y56032D02*
X6181D01*
Y54244D01*
X8461D01*
Y56032D01*
D02*
G37*
G36*
X3819D02*
X1539D01*
Y54244D01*
X3819D01*
Y56032D01*
D02*
G37*
G36*
X226461Y55945D02*
X224181D01*
Y54158D01*
X226461D01*
Y55945D01*
D02*
G37*
G36*
X221819D02*
X219539D01*
Y54158D01*
X221819D01*
Y55945D01*
D02*
G37*
G36*
X57461Y53031D02*
X55181D01*
Y51244D01*
X57461D01*
Y53031D01*
D02*
G37*
G36*
X52819D02*
X50539D01*
Y51244D01*
X52819D01*
Y53031D01*
D02*
G37*
G36*
X8461Y51882D02*
X6181D01*
Y50094D01*
X8461D01*
Y51882D01*
D02*
G37*
G36*
X3819D02*
X1539D01*
Y50094D01*
X3819D01*
Y51882D01*
D02*
G37*
G36*
X161726Y80512D02*
X160274D01*
X158872Y80136D01*
X157616Y79410D01*
X156589Y78384D01*
X155864Y77127D01*
X155488Y75726D01*
Y74274D01*
X155864Y72873D01*
X156589Y71616D01*
X157616Y70590D01*
X158204Y70250D01*
Y69750D01*
X157616Y69411D01*
X156589Y68384D01*
X155864Y67128D01*
X155488Y65726D01*
Y64274D01*
X155864Y62872D01*
X156589Y61616D01*
X157193Y61012D01*
X156986Y60512D01*
X155488D01*
Y49488D01*
X166512D01*
Y60512D01*
X165014D01*
X164807Y61012D01*
X165410Y61616D01*
X166136Y62872D01*
X166512Y64274D01*
Y65726D01*
X166136Y67128D01*
X165410Y68384D01*
X164384Y69411D01*
X163796Y69750D01*
Y70250D01*
X164384Y70590D01*
X165410Y71616D01*
X166136Y72873D01*
X166512Y74274D01*
Y75726D01*
X166136Y77127D01*
X165410Y78384D01*
X164384Y79410D01*
X163128Y80136D01*
X161726Y80512D01*
D02*
G37*
G36*
X195461Y50032D02*
X193181D01*
Y48244D01*
X195461D01*
Y50032D01*
D02*
G37*
G36*
X190819D02*
X188539D01*
Y48244D01*
X190819D01*
Y50032D01*
D02*
G37*
G36*
X185500Y48520D02*
Y48076D01*
X185944D01*
X185500Y48520D01*
D02*
G37*
G36*
X183137D02*
X182694Y48076D01*
X183137D01*
Y48520D01*
D02*
G37*
G36*
X57461Y48882D02*
X55181D01*
Y47095D01*
X57461D01*
Y48882D01*
D02*
G37*
G36*
X52819D02*
X50539D01*
Y47095D01*
X52819D01*
Y48882D01*
D02*
G37*
G36*
X185944Y45714D02*
X185500D01*
Y45270D01*
X185944Y45714D01*
D02*
G37*
G36*
X183137D02*
X182694D01*
X183137Y45270D01*
Y45714D01*
D02*
G37*
G36*
X198819Y45882D02*
X196539D01*
Y44094D01*
X198819D01*
Y45882D01*
D02*
G37*
G36*
X195461D02*
X193181D01*
Y44094D01*
X195461D01*
Y45882D01*
D02*
G37*
G36*
X190819D02*
X188539D01*
Y44094D01*
X190819D01*
Y45882D01*
D02*
G37*
G36*
X216181Y41731D02*
Y41287D01*
X216625D01*
X216181Y41731D01*
D02*
G37*
G36*
X213819D02*
X213375Y41287D01*
X213819D01*
Y41731D01*
D02*
G37*
G36*
X245726Y51512D02*
X244274D01*
X242873Y51136D01*
X241616Y50410D01*
X240589Y49384D01*
X239864Y48127D01*
X239488Y46726D01*
Y45274D01*
X239864Y43872D01*
X240589Y42616D01*
X241616Y41589D01*
X242873Y40864D01*
X244274Y40488D01*
X245726D01*
X247128Y40864D01*
X248384Y41589D01*
X249411Y42616D01*
X250136Y43872D01*
X250512Y45274D01*
Y46726D01*
X250136Y48127D01*
X249411Y49384D01*
X248384Y50410D01*
X247128Y51136D01*
X245726Y51512D01*
D02*
G37*
G36*
X-16274D02*
X-17726D01*
X-19128Y51136D01*
X-20384Y50410D01*
X-21410Y49384D01*
X-22136Y48127D01*
X-22512Y46726D01*
Y45274D01*
X-22136Y43872D01*
X-21410Y42616D01*
X-20384Y41589D01*
X-19128Y40864D01*
X-17726Y40488D01*
X-16274D01*
X-14873Y40864D01*
X-13616Y41589D01*
X-12589Y42616D01*
X-11864Y43872D01*
X-11488Y45274D01*
Y46726D01*
X-11864Y48127D01*
X-12589Y49384D01*
X-13616Y50410D01*
X-14873Y51136D01*
X-16274Y51512D01*
D02*
G37*
G36*
X216625Y38925D02*
X216181D01*
Y38481D01*
X216625Y38925D01*
D02*
G37*
G36*
X213819D02*
X213375D01*
X213819Y38481D01*
Y38925D01*
D02*
G37*
G36*
X162181Y39795D02*
Y36181D01*
X165795D01*
X165601Y36906D01*
X164951Y38031D01*
X164031Y38951D01*
X162906Y39601D01*
X162181Y39795D01*
D02*
G37*
G36*
X159819Y39795D02*
X159094Y39601D01*
X157969Y38951D01*
X157049Y38031D01*
X156399Y36906D01*
X156205Y36181D01*
X159819D01*
Y39795D01*
D02*
G37*
G36*
X165795Y33819D02*
X161000D01*
X156205D01*
X156399Y33094D01*
X157049Y31969D01*
X157969Y31049D01*
X159094Y30399D01*
X159619Y30259D01*
Y29741D01*
X159094Y29601D01*
X157969Y28951D01*
X157049Y28031D01*
X156399Y26906D01*
X156205Y26181D01*
X161000D01*
X165795D01*
X165601Y26906D01*
X164951Y28031D01*
X164031Y28951D01*
X162906Y29601D01*
X162381Y29741D01*
Y30259D01*
X162906Y30399D01*
X164031Y31049D01*
X164951Y31969D01*
X165601Y33094D01*
X165795Y33819D01*
D02*
G37*
G36*
X70650Y16925D02*
X66598D01*
Y15236D01*
X70650D01*
Y16925D01*
D02*
G37*
G36*
X64236D02*
X60185D01*
Y15236D01*
X64236D01*
Y16925D01*
D02*
G37*
G36*
X70650Y12874D02*
X66598D01*
Y11185D01*
X70650D01*
Y12874D01*
D02*
G37*
G36*
X64236D02*
X60185D01*
Y11185D01*
X64236D01*
Y12874D01*
D02*
G37*
G36*
X80150Y11961D02*
X77181D01*
Y9780D01*
X80150D01*
Y11961D01*
D02*
G37*
G36*
X74819D02*
X71850D01*
Y9780D01*
X74819D01*
Y11961D01*
D02*
G37*
G36*
X80724Y-63D02*
X71276D01*
Y-454D01*
X65445D01*
X65445Y-454D01*
X64520Y-575D01*
X64436Y-610D01*
X59610D01*
Y-7500D01*
X64475D01*
X64492Y-7507D01*
X65417Y-7629D01*
X65627Y-7601D01*
X71276D01*
Y-7937D01*
X80724D01*
Y-63D01*
D02*
G37*
G36*
X193348Y-1462D02*
Y-1906D01*
X193791D01*
X193348Y-1462D01*
D02*
G37*
G36*
X190985D02*
X190541Y-1906D01*
X190985D01*
Y-1462D01*
D02*
G37*
G36*
X193791Y-4268D02*
X193348D01*
Y-4712D01*
X193791Y-4268D01*
D02*
G37*
G36*
X190985D02*
X190541D01*
X190985Y-4712D01*
Y-4268D01*
D02*
G37*
G36*
X147726Y-15488D02*
X146274D01*
X144872Y-15864D01*
X143616Y-16590D01*
X142589Y-17616D01*
X141864Y-18872D01*
X141488Y-20274D01*
Y-21726D01*
X141864Y-23128D01*
X142589Y-24384D01*
X143616Y-25411D01*
X144711Y-26043D01*
X144760Y-26513D01*
X144730Y-26610D01*
X143969Y-27049D01*
X143049Y-27969D01*
X142399Y-29094D01*
X142205Y-29819D01*
X147000D01*
X151795D01*
X151601Y-29094D01*
X150951Y-27969D01*
X150031Y-27049D01*
X149269Y-26610D01*
X149240Y-26513D01*
X149289Y-26043D01*
X150384Y-25411D01*
X151410Y-24384D01*
X152136Y-23128D01*
X152512Y-21726D01*
Y-20274D01*
X152136Y-18872D01*
X151410Y-17616D01*
X150384Y-16590D01*
X149127Y-15864D01*
X147726Y-15488D01*
D02*
G37*
G36*
X188906Y-42539D02*
X187118D01*
Y-44819D01*
X188906D01*
Y-42539D01*
D02*
G37*
G36*
X184756D02*
X182968D01*
Y-44819D01*
X184756D01*
Y-42539D01*
D02*
G37*
G36*
X188906Y-47181D02*
X187118D01*
Y-49461D01*
X188906D01*
Y-47181D01*
D02*
G37*
G36*
X184756D02*
X182968D01*
Y-49461D01*
X184756D01*
Y-47181D01*
D02*
G37*
G36*
X172551Y-50875D02*
Y-51319D01*
X172995D01*
X172551Y-50875D01*
D02*
G37*
G36*
X170189D02*
X169745Y-51319D01*
X170189D01*
Y-50875D01*
D02*
G37*
G36*
X172995Y-53681D02*
X172551D01*
Y-54125D01*
X172995Y-53681D01*
D02*
G37*
G36*
X170189D02*
X169745D01*
X170189Y-54125D01*
Y-53681D01*
D02*
G37*
G36*
X151795Y-32181D02*
X147000D01*
X142205D01*
X142399Y-32906D01*
X143049Y-34031D01*
X143969Y-34951D01*
X144730Y-35390D01*
X144760Y-35487D01*
X144711Y-35957D01*
X143616Y-36590D01*
X142589Y-37616D01*
X141864Y-38873D01*
X141488Y-40274D01*
Y-41726D01*
X141864Y-43128D01*
X142589Y-44384D01*
X143616Y-45410D01*
X144204Y-45750D01*
Y-46250D01*
X143616Y-46589D01*
X142589Y-47616D01*
X141864Y-48873D01*
X141488Y-50274D01*
Y-51726D01*
X141864Y-53127D01*
X142589Y-54384D01*
X143616Y-55410D01*
X144872Y-56136D01*
X146274Y-56512D01*
X147726D01*
X149127Y-56136D01*
X150384Y-55410D01*
X151410Y-54384D01*
X152136Y-53127D01*
X152512Y-51726D01*
Y-50274D01*
X152136Y-48873D01*
X151410Y-47616D01*
X150384Y-46589D01*
X149796Y-46250D01*
Y-45750D01*
X150384Y-45410D01*
X151410Y-44384D01*
X152136Y-43128D01*
X152512Y-41726D01*
Y-40274D01*
X152136Y-38873D01*
X151410Y-37616D01*
X150384Y-36590D01*
X149289Y-35957D01*
X149240Y-35487D01*
X149269Y-35390D01*
X150031Y-34951D01*
X150951Y-34031D01*
X151601Y-32906D01*
X151795Y-32181D01*
D02*
G37*
G36*
X188842Y-64539D02*
X187055D01*
Y-66819D01*
X188842D01*
Y-64539D01*
D02*
G37*
G36*
X184693D02*
X182905D01*
Y-66819D01*
X184693D01*
Y-64539D01*
D02*
G37*
G36*
X181606Y-41965D02*
X174520D01*
Y-45298D01*
X174457Y-45533D01*
Y-46466D01*
X174520Y-46702D01*
Y-50035D01*
X175419D01*
Y-63965D01*
X174457D01*
Y-66893D01*
X134468D01*
X133988Y-66615D01*
X133337Y-66441D01*
X132663D01*
X132012Y-66615D01*
X131429Y-66952D01*
X130952Y-67429D01*
X130615Y-68012D01*
X130441Y-68663D01*
Y-69337D01*
X130615Y-69988D01*
X130952Y-70571D01*
X131429Y-71048D01*
X132012Y-71385D01*
X132663Y-71559D01*
X133337D01*
X133988Y-71385D01*
X134468Y-71107D01*
X174457D01*
Y-72035D01*
X181543D01*
Y-63965D01*
X180581D01*
Y-50035D01*
X181606D01*
Y-41965D01*
D02*
G37*
G36*
X188842Y-69181D02*
X187055D01*
Y-71461D01*
X188842D01*
Y-69181D01*
D02*
G37*
G36*
X184693D02*
X182905D01*
Y-71461D01*
X184693D01*
Y-69181D01*
D02*
G37*
%LPD*%
G36*
X178799Y202166D02*
Y197232D01*
X181613D01*
Y194546D01*
X181773Y193739D01*
X182230Y193056D01*
X182014Y192565D01*
X170958D01*
X170151Y192405D01*
X169468Y191948D01*
X167495Y189975D01*
X167033Y190166D01*
Y191052D01*
X178337Y202357D01*
X178799Y202166D01*
D02*
G37*
G36*
X132707Y172893D02*
X132452Y172638D01*
X132115Y172055D01*
X131972Y171519D01*
X131205Y170753D01*
X130749Y170069D01*
X130664Y169644D01*
X128030Y167010D01*
X127472Y167160D01*
X127385Y167488D01*
X127048Y168071D01*
X126571Y168548D01*
X125988Y168885D01*
X125337Y169059D01*
X124663D01*
X124012Y168885D01*
X123532Y168607D01*
X75000D01*
X74194Y168447D01*
X73510Y167990D01*
X68000Y162480D01*
X57550Y172931D01*
X57741Y173393D01*
X132500D01*
X132707Y172893D01*
D02*
G37*
G36*
X203349D02*
X203115Y172488D01*
X202941Y171837D01*
Y171163D01*
X203115Y170512D01*
X203393Y170032D01*
Y165468D01*
X203184Y165107D01*
X196347D01*
X196018Y165483D01*
X196020Y165500D01*
X195925Y166219D01*
X195647Y166890D01*
X195206Y167465D01*
X194913Y167690D01*
Y168310D01*
X195206Y168535D01*
X195647Y169110D01*
X195925Y169781D01*
X196020Y170500D01*
X195925Y171219D01*
X195647Y171890D01*
X195206Y172466D01*
X195127Y172526D01*
X195098Y173119D01*
X195378Y173393D01*
X203112D01*
X203349Y172893D01*
D02*
G37*
G36*
X28021Y174485D02*
X28478Y173801D01*
X31011Y171269D01*
X31075Y170781D01*
X31304Y170226D01*
X24083Y163005D01*
X23654Y163061D01*
X23528Y163157D01*
X23071Y163615D01*
X22488Y163952D01*
X22389Y163978D01*
Y166251D01*
X22666Y166731D01*
X22840Y167382D01*
Y168055D01*
X22666Y168706D01*
X22329Y169290D01*
X21853Y169766D01*
X21269Y170103D01*
X20618Y170278D01*
X19945D01*
X19294Y170103D01*
X19152Y170021D01*
X18755Y170369D01*
X18925Y170781D01*
X19020Y171500D01*
X18925Y172219D01*
X18647Y172890D01*
X18206Y173466D01*
X17630Y173907D01*
X17511Y173957D01*
X17610Y174457D01*
X24035D01*
Y174583D01*
X28002D01*
X28021Y174485D01*
D02*
G37*
G36*
X49394Y162965D02*
X50830D01*
Y161480D01*
X48965D01*
Y159950D01*
X48630Y159884D01*
X47947Y159427D01*
X44947Y156427D01*
X44486Y156674D01*
X44607Y157283D01*
Y159500D01*
X44447Y160307D01*
X43990Y160990D01*
X42478Y162503D01*
X42669Y162965D01*
X48606D01*
Y170393D01*
X49394D01*
Y162965D01*
D02*
G37*
G36*
X64318Y124202D02*
Y121316D01*
X63856Y121124D01*
X58528Y126452D01*
X58385Y126988D01*
X58048Y127571D01*
X57571Y128048D01*
X56988Y128385D01*
X56452Y128528D01*
X53839Y131141D01*
X53155Y131598D01*
X52349Y131759D01*
X48201D01*
Y135768D01*
X45387D01*
Y137893D01*
X50627D01*
X64318Y124202D01*
D02*
G37*
G36*
X53472Y125548D02*
X53615Y125012D01*
X53952Y124429D01*
X54429Y123952D01*
X55012Y123615D01*
X55548Y123472D01*
X62743Y116277D01*
Y112391D01*
X62281Y112199D01*
X57997Y116484D01*
X57853Y117019D01*
X57516Y117603D01*
X57040Y118079D01*
X56456Y118416D01*
X55921Y118560D01*
X49152Y125329D01*
X48468Y125786D01*
X47661Y125946D01*
X43034D01*
X42533Y126447D01*
X42724Y126909D01*
X48201D01*
Y127544D01*
X51476D01*
X53472Y125548D01*
D02*
G37*
G36*
X159972Y166548D02*
X160115Y166012D01*
X160452Y165429D01*
X160929Y164952D01*
X161512Y164615D01*
X162163Y164441D01*
X162818D01*
Y118898D01*
X162978Y118091D01*
X163435Y117408D01*
X177309Y103533D01*
X177993Y103077D01*
X178799Y102916D01*
Y98232D01*
X181613D01*
Y96107D01*
X147000D01*
X146194Y95947D01*
X145510Y95490D01*
X123127Y73107D01*
X99968D01*
X99488Y73385D01*
X98837Y73559D01*
X98163D01*
X97607Y73410D01*
X97107Y73656D01*
Y130127D01*
X134186Y167205D01*
X134643Y167889D01*
X134727Y168314D01*
X134952Y168539D01*
X135488Y168682D01*
X136071Y169019D01*
X136548Y169496D01*
X136885Y170079D01*
X137059Y170730D01*
Y171404D01*
X136885Y172055D01*
X136548Y172638D01*
X136293Y172893D01*
X136501Y173393D01*
X153127D01*
X159972Y166548D01*
D02*
G37*
G36*
X33641Y75020D02*
X33370Y74907D01*
X32794Y74466D01*
X32353Y73890D01*
X32075Y73219D01*
X31980Y72500D01*
X31983Y72476D01*
X31654Y72100D01*
X29993D01*
X29186Y71940D01*
X28503Y71483D01*
X27819Y70800D01*
X27571Y71048D01*
X26988Y71385D01*
X26452Y71528D01*
X22923Y75058D01*
X23114Y75520D01*
X33542D01*
X33641Y75020D01*
D02*
G37*
G36*
X183041Y91883D02*
X182794Y91383D01*
X150276D01*
X149469Y91223D01*
X148785Y90766D01*
X145048Y87028D01*
X144512Y86885D01*
X143929Y86548D01*
X143452Y86071D01*
X143115Y85488D01*
X142972Y84952D01*
X123510Y65490D01*
X123053Y64806D01*
X122893Y64000D01*
Y59968D01*
X122615Y59488D01*
X122441Y58837D01*
Y58163D01*
X122510Y57907D01*
X122126Y57407D01*
X102150D01*
X96738Y62819D01*
X97048Y63129D01*
X97385Y63712D01*
X97559Y64363D01*
Y65037D01*
X97385Y65688D01*
X97107Y66168D01*
Y68344D01*
X97607Y68590D01*
X98163Y68441D01*
X98837D01*
X99488Y68615D01*
X99968Y68893D01*
X124000D01*
X124806Y69053D01*
X125490Y69510D01*
X147873Y91893D01*
X183034D01*
X183041Y91883D01*
D02*
G37*
G36*
X124012Y164115D02*
X124340Y164028D01*
X124489Y163470D01*
X93510Y132490D01*
X93053Y131807D01*
X92893Y131000D01*
Y67318D01*
X92431Y67127D01*
X85162Y74395D01*
X85113Y74640D01*
X84656Y75324D01*
X75028Y84952D01*
X74885Y85488D01*
X74548Y86071D01*
X74071Y86548D01*
X73488Y86885D01*
X72837Y87059D01*
X72163D01*
X71512Y86885D01*
X70929Y86548D01*
X70607Y86226D01*
X70107Y86434D01*
Y158627D01*
X75873Y164393D01*
X123532D01*
X124012Y164115D01*
D02*
G37*
G36*
X203849Y73893D02*
X203615Y73488D01*
X203441Y72837D01*
Y72163D01*
X203615Y71512D01*
X203893Y71032D01*
Y66468D01*
X203615Y65988D01*
X203584Y65871D01*
X196316D01*
X195987Y66247D01*
X196020Y66500D01*
X195925Y67219D01*
X195647Y67890D01*
X195206Y68466D01*
X194913Y68690D01*
Y69310D01*
X195206Y69534D01*
X195647Y70110D01*
X195925Y70781D01*
X196020Y71500D01*
X195925Y72219D01*
X195647Y72890D01*
X195206Y73466D01*
X195127Y73526D01*
X195098Y74119D01*
X195378Y74393D01*
X203612D01*
X203849Y73893D01*
D02*
G37*
G36*
X79700Y66819D02*
X79491Y66610D01*
X79154Y66026D01*
X79010Y65491D01*
X76048Y62528D01*
X75512Y62385D01*
X74929Y62048D01*
X74719Y61838D01*
X66958Y69599D01*
Y78909D01*
X67420Y79100D01*
X79700Y66819D01*
D02*
G37*
G36*
X96855Y43088D02*
Y42903D01*
X96615Y42488D01*
X96441Y41837D01*
Y41163D01*
X96492Y40972D01*
X88966Y33446D01*
X49201D01*
Y35768D01*
X46387D01*
Y38196D01*
X46227Y39003D01*
X46109Y39178D01*
X46345Y39619D01*
X83727D01*
X84533Y39779D01*
X85217Y40236D01*
X91452Y46472D01*
X91988Y46615D01*
X92571Y46952D01*
X92781Y47162D01*
X96855Y43088D01*
D02*
G37*
%LPC*%
G36*
X199881Y171125D02*
Y170681D01*
X200325D01*
X199881Y171125D01*
D02*
G37*
G36*
X197519D02*
X197075Y170681D01*
X197519D01*
Y171125D01*
D02*
G37*
G36*
X200325Y168319D02*
X199881D01*
Y167875D01*
X200325Y168319D01*
D02*
G37*
G36*
X197519D02*
X197075D01*
X197519Y167875D01*
Y168319D01*
D02*
G37*
G36*
X138181Y94499D02*
Y94055D01*
X138625D01*
X138181Y94499D01*
D02*
G37*
G36*
X135819D02*
X135375Y94055D01*
X135819D01*
Y94499D01*
D02*
G37*
G36*
X138625Y91693D02*
X138181D01*
Y91249D01*
X138625Y91693D01*
D02*
G37*
G36*
X135819D02*
X135375D01*
X135819Y91249D01*
Y91693D01*
D02*
G37*
G36*
X109581Y81025D02*
Y80581D01*
X110025D01*
X109581Y81025D01*
D02*
G37*
G36*
X107219D02*
X106775Y80581D01*
X107219D01*
Y81025D01*
D02*
G37*
G36*
X115881Y80525D02*
Y80081D01*
X116325D01*
X115881Y80525D01*
D02*
G37*
G36*
X113519D02*
X113075Y80081D01*
X113519D01*
Y80525D01*
D02*
G37*
G36*
X110025Y78219D02*
X109581D01*
Y77775D01*
X110025Y78219D01*
D02*
G37*
G36*
X107219D02*
X106775D01*
X107219Y77775D01*
Y78219D01*
D02*
G37*
G36*
X116325Y77719D02*
X115881D01*
Y77275D01*
X116325Y77719D01*
D02*
G37*
G36*
X113519D02*
X113075D01*
X113519Y77275D01*
Y77719D01*
D02*
G37*
G36*
X199681Y71925D02*
Y71481D01*
X200125D01*
X199681Y71925D01*
D02*
G37*
G36*
X197319D02*
X196875Y71481D01*
X197319D01*
Y71925D01*
D02*
G37*
G36*
X200125Y69119D02*
X199681D01*
Y68675D01*
X200125Y69119D01*
D02*
G37*
G36*
X197319D02*
X196875D01*
X197319Y68675D01*
Y69119D01*
D02*
G37*
G36*
X99681Y-23875D02*
Y-24319D01*
X100125D01*
X99681Y-23875D01*
D02*
G37*
G36*
X97319D02*
X96875Y-24319D01*
X97319D01*
Y-23875D01*
D02*
G37*
G36*
X121795Y-22181D02*
X118181D01*
Y-25795D01*
X118906Y-25601D01*
X120031Y-24951D01*
X120951Y-24031D01*
X121601Y-22906D01*
X121795Y-22181D01*
D02*
G37*
G36*
X115819D02*
X112205D01*
X112399Y-22906D01*
X113049Y-24031D01*
X113969Y-24951D01*
X115094Y-25601D01*
X115819Y-25795D01*
Y-22181D01*
D02*
G37*
G36*
X100125Y-26681D02*
X96875D01*
X97025Y-26831D01*
X96875Y-26980D01*
X100125D01*
X99975Y-26831D01*
X100125Y-26681D01*
D02*
G37*
G36*
Y-31681D02*
X99681D01*
Y-32125D01*
X100125Y-31681D01*
D02*
G37*
G36*
X97319D02*
X96875D01*
X97319Y-32125D01*
Y-31681D01*
D02*
G37*
G36*
X117726Y-45488D02*
X116274D01*
X114873Y-45864D01*
X113616Y-46589D01*
X112590Y-47616D01*
X111864Y-48873D01*
X111488Y-50274D01*
Y-51726D01*
X111864Y-53127D01*
X112590Y-54384D01*
X113616Y-55410D01*
X114873Y-56136D01*
X116274Y-56512D01*
X117726D01*
X119128Y-56136D01*
X120384Y-55410D01*
X121411Y-54384D01*
X122136Y-53127D01*
X122512Y-51726D01*
Y-50274D01*
X122136Y-48873D01*
X121411Y-47616D01*
X120384Y-46589D01*
X119128Y-45864D01*
X117726Y-45488D01*
D02*
G37*
G36*
X73181Y-72205D02*
Y-75819D01*
X76795D01*
X76601Y-75094D01*
X75951Y-73969D01*
X75031Y-73049D01*
X73906Y-72399D01*
X73181Y-72205D01*
D02*
G37*
G36*
X70819Y-72205D02*
X70094Y-72399D01*
X68969Y-73049D01*
X68049Y-73969D01*
X67399Y-75094D01*
X67205Y-75819D01*
X70819D01*
Y-72205D01*
D02*
G37*
G36*
X76795Y-78181D02*
X73181D01*
Y-81795D01*
X73906Y-81601D01*
X75031Y-80951D01*
X75951Y-80031D01*
X76601Y-78906D01*
X76795Y-78181D01*
D02*
G37*
G36*
X70819D02*
X67205D01*
X67399Y-78906D01*
X68049Y-80031D01*
X68969Y-80951D01*
X70094Y-81601D01*
X70819Y-81795D01*
Y-78181D01*
D02*
G37*
G36*
X117726Y-71488D02*
X116274D01*
X114873Y-71864D01*
X113616Y-72589D01*
X112590Y-73616D01*
X111864Y-74872D01*
X111488Y-76274D01*
Y-77726D01*
X111864Y-79128D01*
X112590Y-80384D01*
X113616Y-81410D01*
X114873Y-82136D01*
X116274Y-82512D01*
X117726D01*
X119128Y-82136D01*
X120384Y-81410D01*
X121411Y-80384D01*
X122136Y-79128D01*
X122512Y-77726D01*
Y-76274D01*
X122136Y-74872D01*
X121411Y-73616D01*
X120384Y-72589D01*
X119128Y-71864D01*
X117726Y-71488D01*
D02*
G37*
G36*
X102726D02*
X101274D01*
X99872Y-71864D01*
X98616Y-72589D01*
X97589Y-73616D01*
X96864Y-74872D01*
X96488Y-76274D01*
Y-77726D01*
X96864Y-79128D01*
X97589Y-80384D01*
X98616Y-81410D01*
X99872Y-82136D01*
X101274Y-82512D01*
X102726D01*
X104128Y-82136D01*
X105384Y-81410D01*
X106411Y-80384D01*
X107136Y-79128D01*
X107512Y-77726D01*
Y-76274D01*
X107136Y-74872D01*
X106411Y-73616D01*
X105384Y-72589D01*
X104128Y-71864D01*
X102726Y-71488D01*
D02*
G37*
G36*
X87726D02*
X86274D01*
X84873Y-71864D01*
X83616Y-72589D01*
X82590Y-73616D01*
X81864Y-74872D01*
X81488Y-76274D01*
Y-77726D01*
X81864Y-79128D01*
X82590Y-80384D01*
X83616Y-81410D01*
X84873Y-82136D01*
X86274Y-82512D01*
X87726D01*
X89127Y-82136D01*
X90384Y-81410D01*
X91410Y-80384D01*
X92136Y-79128D01*
X92512Y-77726D01*
Y-76274D01*
X92136Y-74872D01*
X91410Y-73616D01*
X90384Y-72589D01*
X89127Y-71864D01*
X87726Y-71488D01*
D02*
G37*
G36*
X117355Y-86789D02*
X116645D01*
X116490Y-86820D01*
X116332D01*
X115635Y-86958D01*
X115489Y-87019D01*
X115334Y-87050D01*
X114678Y-87321D01*
X114546Y-87409D01*
X114400Y-87470D01*
X113810Y-87864D01*
X113698Y-87976D01*
X113566Y-88064D01*
X113064Y-88566D01*
X112976Y-88698D01*
X112864Y-88810D01*
X112470Y-89400D01*
X112409Y-89546D01*
X112321Y-89678D01*
X112050Y-90334D01*
X112019Y-90489D01*
X111958Y-90635D01*
X111820Y-91332D01*
Y-91490D01*
X111789Y-91645D01*
Y-92355D01*
X111820Y-92510D01*
Y-92668D01*
X111958Y-93365D01*
X112019Y-93511D01*
X112050Y-93666D01*
X112321Y-94322D01*
X112409Y-94454D01*
X112470Y-94600D01*
X112864Y-95190D01*
X112976Y-95302D01*
X113064Y-95434D01*
X113566Y-95936D01*
X113698Y-96024D01*
X113810Y-96136D01*
X114400Y-96530D01*
X114546Y-96591D01*
X114678Y-96679D01*
X115334Y-96950D01*
X115489Y-96981D01*
X115635Y-97042D01*
X116332Y-97180D01*
X116490D01*
X116645Y-97211D01*
X117355D01*
X117510Y-97180D01*
X117668D01*
X118365Y-97042D01*
X118511Y-96981D01*
X118666Y-96950D01*
X119322Y-96679D01*
X119454Y-96591D01*
X119600Y-96530D01*
X120190Y-96136D01*
X120302Y-96024D01*
X120434Y-95936D01*
X120936Y-95434D01*
X121024Y-95302D01*
X121136Y-95190D01*
X121530Y-94600D01*
X121591Y-94454D01*
X121679Y-94322D01*
X121950Y-93666D01*
X121981Y-93511D01*
X122042Y-93365D01*
X122180Y-92668D01*
Y-92510D01*
X122211Y-92355D01*
Y-91645D01*
X122180Y-91490D01*
Y-91332D01*
X122042Y-90635D01*
X121981Y-90489D01*
X121950Y-90334D01*
X121679Y-89678D01*
X121591Y-89546D01*
X121530Y-89400D01*
X121136Y-88810D01*
X121024Y-88698D01*
X120936Y-88566D01*
X120434Y-88064D01*
X120302Y-87976D01*
X120190Y-87864D01*
X119600Y-87470D01*
X119454Y-87409D01*
X119322Y-87321D01*
X118666Y-87050D01*
X118511Y-87019D01*
X118365Y-86958D01*
X117668Y-86820D01*
X117510D01*
X117355Y-86789D01*
D02*
G37*
G36*
X102355D02*
X101645D01*
X101490Y-86820D01*
X101332D01*
X100635Y-86958D01*
X100489Y-87019D01*
X100334Y-87050D01*
X99678Y-87321D01*
X99546Y-87409D01*
X99400Y-87470D01*
X98810Y-87864D01*
X98698Y-87976D01*
X98566Y-88064D01*
X98064Y-88566D01*
X97976Y-88698D01*
X97864Y-88810D01*
X97470Y-89400D01*
X97409Y-89546D01*
X97321Y-89678D01*
X97050Y-90334D01*
X97019Y-90489D01*
X96958Y-90635D01*
X96820Y-91332D01*
Y-91490D01*
X96789Y-91645D01*
Y-92355D01*
X96820Y-92510D01*
Y-92668D01*
X96958Y-93365D01*
X97019Y-93511D01*
X97050Y-93666D01*
X97321Y-94322D01*
X97409Y-94454D01*
X97470Y-94600D01*
X97864Y-95190D01*
X97976Y-95302D01*
X98064Y-95434D01*
X98566Y-95936D01*
X98698Y-96024D01*
X98810Y-96136D01*
X99400Y-96530D01*
X99546Y-96591D01*
X99678Y-96679D01*
X100334Y-96950D01*
X100489Y-96981D01*
X100635Y-97042D01*
X101332Y-97180D01*
X101490D01*
X101645Y-97211D01*
X102355D01*
X102510Y-97180D01*
X102668D01*
X103365Y-97042D01*
X103511Y-96981D01*
X103666Y-96950D01*
X104322Y-96679D01*
X104454Y-96591D01*
X104600Y-96530D01*
X105190Y-96136D01*
X105302Y-96024D01*
X105434Y-95936D01*
X105936Y-95434D01*
X106024Y-95302D01*
X106136Y-95190D01*
X106530Y-94600D01*
X106591Y-94454D01*
X106679Y-94322D01*
X106950Y-93666D01*
X106981Y-93511D01*
X107042Y-93365D01*
X107180Y-92668D01*
Y-92510D01*
X107211Y-92355D01*
Y-91645D01*
X107180Y-91490D01*
Y-91332D01*
X107042Y-90635D01*
X106981Y-90489D01*
X106950Y-90334D01*
X106679Y-89678D01*
X106591Y-89546D01*
X106530Y-89400D01*
X106136Y-88810D01*
X106024Y-88698D01*
X105936Y-88566D01*
X105434Y-88064D01*
X105302Y-87976D01*
X105190Y-87864D01*
X104600Y-87470D01*
X104454Y-87409D01*
X104322Y-87321D01*
X103666Y-87050D01*
X103511Y-87019D01*
X103365Y-86958D01*
X102668Y-86820D01*
X102510D01*
X102355Y-86789D01*
D02*
G37*
G36*
X87355D02*
X86645D01*
X86490Y-86820D01*
X86332D01*
X85635Y-86958D01*
X85489Y-87019D01*
X85334Y-87050D01*
X84678Y-87321D01*
X84546Y-87409D01*
X84400Y-87470D01*
X83810Y-87864D01*
X83698Y-87976D01*
X83566Y-88064D01*
X83064Y-88566D01*
X82976Y-88698D01*
X82864Y-88810D01*
X82470Y-89400D01*
X82409Y-89546D01*
X82321Y-89678D01*
X82050Y-90334D01*
X82019Y-90489D01*
X81958Y-90635D01*
X81820Y-91332D01*
Y-91490D01*
X81789Y-91645D01*
Y-92355D01*
X81820Y-92510D01*
Y-92668D01*
X81958Y-93365D01*
X82019Y-93511D01*
X82050Y-93666D01*
X82321Y-94322D01*
X82409Y-94454D01*
X82470Y-94600D01*
X82864Y-95190D01*
X82976Y-95302D01*
X83064Y-95434D01*
X83566Y-95936D01*
X83698Y-96024D01*
X83810Y-96136D01*
X84400Y-96530D01*
X84546Y-96591D01*
X84678Y-96679D01*
X85334Y-96950D01*
X85489Y-96981D01*
X85635Y-97042D01*
X86332Y-97180D01*
X86490D01*
X86645Y-97211D01*
X87355D01*
X87510Y-97180D01*
X87668D01*
X88365Y-97042D01*
X88511Y-96981D01*
X88666Y-96950D01*
X89322Y-96679D01*
X89454Y-96591D01*
X89600Y-96530D01*
X90190Y-96136D01*
X90302Y-96024D01*
X90434Y-95936D01*
X90936Y-95434D01*
X91024Y-95302D01*
X91136Y-95190D01*
X91530Y-94600D01*
X91591Y-94454D01*
X91679Y-94322D01*
X91950Y-93666D01*
X91981Y-93511D01*
X92042Y-93365D01*
X92180Y-92668D01*
Y-92510D01*
X92211Y-92355D01*
Y-91645D01*
X92180Y-91490D01*
Y-91332D01*
X92042Y-90635D01*
X91981Y-90489D01*
X91950Y-90334D01*
X91679Y-89678D01*
X91591Y-89546D01*
X91530Y-89400D01*
X91136Y-88810D01*
X91024Y-88698D01*
X90936Y-88566D01*
X90434Y-88064D01*
X90302Y-87976D01*
X90190Y-87864D01*
X89600Y-87470D01*
X89454Y-87409D01*
X89322Y-87321D01*
X88666Y-87050D01*
X88511Y-87019D01*
X88365Y-86958D01*
X87668Y-86820D01*
X87510D01*
X87355Y-86789D01*
D02*
G37*
G36*
X72355D02*
X71645D01*
X71490Y-86820D01*
X71332D01*
X70635Y-86958D01*
X70489Y-87019D01*
X70334Y-87050D01*
X69678Y-87321D01*
X69546Y-87409D01*
X69400Y-87470D01*
X68810Y-87864D01*
X68698Y-87976D01*
X68566Y-88064D01*
X68064Y-88566D01*
X67976Y-88698D01*
X67864Y-88810D01*
X67470Y-89400D01*
X67409Y-89546D01*
X67321Y-89678D01*
X67050Y-90334D01*
X67019Y-90489D01*
X66958Y-90635D01*
X66820Y-91332D01*
Y-91490D01*
X66789Y-91645D01*
Y-92355D01*
X66820Y-92510D01*
Y-92668D01*
X66958Y-93365D01*
X67019Y-93511D01*
X67050Y-93666D01*
X67321Y-94322D01*
X67409Y-94454D01*
X67470Y-94600D01*
X67864Y-95190D01*
X67976Y-95302D01*
X68064Y-95434D01*
X68566Y-95936D01*
X68698Y-96024D01*
X68810Y-96136D01*
X69400Y-96530D01*
X69546Y-96591D01*
X69678Y-96679D01*
X70334Y-96950D01*
X70489Y-96981D01*
X70635Y-97042D01*
X71332Y-97180D01*
X71490D01*
X71645Y-97211D01*
X72355D01*
X72510Y-97180D01*
X72668D01*
X73365Y-97042D01*
X73511Y-96981D01*
X73666Y-96950D01*
X74322Y-96679D01*
X74454Y-96591D01*
X74600Y-96530D01*
X75190Y-96136D01*
X75302Y-96024D01*
X75434Y-95936D01*
X75936Y-95434D01*
X76024Y-95302D01*
X76136Y-95190D01*
X76530Y-94600D01*
X76591Y-94454D01*
X76679Y-94322D01*
X76950Y-93666D01*
X76981Y-93511D01*
X77042Y-93365D01*
X77180Y-92668D01*
Y-92510D01*
X77211Y-92355D01*
Y-91645D01*
X77180Y-91490D01*
Y-91332D01*
X77042Y-90635D01*
X76981Y-90489D01*
X76950Y-90334D01*
X76679Y-89678D01*
X76591Y-89546D01*
X76530Y-89400D01*
X76136Y-88810D01*
X76024Y-88698D01*
X75936Y-88566D01*
X75434Y-88064D01*
X75302Y-87976D01*
X75190Y-87864D01*
X74600Y-87470D01*
X74454Y-87409D01*
X74322Y-87321D01*
X73666Y-87050D01*
X73511Y-87019D01*
X73365Y-86958D01*
X72668Y-86820D01*
X72510D01*
X72355Y-86789D01*
D02*
G37*
%LPD*%
D11*
X154000Y175500D02*
X162500Y167000D01*
X175969Y78031D02*
X179118Y81181D01*
Y81228D01*
X174492Y76063D02*
X175969Y77539D01*
Y78031D01*
X174000Y76063D02*
X174492D01*
X206000Y65000D02*
Y72500D01*
X215700Y52835D02*
Y57800D01*
Y52835D02*
X223276Y45260D01*
X205734Y65000D02*
X206000D01*
X204498Y63764D02*
X205734Y65000D01*
X223000Y163937D02*
X232366D01*
X232492Y164063D01*
X150276Y89276D02*
X196276D01*
X217000Y110000D01*
X245000D01*
X145500Y84500D02*
X150276Y89276D01*
X125000Y64000D02*
X145500Y84500D01*
X125000Y58500D02*
Y64000D01*
X124000Y71000D02*
X147000Y94000D01*
X98500Y71000D02*
X124000D01*
X147000Y94000D02*
X185000D01*
X179118Y81228D02*
X181161Y83272D01*
X189127Y71500D02*
X191370D01*
X188482Y72145D02*
X189127Y71500D01*
X188355Y72145D02*
X188482D01*
X186500Y74000D02*
X188355Y72145D01*
X186500Y78319D02*
X188839Y80658D01*
X186500Y74000D02*
Y78319D01*
X203188Y59257D02*
X207508Y54937D01*
X208000D01*
X203188Y59257D02*
Y59812D01*
X203000Y60000D02*
X203188Y59812D01*
X188562Y63764D02*
X204498D01*
X184000Y54937D02*
Y59202D01*
X188562Y63764D01*
X182500Y66500D02*
X191370D01*
X182000Y66000D02*
X182500Y66500D01*
X174126Y66000D02*
Y75937D01*
X174000Y76063D02*
X174126Y75937D01*
X181161Y83272D02*
Y85339D01*
X201969Y52602D02*
Y53461D01*
X200492Y54937D02*
X201969Y53461D01*
X200000Y54937D02*
X200492D01*
X207508Y47063D02*
X208000D01*
X201969Y52602D02*
X207508Y47063D01*
X192000Y54937D02*
X200000D01*
X191370Y55567D02*
X192000Y54937D01*
X191370Y55567D02*
Y61500D01*
X212630Y66500D02*
X214873D01*
X216373Y65000D02*
X223000D01*
X214873Y66500D02*
X216373Y65000D01*
X231937D02*
X232000Y65063D01*
X223000Y65000D02*
X231937D01*
X232000Y65063D02*
X232492D01*
X237555Y60000D02*
X245000D01*
X232492Y65063D02*
X237555Y60000D01*
X220945Y71500D02*
X222508Y73063D01*
X223000D01*
X212630Y71500D02*
X220945D01*
X231874Y73063D02*
X232000Y72937D01*
X223000Y73063D02*
X231874D01*
X232000Y72937D02*
X233063Y74000D01*
X245000D01*
X191370Y76500D02*
X212630D01*
X188839Y80658D02*
Y85339D01*
X189134Y87701D02*
X244701D01*
X188839Y85339D02*
Y87406D01*
X244701Y87701D02*
X245000Y88000D01*
X188839Y87406D02*
X189134Y87701D01*
X183721Y95546D02*
Y102661D01*
Y95546D02*
X185000Y94266D01*
Y94000D02*
Y94266D01*
X65417Y5000D02*
X165000D01*
X175000Y15000D02*
Y56299D01*
X165000Y5000D02*
X175000Y15000D01*
X164925Y191925D02*
X181000Y208000D01*
X164925Y118898D02*
X178799Y105024D01*
X180866D01*
X166500Y119550D02*
Y186000D01*
Y119550D02*
X173050Y113000D01*
X164925Y118898D02*
Y191925D01*
X181161Y102661D02*
Y104728D01*
X166500Y186000D02*
X170958Y190458D01*
X180866Y105024D02*
X181161Y104728D01*
X188543Y102957D02*
Y105533D01*
X188150Y105927D02*
Y105964D01*
X181114Y113000D02*
X188150Y105964D01*
X188543Y102957D02*
X188839Y102661D01*
X188150Y105927D02*
X188543Y105533D01*
X173050Y113000D02*
X181114D01*
X170958Y190458D02*
X185381D01*
X188839Y193915D01*
Y201661D01*
X174492Y175063D02*
X175969Y176539D01*
Y177079D02*
X181161Y182272D01*
X175969Y176539D02*
Y177079D01*
X53000Y175500D02*
X154000D01*
X174000Y155299D02*
Y155400D01*
X132696Y168696D02*
Y169263D01*
X134500Y171067D01*
X95000Y131000D02*
X132696Y168696D01*
X244701Y186701D02*
X245000Y187000D01*
X189134Y186701D02*
X244701D01*
X188839Y186406D02*
X189134Y186701D01*
X188839Y184339D02*
Y186406D01*
X203188Y157257D02*
Y158812D01*
X203000Y159000D02*
X203188Y158812D01*
X206508Y153937D02*
X207000D01*
X203188Y157257D02*
X206508Y153937D01*
X214873Y165500D02*
X216436Y163937D01*
X223000D01*
X212630Y165500D02*
X214873D01*
Y170500D02*
X216436Y172063D01*
X212630Y170500D02*
X214873D01*
X216436Y172063D02*
X223000D01*
X205500Y164000D02*
Y171500D01*
X204234Y163000D02*
X205234Y164000D01*
X205500D01*
X187000Y163000D02*
X204234D01*
X20281Y163052D02*
X21500Y161833D01*
X20281Y163052D02*
Y167719D01*
X191370Y175500D02*
X212630D01*
X189500Y170500D02*
X191370D01*
X185408Y174592D02*
X189500Y170500D01*
X185408Y174592D02*
Y175408D01*
X188839Y178839D01*
Y184339D01*
X231874Y172063D02*
X232000Y171937D01*
X223000Y172063D02*
X231874D01*
X233063Y173000D02*
X245000D01*
X232000Y171937D02*
X233063Y173000D01*
X237555Y159000D02*
X245000D01*
X232492Y164063D02*
X237555Y159000D01*
X199492Y153937D02*
X205031Y148398D01*
Y147539D02*
Y148398D01*
X199000Y153937D02*
X199492D01*
X205031Y147539D02*
X206508Y146063D01*
X207000D01*
X191000Y153937D02*
X199000D01*
X191000D02*
X191370Y154307D01*
Y160500D01*
X182000Y165000D02*
X182500Y165500D01*
X191370D01*
X174000Y175063D02*
X174492D01*
X181161Y182272D02*
Y184339D01*
X174000Y165126D02*
Y175063D01*
Y165126D02*
X174126Y165000D01*
X95000Y64700D02*
Y131000D01*
X68000Y159500D02*
X75000Y166500D01*
X125000D01*
X183721Y194546D02*
Y201661D01*
Y194546D02*
X185000Y193266D01*
Y193000D02*
Y193266D01*
X83166Y73411D02*
Y73834D01*
X72500Y84500D02*
X83166Y73834D01*
Y73411D02*
X101277Y55300D01*
X124900D01*
X188919Y201742D02*
Y207919D01*
X188839Y201661D02*
X188919Y201742D01*
Y207919D02*
X189000Y208000D01*
X181081Y201742D02*
Y207919D01*
X181000Y208000D02*
X181081Y207919D01*
Y201742D02*
X181161Y201661D01*
X47661Y123839D02*
X63276Y108224D01*
X52349Y129651D02*
X64850Y117150D01*
X46134Y129651D02*
X52349D01*
X64850Y68726D02*
Y117150D01*
X63276Y68074D02*
Y108224D01*
X42161Y123839D02*
X47661D01*
X45839Y129947D02*
Y131339D01*
Y129947D02*
X46134Y129651D01*
X42000Y140000D02*
X51500D01*
X66425Y83075D02*
Y125075D01*
X51500Y140000D02*
X66425Y125075D01*
X133000Y-69000D02*
X177000D01*
X178000Y-68000D01*
X-9974Y102974D02*
X57974D01*
X-17000Y110000D02*
X-9974Y102974D01*
X28555Y178063D02*
X36000D01*
X28555D02*
X29969Y176650D01*
X28492Y178126D02*
X28555Y178063D01*
X29969Y175291D02*
Y176650D01*
X33760Y171500D02*
X35630D01*
X29969Y175291D02*
X33760Y171500D01*
X28000Y178126D02*
X28492D01*
X35630Y156500D02*
X37500D01*
X14370D02*
X35630D01*
X12500D02*
X14370D01*
X38209Y148709D02*
Y152992D01*
X42500Y157283D01*
X38161Y148661D02*
X38209Y148709D01*
X42500Y157283D02*
Y159500D01*
X40500Y161500D02*
X42500Y159500D01*
X35630Y161500D02*
X40500D01*
X45839Y154339D02*
X49437Y157937D01*
X53000D01*
X45839Y148661D02*
Y154339D01*
X52937Y158000D02*
X53000Y157937D01*
X52937Y158000D02*
Y167000D01*
X44563Y166500D02*
X45063Y167000D01*
X35630Y166500D02*
X44563D01*
X20000Y185874D02*
X20492D01*
X26032Y180335D01*
Y179602D02*
Y180335D01*
Y179602D02*
X27508Y178126D01*
X28000D01*
X12127Y166500D02*
X14370D01*
X5000Y168063D02*
X10564D01*
X12127Y166500D01*
X10564Y159937D02*
X12127Y161500D01*
X5000Y159937D02*
X10564D01*
X12127Y161500D02*
X14370D01*
X-5000Y160063D02*
X4874D01*
X5000Y159937D01*
X-5000Y167937D02*
X4874D01*
X5000Y168063D01*
X-17000Y173000D02*
X-10555D01*
X-5492Y167937D01*
X-5000D01*
X-6063Y159000D02*
X-5000Y160063D01*
X-17000Y159000D02*
X-6063D01*
X37866Y150000D02*
X38161Y149705D01*
Y148661D02*
Y149705D01*
X34500Y150000D02*
X37866D01*
X22569Y160500D02*
X24558D01*
X32822Y168764D01*
X33500Y169000D02*
X40000D01*
X33264Y168764D02*
X33500Y169000D01*
X32822Y168764D02*
X33264D01*
X21500Y161567D02*
X21502D01*
X22569Y160500D01*
X21500Y161567D02*
Y161833D01*
X38292Y127708D02*
Y131208D01*
Y127708D02*
X42161Y123839D01*
X38161Y131339D02*
X38292Y131208D01*
X55000Y172500D02*
X68000Y159500D01*
Y84500D02*
Y159500D01*
Y84500D02*
X92116Y60384D01*
X64850Y68726D02*
X81577Y52000D01*
X63276Y68074D02*
X82350Y49000D01*
X66425Y83075D02*
X88000Y61500D01*
X91500Y58766D02*
X92116Y59382D01*
X91500Y58500D02*
Y58766D01*
X92116Y59382D02*
Y60384D01*
X88000Y61500D02*
X88077D01*
X76500Y60000D02*
X81538Y65039D01*
X42500Y172500D02*
X55000D01*
X43279Y131339D02*
Y138721D01*
X42000Y140000D02*
X43279Y138721D01*
X82350Y49000D02*
X91000D01*
X98962Y41537D02*
Y43961D01*
Y41537D02*
X99000Y41500D01*
X90923Y52000D02*
X98962Y43961D01*
X81577Y52000D02*
X90923D01*
X28000Y79063D02*
X36000D01*
X27508D02*
X28000D01*
X20535Y86035D02*
X27508Y79063D01*
X42226Y41726D02*
X83727D01*
X91000Y49000D01*
X98812Y41312D02*
X99000Y41500D01*
X89839Y31339D02*
X98812Y40312D01*
X46839Y31339D02*
X89839D01*
X98812Y40312D02*
Y41312D01*
X20500Y66000D02*
X23500Y69000D01*
X26000D01*
X43083Y39393D02*
Y39660D01*
X44280Y31339D02*
Y38196D01*
X43083Y39393D02*
X44280Y38196D01*
X39850Y34095D02*
Y39350D01*
X42226Y41726D01*
X39161Y33406D02*
X39850Y34095D01*
X39161Y31339D02*
Y33406D01*
X31000Y62500D02*
X36630D01*
X28500Y65000D02*
X31000Y62500D01*
X20000Y75000D02*
Y79063D01*
Y75000D02*
X26000Y69000D01*
X29993Y69993D02*
X39993D01*
X23474Y63474D02*
X29993Y69993D01*
X23474Y26274D02*
Y63474D01*
X10500Y67500D02*
X15370D01*
X5000Y69063D02*
X8937D01*
X10500Y67500D01*
X-4000Y68937D02*
X4874D01*
X5000Y69063D01*
X-4063Y69000D02*
X-4000Y68937D01*
X-12000Y69000D02*
X-4063D01*
X-17000Y74000D02*
X-12000Y69000D01*
X10500Y62500D02*
X15370D01*
X8937Y60937D02*
X10500Y62500D01*
X5000Y60937D02*
X8937D01*
X4874Y61063D02*
X5000Y60937D01*
X-4000Y61063D02*
X4874D01*
X-5063Y60000D02*
X-4000Y61063D01*
X-17000Y60000D02*
X-5063D01*
X36000Y79063D02*
X36630Y78433D01*
Y72500D02*
Y78433D01*
X44000Y74000D02*
Y79063D01*
X39993Y69993D02*
X44000Y74000D01*
X23474Y26274D02*
X42583Y7165D01*
X42000Y56931D02*
Y60473D01*
X39161Y54093D02*
X42000Y56931D01*
X40131Y62341D02*
X42000Y60473D01*
X39161Y48661D02*
Y54093D01*
X45563Y67500D02*
X46063Y68000D01*
X36630Y67500D02*
X45563D01*
X53937Y58000D02*
Y68000D01*
X49000Y58000D02*
X53937D01*
X46839Y48661D02*
Y55839D01*
X49000Y58000D01*
X36788Y62341D02*
X40131D01*
X36630Y62500D02*
X36788Y62341D01*
X42583Y5000D02*
Y7165D01*
X178000Y-46000D02*
X178063D01*
X178000Y-46063D02*
X178063Y-46000D01*
D12*
X162500Y167000D02*
D03*
X198500Y70300D02*
D03*
X206000Y65000D02*
D03*
X185000Y182200D02*
D03*
X108400Y79400D02*
D03*
X11600Y76300D02*
D03*
X45000Y59000D02*
D03*
X215700Y57800D02*
D03*
X214433Y160500D02*
D03*
X216500Y156800D02*
D03*
X198700Y169500D02*
D03*
X12500Y171500D02*
D03*
X11200Y175800D02*
D03*
X28600Y161300D02*
D03*
X114700Y78900D02*
D03*
X171370Y-52500D02*
D03*
X192166Y-3087D02*
D03*
X43100Y50500D02*
D03*
X145500Y84500D02*
D03*
X125000Y58500D02*
D03*
X203000Y60000D02*
D03*
X214500Y61500D02*
D03*
X206000Y72500D02*
D03*
X200000Y47000D02*
D03*
X184318Y46895D02*
D03*
X185000Y84500D02*
D03*
X223276Y45260D02*
D03*
X215000Y40106D02*
D03*
X177500Y43500D02*
D03*
X137000Y92874D02*
D03*
X98500Y71000D02*
D03*
X185000Y94000D02*
D03*
X184000Y54937D02*
D03*
X175000Y56299D02*
D03*
X134500Y171067D02*
D03*
X203000Y159000D02*
D03*
X205500Y164000D02*
D03*
X187000Y163000D02*
D03*
X20281Y167719D02*
D03*
X205500Y171500D02*
D03*
X174000Y155299D02*
D03*
X125000Y166500D02*
D03*
X95000Y64700D02*
D03*
X56000Y126000D02*
D03*
X181000Y208000D02*
D03*
X185000Y193000D02*
D03*
X189000Y208000D02*
D03*
X55468Y116032D02*
D03*
X133000Y-69000D02*
D03*
X98500Y-25500D02*
D03*
Y-28161D02*
D03*
Y-30500D02*
D03*
X124900Y55300D02*
D03*
X72500Y84500D02*
D03*
X57974Y102974D02*
D03*
X34500Y150000D02*
D03*
X20000Y178000D02*
D03*
X21500Y161567D02*
D03*
X40000Y169000D02*
D03*
X88077Y61500D02*
D03*
X81538Y65039D02*
D03*
X42500Y172500D02*
D03*
X91500Y58500D02*
D03*
X53000Y175500D02*
D03*
X44000Y178000D02*
D03*
X42000Y140000D02*
D03*
X76500Y60000D02*
D03*
X37500Y156500D02*
D03*
X12500D02*
D03*
X42474Y114974D02*
D03*
X20500Y66000D02*
D03*
X23474Y63474D02*
D03*
X43083Y39660D02*
D03*
X99000Y41500D02*
D03*
X91000Y49000D02*
D03*
X28500Y65000D02*
D03*
X26000Y69000D02*
D03*
X13500Y72500D02*
D03*
X35000Y57500D02*
D03*
X17000D02*
D03*
D17*
X192000Y54937D02*
D03*
Y47063D02*
D03*
X200000D02*
D03*
Y54937D02*
D03*
X208000Y47063D02*
D03*
Y54937D02*
D03*
X174000Y76063D02*
D03*
Y83937D02*
D03*
X223000Y73063D02*
D03*
Y80937D02*
D03*
Y65000D02*
D03*
Y57126D02*
D03*
X232000Y72937D02*
D03*
Y65063D02*
D03*
X36000Y79063D02*
D03*
Y86937D02*
D03*
X28000D02*
D03*
Y79063D02*
D03*
X20000Y86937D02*
D03*
Y79063D02*
D03*
X54000Y57937D02*
D03*
Y50063D02*
D03*
X5000Y60937D02*
D03*
Y53063D02*
D03*
Y69063D02*
D03*
Y76937D02*
D03*
X-4000Y61063D02*
D03*
Y68937D02*
D03*
X232000Y171937D02*
D03*
Y164063D02*
D03*
X174000Y175063D02*
D03*
Y182937D02*
D03*
X223000Y163937D02*
D03*
Y156063D02*
D03*
X191000Y153937D02*
D03*
Y146063D02*
D03*
X207000D02*
D03*
Y153937D02*
D03*
X199000Y146063D02*
D03*
Y153937D02*
D03*
X223000Y172063D02*
D03*
Y179937D02*
D03*
X53000Y150063D02*
D03*
Y157937D02*
D03*
X-5000Y167937D02*
D03*
Y160063D02*
D03*
X5000Y159937D02*
D03*
Y152063D02*
D03*
Y168063D02*
D03*
Y175937D02*
D03*
X20000Y185874D02*
D03*
Y178000D02*
D03*
X36000Y178063D02*
D03*
Y185937D02*
D03*
X28000Y186000D02*
D03*
Y178126D02*
D03*
D19*
X76000Y-4000D02*
D03*
Y8598D02*
D03*
D26*
X182000Y66000D02*
D03*
X174126D02*
D03*
X46063Y68000D02*
D03*
X53937D02*
D03*
X182000Y165000D02*
D03*
X174126D02*
D03*
X52937Y167000D02*
D03*
X45063D02*
D03*
X178063Y-46000D02*
D03*
X185937D02*
D03*
X178000Y-68000D02*
D03*
X185874D02*
D03*
D30*
X212630Y76500D02*
D03*
Y71500D02*
D03*
Y66500D02*
D03*
Y61500D02*
D03*
X191370D02*
D03*
Y66500D02*
D03*
Y71500D02*
D03*
Y76500D02*
D03*
X15370Y57500D02*
D03*
Y62500D02*
D03*
Y67500D02*
D03*
Y72500D02*
D03*
X36630D02*
D03*
Y67500D02*
D03*
Y62500D02*
D03*
Y57500D02*
D03*
X212630Y175500D02*
D03*
Y170500D02*
D03*
Y165500D02*
D03*
Y160500D02*
D03*
X191370D02*
D03*
Y165500D02*
D03*
Y170500D02*
D03*
Y175500D02*
D03*
X14370Y156500D02*
D03*
Y161500D02*
D03*
Y166500D02*
D03*
Y171500D02*
D03*
X35630D02*
D03*
Y166500D02*
D03*
Y161500D02*
D03*
Y156500D02*
D03*
D32*
X65417Y5000D02*
D03*
Y14055D02*
D03*
Y-4055D02*
D03*
D33*
X42583Y5000D02*
D03*
D34*
X65417D01*
X65445Y-4028D02*
X75972D01*
X76000Y-4000D01*
X65417Y-4055D02*
X65445Y-4028D01*
D35*
X178000Y-68000D02*
Y-46063D01*
D37*
X117000Y-77000D02*
D03*
X102000D02*
D03*
X87000D02*
D03*
X72000D02*
D03*
X245000Y110000D02*
D03*
Y124000D02*
D03*
X-17000Y110000D02*
D03*
Y124000D02*
D03*
X245000Y88000D02*
D03*
Y74000D02*
D03*
Y60000D02*
D03*
Y46000D02*
D03*
X-17000D02*
D03*
Y60000D02*
D03*
Y74000D02*
D03*
Y88000D02*
D03*
X245000Y187000D02*
D03*
Y173000D02*
D03*
Y159000D02*
D03*
Y145000D02*
D03*
X-17000D02*
D03*
Y159000D02*
D03*
Y173000D02*
D03*
Y187000D02*
D03*
X161000Y35000D02*
D03*
Y25000D02*
D03*
X117000Y-21000D02*
D03*
Y-51000D02*
D03*
X147000D02*
D03*
Y-41000D02*
D03*
Y-31000D02*
D03*
Y-21000D02*
D03*
X161000Y65000D02*
D03*
Y75000D02*
D03*
D38*
Y15000D02*
D03*
Y55000D02*
D03*
D39*
X44000Y79063D02*
D03*
X42583Y5000D02*
D03*
X53000Y78000D02*
D03*
X178000Y-46000D02*
D03*
X76000Y-4000D02*
D03*
X178000Y-68000D02*
D03*
D40*
X-24000Y-86000D02*
D03*
X252000D02*
D03*
Y210000D02*
D03*
X-24000D02*
D03*
D41*
X188839Y102661D02*
D03*
X186279D02*
D03*
X183721D02*
D03*
X181161D02*
D03*
X181161Y85339D02*
D03*
X183721D02*
D03*
X186279D02*
D03*
X188839D02*
D03*
X39161Y31339D02*
D03*
X41721D02*
D03*
X44280D02*
D03*
X46839D02*
D03*
X46839Y48661D02*
D03*
X44280D02*
D03*
X41721D02*
D03*
X39161D02*
D03*
X188839Y201661D02*
D03*
X186279D02*
D03*
X183721D02*
D03*
X181161D02*
D03*
X181161Y184339D02*
D03*
X183721D02*
D03*
X186279D02*
D03*
X188839D02*
D03*
X38161Y131339D02*
D03*
X40720D02*
D03*
X43279D02*
D03*
X45839D02*
D03*
X45839Y148661D02*
D03*
X43279D02*
D03*
X40720D02*
D03*
X38161D02*
D03*
M02*
