G04*
G04 #@! TF.GenerationSoftware,Altium Limited,Altium Designer,22.0.2 (36)*
G04*
G04 Layer_Color=65535*
%FSLAX25Y25*%
%MOIN*%
G70*
G04*
G04 #@! TF.SameCoordinates,FD2FF894-48AE-4880-B7A9-669BF39D4961*
G04*
G04*
G04 #@! TF.FilePolarity,Positive*
G04*
G01*
G75*
%ADD10C,0.01000*%
%ADD11C,0.00984*%
%ADD12C,0.01968*%
G04:AMPARAMS|DCode=13|XSize=19.68mil|YSize=19.68mil|CornerRadius=9.84mil|HoleSize=0mil|Usage=FLASHONLY|Rotation=180.000|XOffset=0mil|YOffset=0mil|HoleType=Round|Shape=RoundedRectangle|*
%AMROUNDEDRECTD13*
21,1,0.01968,0.00000,0,0,180.0*
21,1,0.00000,0.01968,0,0,180.0*
1,1,0.01968,0.00000,0.00000*
1,1,0.01968,0.00000,0.00000*
1,1,0.01968,0.00000,0.00000*
1,1,0.01968,0.00000,0.00000*
%
%ADD13ROUNDEDRECTD13*%
%ADD14C,0.00787*%
%ADD15C,0.00591*%
%ADD16C,0.00600*%
G36*
X188279Y-69153D02*
X188279Y-66319D01*
X185445Y-69154D01*
X188279Y-69153D01*
D02*
G37*
G36*
X189276Y-46772D02*
X189276Y-43937D01*
X186441Y-46772D01*
X189276Y-46772D01*
D02*
G37*
G36*
X207512Y62488D02*
X207512Y65323D01*
X204677Y62488D01*
X207512Y62488D01*
D02*
G37*
G36*
X20488Y71512D02*
X20488Y68677D01*
X23323Y71512D01*
X20488Y71512D01*
D02*
G37*
G36*
X19488Y170512D02*
X19488Y167677D01*
X22323Y170512D01*
X19488Y170512D01*
D02*
G37*
G36*
X207512Y161488D02*
X207512Y164323D01*
X204677Y161488D01*
X207512Y161488D01*
D02*
G37*
D10*
X59740Y126000D02*
X59613Y126968D01*
X59239Y127870D01*
X58645Y128645D01*
X57870Y129239D01*
X56968Y129613D01*
X56000Y129740D01*
X55032Y129613D01*
X54130Y129239D01*
X53355Y128645D01*
X52761Y127870D01*
X52387Y126968D01*
X52260Y126000D01*
X52387Y125032D01*
X52761Y124130D01*
X53355Y123355D01*
X54130Y122761D01*
X55032Y122387D01*
X56000Y122260D01*
X56968Y122387D01*
X57870Y122761D01*
X58645Y123355D01*
X59239Y124130D01*
X59613Y125032D01*
X59740Y126000D01*
X122590Y-77000D02*
X122500Y-76002D01*
X122234Y-75036D01*
X121799Y-74133D01*
X121210Y-73322D01*
X120485Y-72629D01*
X119649Y-72077D01*
X118728Y-71683D01*
X117750Y-71460D01*
X116749Y-71416D01*
X115756Y-71550D01*
X114803Y-71860D01*
X113920Y-72335D01*
X113137Y-72960D01*
X112478Y-73714D01*
X111963Y-74575D01*
X111611Y-75513D01*
X111432Y-76499D01*
Y-77501D01*
X111611Y-78487D01*
X111963Y-79426D01*
X112478Y-80286D01*
X113137Y-81041D01*
X113920Y-81665D01*
X114803Y-82140D01*
X115756Y-82450D01*
X116749Y-82585D01*
X117750Y-82540D01*
X118728Y-82317D01*
X119649Y-81923D01*
X120485Y-81371D01*
X121210Y-80678D01*
X121799Y-79867D01*
X122234Y-78964D01*
X122500Y-77998D01*
X122590Y-77000D01*
X107590D02*
X107500Y-76002D01*
X107234Y-75036D01*
X106799Y-74133D01*
X106210Y-73322D01*
X105485Y-72629D01*
X104649Y-72077D01*
X103727Y-71683D01*
X102750Y-71460D01*
X101749Y-71416D01*
X100756Y-71550D01*
X99803Y-71860D01*
X98920Y-72335D01*
X98137Y-72960D01*
X97478Y-73714D01*
X96963Y-74575D01*
X96611Y-75513D01*
X96432Y-76499D01*
Y-77501D01*
X96611Y-78487D01*
X96963Y-79426D01*
X97478Y-80286D01*
X98137Y-81041D01*
X98920Y-81665D01*
X99803Y-82140D01*
X100756Y-82450D01*
X101749Y-82585D01*
X102750Y-82540D01*
X103727Y-82317D01*
X104649Y-81923D01*
X105485Y-81371D01*
X106210Y-80678D01*
X106799Y-79867D01*
X107234Y-78964D01*
X107500Y-77998D01*
X107590Y-77000D01*
X92590D02*
X92500Y-76002D01*
X92234Y-75036D01*
X91799Y-74133D01*
X91210Y-73322D01*
X90485Y-72629D01*
X89649Y-72077D01*
X88727Y-71683D01*
X87750Y-71460D01*
X86749Y-71416D01*
X85756Y-71550D01*
X84803Y-71860D01*
X83920Y-72335D01*
X83137Y-72960D01*
X82477Y-73714D01*
X81963Y-74575D01*
X81611Y-75513D01*
X81432Y-76499D01*
Y-77501D01*
X81611Y-78487D01*
X81963Y-79426D01*
X82477Y-80286D01*
X83137Y-81041D01*
X83920Y-81665D01*
X84803Y-82140D01*
X85756Y-82450D01*
X86749Y-82585D01*
X87750Y-82540D01*
X88727Y-82317D01*
X89649Y-81923D01*
X90485Y-81371D01*
X91210Y-80678D01*
X91799Y-79867D01*
X92234Y-78964D01*
X92500Y-77998D01*
X92590Y-77000D01*
X77590D02*
X77500Y-76002D01*
X77234Y-75036D01*
X76799Y-74133D01*
X76210Y-73322D01*
X75485Y-72629D01*
X74649Y-72077D01*
X73728Y-71683D01*
X72750Y-71460D01*
X71749Y-71416D01*
X70756Y-71550D01*
X69803Y-71860D01*
X68920Y-72335D01*
X68137Y-72960D01*
X67478Y-73714D01*
X66963Y-74575D01*
X66611Y-75513D01*
X66432Y-76499D01*
Y-77501D01*
X66611Y-78487D01*
X66963Y-79426D01*
X67478Y-80286D01*
X68137Y-81041D01*
X68920Y-81665D01*
X69803Y-82140D01*
X70756Y-82450D01*
X71749Y-82585D01*
X72750Y-82540D01*
X73728Y-82317D01*
X74649Y-81923D01*
X75485Y-81371D01*
X76210Y-80678D01*
X76799Y-79867D01*
X77234Y-78964D01*
X77500Y-77998D01*
X77590Y-77000D01*
X201740Y18000D02*
X201613Y18968D01*
X201239Y19870D01*
X200645Y20645D01*
X199870Y21239D01*
X198968Y21613D01*
X198000Y21740D01*
X197032Y21613D01*
X196130Y21239D01*
X195355Y20645D01*
X194761Y19870D01*
X194387Y18968D01*
X194260Y18000D01*
X194387Y17032D01*
X194761Y16130D01*
X195355Y15355D01*
X196130Y14761D01*
X197032Y14387D01*
X198000Y14260D01*
X198968Y14387D01*
X199870Y14761D01*
X200645Y15355D01*
X201239Y16130D01*
X201613Y17032D01*
X201740Y18000D01*
X25740Y37000D02*
X25613Y37968D01*
X25239Y38870D01*
X24645Y39645D01*
X23870Y40239D01*
X22968Y40613D01*
X22000Y40740D01*
X21032Y40613D01*
X20130Y40239D01*
X19355Y39645D01*
X18761Y38870D01*
X18387Y37968D01*
X18260Y37000D01*
X18387Y36032D01*
X18761Y35130D01*
X19355Y34355D01*
X20130Y33761D01*
X21032Y33387D01*
X22000Y33260D01*
X22968Y33387D01*
X23870Y33761D01*
X24645Y34355D01*
X25239Y35130D01*
X25613Y36032D01*
X25740Y37000D01*
X201740Y114000D02*
X201613Y114968D01*
X201239Y115870D01*
X200645Y116645D01*
X199870Y117239D01*
X198968Y117613D01*
X198000Y117740D01*
X197032Y117613D01*
X196130Y117239D01*
X195355Y116645D01*
X194761Y115870D01*
X194387Y114968D01*
X194260Y114000D01*
X194387Y113032D01*
X194761Y112130D01*
X195355Y111355D01*
X196130Y110761D01*
X197032Y110387D01*
X198000Y110260D01*
X198968Y110387D01*
X199870Y110761D01*
X200645Y111355D01*
X201239Y112130D01*
X201613Y113032D01*
X201740Y114000D01*
X83740Y125000D02*
X83613Y125968D01*
X83239Y126870D01*
X82645Y127645D01*
X81870Y128239D01*
X80968Y128613D01*
X80000Y128740D01*
X79032Y128613D01*
X78130Y128239D01*
X77355Y127645D01*
X76761Y126870D01*
X76387Y125968D01*
X76260Y125000D01*
X76387Y124032D01*
X76761Y123130D01*
X77355Y122355D01*
X78130Y121761D01*
X79032Y121387D01*
X80000Y121260D01*
X80968Y121387D01*
X81870Y121761D01*
X82645Y122355D01*
X83239Y123130D01*
X83613Y124032D01*
X83740Y125000D01*
X59240Y115500D02*
X59113Y116468D01*
X58739Y117370D01*
X58145Y118145D01*
X57370Y118739D01*
X56468Y119113D01*
X55500Y119240D01*
X54532Y119113D01*
X53630Y118739D01*
X52855Y118145D01*
X52261Y117370D01*
X51887Y116468D01*
X51760Y115500D01*
X51887Y114532D01*
X52261Y113630D01*
X52855Y112855D01*
X53630Y112261D01*
X54532Y111887D01*
X55500Y111760D01*
X56468Y111887D01*
X57370Y112261D01*
X58145Y112855D01*
X58739Y113630D01*
X59113Y114532D01*
X59240Y115500D01*
X46740Y40000D02*
X46613Y40968D01*
X46239Y41870D01*
X45645Y42645D01*
X44870Y43239D01*
X43968Y43613D01*
X43000Y43740D01*
X42032Y43613D01*
X41130Y43239D01*
X40355Y42645D01*
X39761Y41870D01*
X39387Y40968D01*
X39260Y40000D01*
X39387Y39032D01*
X39761Y38130D01*
X40355Y37355D01*
X41130Y36761D01*
X42032Y36387D01*
X43000Y36260D01*
X43968Y36387D01*
X44870Y36761D01*
X45645Y37355D01*
X46239Y38130D01*
X46613Y39032D01*
X46740Y40000D01*
X188740Y94000D02*
X188613Y94968D01*
X188239Y95870D01*
X187645Y96645D01*
X186870Y97239D01*
X185968Y97613D01*
X185000Y97740D01*
X184032Y97613D01*
X183130Y97239D01*
X182355Y96645D01*
X181761Y95870D01*
X181387Y94968D01*
X181260Y94000D01*
X181387Y93032D01*
X181761Y92130D01*
X182355Y91355D01*
X183130Y90761D01*
X184032Y90387D01*
X185000Y90260D01*
X185968Y90387D01*
X186870Y90761D01*
X187645Y91355D01*
X188239Y92130D01*
X188613Y93032D01*
X188740Y94000D01*
X45740Y140000D02*
X45613Y140968D01*
X45239Y141870D01*
X44645Y142645D01*
X43870Y143239D01*
X42968Y143613D01*
X42000Y143740D01*
X41032Y143613D01*
X40130Y143239D01*
X39355Y142645D01*
X38761Y141870D01*
X38387Y140968D01*
X38260Y140000D01*
X38387Y139032D01*
X38761Y138130D01*
X39355Y137355D01*
X40130Y136761D01*
X41032Y136387D01*
X42000Y136260D01*
X42968Y136387D01*
X43870Y136761D01*
X44645Y137355D01*
X45239Y138130D01*
X45613Y139032D01*
X45740Y140000D01*
X188740Y193000D02*
X188613Y193968D01*
X188239Y194870D01*
X187645Y195645D01*
X186870Y196239D01*
X185968Y196613D01*
X185000Y196740D01*
X184032Y196613D01*
X183130Y196239D01*
X182355Y195645D01*
X181761Y194870D01*
X181387Y193968D01*
X181260Y193000D01*
X181387Y192032D01*
X181761Y191130D01*
X182355Y190355D01*
X183130Y189761D01*
X184032Y189387D01*
X185000Y189260D01*
X185968Y189387D01*
X186870Y189761D01*
X187645Y190355D01*
X188239Y191130D01*
X188613Y192032D01*
X188740Y193000D01*
X250590Y110000D02*
X250500Y110998D01*
X250234Y111964D01*
X249799Y112867D01*
X249210Y113678D01*
X248485Y114371D01*
X247649Y114923D01*
X246727Y115317D01*
X245750Y115540D01*
X244749Y115585D01*
X243756Y115450D01*
X242803Y115140D01*
X241920Y114665D01*
X241137Y114041D01*
X240477Y113286D01*
X239963Y112425D01*
X239611Y111487D01*
X239432Y110501D01*
Y109499D01*
X239611Y108513D01*
X239963Y107574D01*
X240477Y106714D01*
X241137Y105959D01*
X241920Y105335D01*
X242803Y104860D01*
X243756Y104550D01*
X244749Y104416D01*
X245750Y104460D01*
X246727Y104683D01*
X247649Y105077D01*
X248485Y105629D01*
X249210Y106322D01*
X249799Y107133D01*
X250234Y108036D01*
X250500Y109002D01*
X250590Y110000D01*
Y124000D02*
X250500Y124998D01*
X250234Y125964D01*
X249799Y126867D01*
X249210Y127678D01*
X248485Y128371D01*
X247649Y128923D01*
X246727Y129317D01*
X245750Y129540D01*
X244749Y129585D01*
X243756Y129450D01*
X242803Y129140D01*
X241920Y128665D01*
X241137Y128041D01*
X240477Y127286D01*
X239963Y126426D01*
X239611Y125487D01*
X239432Y124501D01*
Y123499D01*
X239611Y122513D01*
X239963Y121574D01*
X240477Y120714D01*
X241137Y119959D01*
X241920Y119335D01*
X242803Y118860D01*
X243756Y118550D01*
X244749Y118415D01*
X245750Y118460D01*
X246727Y118683D01*
X247649Y119077D01*
X248485Y119629D01*
X249210Y120322D01*
X249799Y121133D01*
X250234Y122036D01*
X250500Y123002D01*
X250590Y124000D01*
X-11410Y110000D02*
X-11500Y110998D01*
X-11766Y111964D01*
X-12201Y112867D01*
X-12790Y113678D01*
X-13515Y114371D01*
X-14351Y114923D01*
X-15272Y115317D01*
X-16250Y115540D01*
X-17251Y115585D01*
X-18244Y115450D01*
X-19197Y115140D01*
X-20080Y114665D01*
X-20863Y114041D01*
X-21522Y113286D01*
X-22037Y112425D01*
X-22389Y111487D01*
X-22568Y110501D01*
Y109499D01*
X-22389Y108513D01*
X-22037Y107574D01*
X-21522Y106714D01*
X-20863Y105959D01*
X-20080Y105335D01*
X-19197Y104860D01*
X-18244Y104550D01*
X-17251Y104416D01*
X-16250Y104460D01*
X-15272Y104683D01*
X-14351Y105077D01*
X-13515Y105629D01*
X-12790Y106322D01*
X-12201Y107133D01*
X-11766Y108036D01*
X-11500Y109002D01*
X-11410Y110000D01*
Y124000D02*
X-11500Y124998D01*
X-11766Y125964D01*
X-12201Y126867D01*
X-12790Y127678D01*
X-13515Y128371D01*
X-14351Y128923D01*
X-15272Y129317D01*
X-16250Y129540D01*
X-17251Y129585D01*
X-18244Y129450D01*
X-19197Y129140D01*
X-20080Y128665D01*
X-20863Y128041D01*
X-21522Y127286D01*
X-22037Y126426D01*
X-22389Y125487D01*
X-22568Y124501D01*
Y123499D01*
X-22389Y122513D01*
X-22037Y121574D01*
X-21522Y120714D01*
X-20863Y119959D01*
X-20080Y119335D01*
X-19197Y118860D01*
X-18244Y118550D01*
X-17251Y118415D01*
X-16250Y118460D01*
X-15272Y118683D01*
X-14351Y119077D01*
X-13515Y119629D01*
X-12790Y120322D01*
X-12201Y121133D01*
X-11766Y122036D01*
X-11500Y123002D01*
X-11410Y124000D01*
X250590Y88000D02*
X250500Y88998D01*
X250234Y89964D01*
X249799Y90867D01*
X249210Y91678D01*
X248485Y92371D01*
X247649Y92923D01*
X246727Y93317D01*
X245750Y93540D01*
X244749Y93585D01*
X243756Y93450D01*
X242803Y93140D01*
X241920Y92665D01*
X241137Y92040D01*
X240477Y91286D01*
X239963Y90425D01*
X239611Y89487D01*
X239432Y88501D01*
Y87499D01*
X239611Y86513D01*
X239963Y85575D01*
X240477Y84714D01*
X241137Y83960D01*
X241920Y83335D01*
X242803Y82860D01*
X243756Y82550D01*
X244749Y82415D01*
X245750Y82460D01*
X246727Y82683D01*
X247649Y83077D01*
X248485Y83629D01*
X249210Y84322D01*
X249799Y85133D01*
X250234Y86036D01*
X250500Y87002D01*
X250590Y88000D01*
Y74000D02*
X250500Y74998D01*
X250234Y75964D01*
X249799Y76867D01*
X249210Y77678D01*
X248485Y78371D01*
X247649Y78923D01*
X246727Y79317D01*
X245750Y79540D01*
X244749Y79584D01*
X243756Y79450D01*
X242803Y79140D01*
X241920Y78665D01*
X241137Y78040D01*
X240477Y77286D01*
X239963Y76425D01*
X239611Y75487D01*
X239432Y74501D01*
Y73499D01*
X239611Y72513D01*
X239963Y71574D01*
X240477Y70714D01*
X241137Y69959D01*
X241920Y69335D01*
X242803Y68860D01*
X243756Y68550D01*
X244749Y68415D01*
X245750Y68460D01*
X246727Y68683D01*
X247649Y69077D01*
X248485Y69629D01*
X249210Y70322D01*
X249799Y71133D01*
X250234Y72036D01*
X250500Y73002D01*
X250590Y74000D01*
Y60000D02*
X250500Y60998D01*
X250234Y61964D01*
X249799Y62867D01*
X249210Y63678D01*
X248485Y64371D01*
X247649Y64923D01*
X246727Y65317D01*
X245750Y65540D01*
X244749Y65584D01*
X243756Y65450D01*
X242803Y65140D01*
X241920Y64665D01*
X241137Y64040D01*
X240477Y63286D01*
X239963Y62426D01*
X239611Y61487D01*
X239432Y60501D01*
Y59499D01*
X239611Y58513D01*
X239963Y57574D01*
X240477Y56714D01*
X241137Y55959D01*
X241920Y55335D01*
X242803Y54860D01*
X243756Y54550D01*
X244749Y54416D01*
X245750Y54460D01*
X246727Y54683D01*
X247649Y55077D01*
X248485Y55629D01*
X249210Y56322D01*
X249799Y57133D01*
X250234Y58036D01*
X250500Y59002D01*
X250590Y60000D01*
Y46000D02*
X250500Y46998D01*
X250234Y47964D01*
X249799Y48867D01*
X249210Y49678D01*
X248485Y50371D01*
X247649Y50923D01*
X246727Y51317D01*
X245750Y51540D01*
X244749Y51585D01*
X243756Y51450D01*
X242803Y51140D01*
X241920Y50665D01*
X241137Y50041D01*
X240477Y49286D01*
X239963Y48425D01*
X239611Y47487D01*
X239432Y46501D01*
Y45499D01*
X239611Y44513D01*
X239963Y43575D01*
X240477Y42714D01*
X241137Y41959D01*
X241920Y41335D01*
X242803Y40860D01*
X243756Y40550D01*
X244749Y40415D01*
X245750Y40460D01*
X246727Y40683D01*
X247649Y41077D01*
X248485Y41629D01*
X249210Y42322D01*
X249799Y43133D01*
X250234Y44036D01*
X250500Y45002D01*
X250590Y46000D01*
X-11410D02*
X-11500Y46998D01*
X-11766Y47964D01*
X-12201Y48867D01*
X-12790Y49678D01*
X-13515Y50371D01*
X-14351Y50923D01*
X-15272Y51317D01*
X-16250Y51540D01*
X-17251Y51585D01*
X-18244Y51450D01*
X-19197Y51140D01*
X-20080Y50665D01*
X-20863Y50041D01*
X-21522Y49286D01*
X-22037Y48425D01*
X-22389Y47487D01*
X-22568Y46501D01*
Y45499D01*
X-22389Y44513D01*
X-22037Y43575D01*
X-21522Y42714D01*
X-20863Y41959D01*
X-20080Y41335D01*
X-19197Y40860D01*
X-18244Y40550D01*
X-17251Y40415D01*
X-16250Y40460D01*
X-15272Y40683D01*
X-14351Y41077D01*
X-13515Y41629D01*
X-12790Y42322D01*
X-12201Y43133D01*
X-11766Y44036D01*
X-11500Y45002D01*
X-11410Y46000D01*
Y60000D02*
X-11500Y60998D01*
X-11766Y61964D01*
X-12201Y62867D01*
X-12790Y63678D01*
X-13515Y64371D01*
X-14351Y64923D01*
X-15272Y65317D01*
X-16250Y65540D01*
X-17251Y65584D01*
X-18244Y65450D01*
X-19197Y65140D01*
X-20080Y64665D01*
X-20863Y64040D01*
X-21522Y63286D01*
X-22037Y62426D01*
X-22389Y61487D01*
X-22568Y60501D01*
Y59499D01*
X-22389Y58513D01*
X-22037Y57574D01*
X-21522Y56714D01*
X-20863Y55959D01*
X-20080Y55335D01*
X-19197Y54860D01*
X-18244Y54550D01*
X-17251Y54416D01*
X-16250Y54460D01*
X-15272Y54683D01*
X-14351Y55077D01*
X-13515Y55629D01*
X-12790Y56322D01*
X-12201Y57133D01*
X-11766Y58036D01*
X-11500Y59002D01*
X-11410Y60000D01*
Y74000D02*
X-11500Y74998D01*
X-11766Y75964D01*
X-12201Y76867D01*
X-12790Y77678D01*
X-13515Y78371D01*
X-14351Y78923D01*
X-15272Y79317D01*
X-16250Y79540D01*
X-17251Y79584D01*
X-18244Y79450D01*
X-19197Y79140D01*
X-20080Y78665D01*
X-20863Y78040D01*
X-21522Y77286D01*
X-22037Y76425D01*
X-22389Y75487D01*
X-22568Y74501D01*
Y73499D01*
X-22389Y72513D01*
X-22037Y71574D01*
X-21522Y70714D01*
X-20863Y69959D01*
X-20080Y69335D01*
X-19197Y68860D01*
X-18244Y68550D01*
X-17251Y68415D01*
X-16250Y68460D01*
X-15272Y68683D01*
X-14351Y69077D01*
X-13515Y69629D01*
X-12790Y70322D01*
X-12201Y71133D01*
X-11766Y72036D01*
X-11500Y73002D01*
X-11410Y74000D01*
Y88000D02*
X-11500Y88998D01*
X-11766Y89964D01*
X-12201Y90867D01*
X-12790Y91678D01*
X-13515Y92371D01*
X-14351Y92923D01*
X-15272Y93317D01*
X-16250Y93540D01*
X-17251Y93585D01*
X-18244Y93450D01*
X-19197Y93140D01*
X-20080Y92665D01*
X-20863Y92040D01*
X-21522Y91286D01*
X-22037Y90425D01*
X-22389Y89487D01*
X-22568Y88501D01*
Y87499D01*
X-22389Y86513D01*
X-22037Y85575D01*
X-21522Y84714D01*
X-20863Y83960D01*
X-20080Y83335D01*
X-19197Y82860D01*
X-18244Y82550D01*
X-17251Y82415D01*
X-16250Y82460D01*
X-15272Y82683D01*
X-14351Y83077D01*
X-13515Y83629D01*
X-12790Y84322D01*
X-12201Y85133D01*
X-11766Y86036D01*
X-11500Y87002D01*
X-11410Y88000D01*
X250590Y187000D02*
X250500Y187998D01*
X250234Y188964D01*
X249799Y189867D01*
X249210Y190678D01*
X248485Y191371D01*
X247649Y191923D01*
X246727Y192317D01*
X245750Y192540D01*
X244749Y192585D01*
X243756Y192450D01*
X242803Y192140D01*
X241920Y191665D01*
X241137Y191041D01*
X240477Y190286D01*
X239963Y189426D01*
X239611Y188487D01*
X239432Y187501D01*
Y186499D01*
X239611Y185513D01*
X239963Y184574D01*
X240477Y183714D01*
X241137Y182959D01*
X241920Y182335D01*
X242803Y181860D01*
X243756Y181550D01*
X244749Y181415D01*
X245750Y181460D01*
X246727Y181683D01*
X247649Y182077D01*
X248485Y182629D01*
X249210Y183322D01*
X249799Y184133D01*
X250234Y185036D01*
X250500Y186002D01*
X250590Y187000D01*
Y173000D02*
X250500Y173998D01*
X250234Y174964D01*
X249799Y175867D01*
X249210Y176678D01*
X248485Y177371D01*
X247649Y177923D01*
X246727Y178317D01*
X245750Y178540D01*
X244749Y178585D01*
X243756Y178450D01*
X242803Y178140D01*
X241920Y177665D01*
X241137Y177041D01*
X240477Y176286D01*
X239963Y175426D01*
X239611Y174487D01*
X239432Y173501D01*
Y172499D01*
X239611Y171513D01*
X239963Y170574D01*
X240477Y169714D01*
X241137Y168959D01*
X241920Y168335D01*
X242803Y167860D01*
X243756Y167550D01*
X244749Y167415D01*
X245750Y167460D01*
X246727Y167683D01*
X247649Y168077D01*
X248485Y168629D01*
X249210Y169322D01*
X249799Y170133D01*
X250234Y171036D01*
X250500Y172002D01*
X250590Y173000D01*
Y159000D02*
X250500Y159998D01*
X250234Y160964D01*
X249799Y161867D01*
X249210Y162678D01*
X248485Y163371D01*
X247649Y163923D01*
X246727Y164317D01*
X245750Y164540D01*
X244749Y164585D01*
X243756Y164450D01*
X242803Y164140D01*
X241920Y163665D01*
X241137Y163041D01*
X240477Y162286D01*
X239963Y161425D01*
X239611Y160487D01*
X239432Y159501D01*
Y158499D01*
X239611Y157513D01*
X239963Y156574D01*
X240477Y155714D01*
X241137Y154959D01*
X241920Y154335D01*
X242803Y153860D01*
X243756Y153550D01*
X244749Y153416D01*
X245750Y153460D01*
X246727Y153683D01*
X247649Y154077D01*
X248485Y154629D01*
X249210Y155322D01*
X249799Y156133D01*
X250234Y157036D01*
X250500Y158002D01*
X250590Y159000D01*
Y145000D02*
X250500Y145998D01*
X250234Y146964D01*
X249799Y147867D01*
X249210Y148678D01*
X248485Y149371D01*
X247649Y149923D01*
X246727Y150317D01*
X245750Y150540D01*
X244749Y150584D01*
X243756Y150450D01*
X242803Y150140D01*
X241920Y149665D01*
X241137Y149041D01*
X240477Y148286D01*
X239963Y147425D01*
X239611Y146487D01*
X239432Y145501D01*
Y144499D01*
X239611Y143513D01*
X239963Y142575D01*
X240477Y141714D01*
X241137Y140959D01*
X241920Y140335D01*
X242803Y139860D01*
X243756Y139550D01*
X244749Y139416D01*
X245750Y139460D01*
X246727Y139683D01*
X247649Y140077D01*
X248485Y140629D01*
X249210Y141322D01*
X249799Y142133D01*
X250234Y143036D01*
X250500Y144002D01*
X250590Y145000D01*
X-11410D02*
X-11500Y145998D01*
X-11766Y146964D01*
X-12201Y147867D01*
X-12790Y148678D01*
X-13515Y149371D01*
X-14351Y149923D01*
X-15272Y150317D01*
X-16250Y150540D01*
X-17251Y150584D01*
X-18244Y150450D01*
X-19197Y150140D01*
X-20080Y149665D01*
X-20863Y149041D01*
X-21522Y148286D01*
X-22037Y147425D01*
X-22389Y146487D01*
X-22568Y145501D01*
Y144499D01*
X-22389Y143513D01*
X-22037Y142575D01*
X-21522Y141714D01*
X-20863Y140959D01*
X-20080Y140335D01*
X-19197Y139860D01*
X-18244Y139550D01*
X-17251Y139416D01*
X-16250Y139460D01*
X-15272Y139683D01*
X-14351Y140077D01*
X-13515Y140629D01*
X-12790Y141322D01*
X-12201Y142133D01*
X-11766Y143036D01*
X-11500Y144002D01*
X-11410Y145000D01*
Y159000D02*
X-11500Y159998D01*
X-11766Y160964D01*
X-12201Y161867D01*
X-12790Y162678D01*
X-13515Y163371D01*
X-14351Y163923D01*
X-15272Y164317D01*
X-16250Y164540D01*
X-17251Y164585D01*
X-18244Y164450D01*
X-19197Y164140D01*
X-20080Y163665D01*
X-20863Y163041D01*
X-21522Y162286D01*
X-22037Y161425D01*
X-22389Y160487D01*
X-22568Y159501D01*
Y158499D01*
X-22389Y157513D01*
X-22037Y156574D01*
X-21522Y155714D01*
X-20863Y154959D01*
X-20080Y154335D01*
X-19197Y153860D01*
X-18244Y153550D01*
X-17251Y153416D01*
X-16250Y153460D01*
X-15272Y153683D01*
X-14351Y154077D01*
X-13515Y154629D01*
X-12790Y155322D01*
X-12201Y156133D01*
X-11766Y157036D01*
X-11500Y158002D01*
X-11410Y159000D01*
Y173000D02*
X-11500Y173998D01*
X-11766Y174964D01*
X-12201Y175867D01*
X-12790Y176678D01*
X-13515Y177371D01*
X-14351Y177923D01*
X-15272Y178317D01*
X-16250Y178540D01*
X-17251Y178585D01*
X-18244Y178450D01*
X-19197Y178140D01*
X-20080Y177665D01*
X-20863Y177041D01*
X-21522Y176286D01*
X-22037Y175426D01*
X-22389Y174487D01*
X-22568Y173501D01*
Y172499D01*
X-22389Y171513D01*
X-22037Y170574D01*
X-21522Y169714D01*
X-20863Y168959D01*
X-20080Y168335D01*
X-19197Y167860D01*
X-18244Y167550D01*
X-17251Y167415D01*
X-16250Y167460D01*
X-15272Y167683D01*
X-14351Y168077D01*
X-13515Y168629D01*
X-12790Y169322D01*
X-12201Y170133D01*
X-11766Y171036D01*
X-11500Y172002D01*
X-11410Y173000D01*
Y187000D02*
X-11500Y187998D01*
X-11766Y188964D01*
X-12201Y189867D01*
X-12790Y190678D01*
X-13515Y191371D01*
X-14351Y191923D01*
X-15272Y192317D01*
X-16250Y192540D01*
X-17251Y192585D01*
X-18244Y192450D01*
X-19197Y192140D01*
X-20080Y191665D01*
X-20863Y191041D01*
X-21522Y190286D01*
X-22037Y189426D01*
X-22389Y188487D01*
X-22568Y187501D01*
Y186499D01*
X-22389Y185513D01*
X-22037Y184574D01*
X-21522Y183714D01*
X-20863Y182959D01*
X-20080Y182335D01*
X-19197Y181860D01*
X-18244Y181550D01*
X-17251Y181415D01*
X-16250Y181460D01*
X-15272Y181683D01*
X-14351Y182077D01*
X-13515Y182629D01*
X-12790Y183322D01*
X-12201Y184133D01*
X-11766Y185036D01*
X-11500Y186002D01*
X-11410Y187000D01*
X110414Y-12000D02*
X110083Y-11091D01*
X109246Y-10607D01*
X108293Y-10775D01*
X107671Y-11516D01*
Y-12484D01*
X108293Y-13225D01*
X109246Y-13393D01*
X110083Y-12909D01*
X110414Y-12000D01*
X110000D02*
X109500Y-11134D01*
X108500D01*
X108000Y-12000D01*
X108500Y-12866D01*
X109500D01*
X110000Y-12000D01*
X120606Y-92000D02*
X120472Y-91027D01*
X120081Y-90127D01*
X119461Y-89365D01*
X118659Y-88799D01*
X117734Y-88470D01*
X116754Y-88403D01*
X115793Y-88603D01*
X114921Y-89054D01*
X114203Y-89725D01*
X113693Y-90563D01*
X113428Y-91509D01*
Y-92491D01*
X113693Y-93436D01*
X114203Y-94275D01*
X114921Y-94946D01*
X115793Y-95397D01*
X116754Y-95597D01*
X117734Y-95530D01*
X118659Y-95201D01*
X119461Y-94635D01*
X120081Y-93873D01*
X120472Y-92973D01*
X120606Y-92000D01*
X105605D02*
X105472Y-91027D01*
X105081Y-90127D01*
X104461Y-89365D01*
X103659Y-88799D01*
X102734Y-88470D01*
X101754Y-88403D01*
X100793Y-88603D01*
X99921Y-89054D01*
X99203Y-89725D01*
X98693Y-90563D01*
X98428Y-91509D01*
Y-92491D01*
X98693Y-93436D01*
X99203Y-94275D01*
X99921Y-94946D01*
X100793Y-95397D01*
X101754Y-95597D01*
X102734Y-95530D01*
X103659Y-95201D01*
X104461Y-94635D01*
X105081Y-93873D01*
X105472Y-92973D01*
X105605Y-92000D01*
X90606D02*
X90472Y-91027D01*
X90081Y-90127D01*
X89461Y-89365D01*
X88659Y-88799D01*
X87734Y-88470D01*
X86754Y-88403D01*
X85793Y-88603D01*
X84921Y-89054D01*
X84203Y-89725D01*
X83693Y-90563D01*
X83428Y-91509D01*
Y-92491D01*
X83693Y-93436D01*
X84203Y-94275D01*
X84921Y-94946D01*
X85793Y-95397D01*
X86754Y-95597D01*
X87734Y-95530D01*
X88659Y-95201D01*
X89461Y-94635D01*
X90081Y-93873D01*
X90472Y-92973D01*
X90606Y-92000D01*
X75606D02*
X75472Y-91027D01*
X75081Y-90127D01*
X74461Y-89365D01*
X73659Y-88799D01*
X72734Y-88470D01*
X71754Y-88403D01*
X70793Y-88603D01*
X69921Y-89054D01*
X69203Y-89725D01*
X68693Y-90563D01*
X68428Y-91509D01*
Y-92491D01*
X68693Y-93436D01*
X69203Y-94275D01*
X69921Y-94946D01*
X70793Y-95397D01*
X71754Y-95597D01*
X72734Y-95530D01*
X73659Y-95201D01*
X74461Y-94635D01*
X75081Y-93873D01*
X75472Y-92973D01*
X75606Y-92000D01*
X-37000Y-100000D02*
X265000D01*
Y224000D01*
X-37000D02*
X265000D01*
X-37000Y-100000D02*
Y224000D01*
X131095Y18992D02*
X142905D01*
X131095Y-6598D02*
Y18992D01*
Y-6598D02*
X142905D01*
Y18992D01*
X-56000Y-94000D02*
X-54000Y-100000D01*
X-52000Y-94000D01*
X-54000Y224000D02*
X-52000Y218000D01*
X-56000D02*
X-54000Y224000D01*
Y-100000D02*
Y44804D01*
Y75995D02*
Y224000D01*
X-55000Y-100000D02*
X-38500D01*
X-55000Y224000D02*
X-38500D01*
X-37000Y252000D02*
X-31000Y254000D01*
X-37000Y252000D02*
X-31000Y250000D01*
X259000D02*
X265000Y252000D01*
X259000Y254000D02*
X265000Y252000D01*
X-37000D02*
X97804D01*
X126996D02*
X265000D01*
X-37000Y225500D02*
Y253000D01*
X265000Y225500D02*
Y253000D01*
X113001Y102501D02*
X112001Y101502D01*
Y99502D01*
X113001Y98502D01*
X116999D01*
X117999Y99502D01*
Y101502D01*
X116999Y102501D01*
X117999Y104500D02*
Y106500D01*
Y105500D01*
X112001D01*
X113001Y104500D01*
Y109499D02*
X112001Y110499D01*
Y112498D01*
X113001Y113498D01*
X116999D01*
X117999Y112498D01*
Y110499D01*
X116999Y109499D01*
X113001D01*
X259999Y103997D02*
X254001Y99999D01*
X259999D02*
X254001Y103997D01*
Y94001D02*
Y97999D01*
X258000Y94001D01*
X258999D01*
X259999Y95000D01*
Y97000D01*
X258999Y97999D01*
X259999Y88003D02*
X258999Y90002D01*
X257000Y92001D01*
X255001D01*
X254001Y91002D01*
Y89002D01*
X255001Y88003D01*
X256000D01*
X257000Y89002D01*
Y92001D01*
X259999Y84997D02*
X254001Y80999D01*
X259999D02*
X254001Y84997D01*
Y75001D02*
Y78999D01*
X258000Y75001D01*
X258999D01*
X259999Y76000D01*
Y78000D01*
X258999Y78999D01*
X259999Y69003D02*
Y73001D01*
X257000D01*
X258000Y71002D01*
Y70002D01*
X257000Y69003D01*
X255001D01*
X254001Y70002D01*
Y72002D01*
X255001Y73001D01*
X259999Y64997D02*
X254001Y60999D01*
X259999D02*
X254001Y64997D01*
Y55001D02*
Y58999D01*
X258000Y55001D01*
X258999D01*
X259999Y56000D01*
Y58000D01*
X258999Y58999D01*
X254001Y50002D02*
X259999D01*
X257000Y53001D01*
Y49003D01*
X259999Y44997D02*
X254001Y40999D01*
X259999D02*
X254001Y44997D01*
Y35001D02*
Y38999D01*
X258000Y35001D01*
X258999D01*
X259999Y36000D01*
Y38000D01*
X258999Y38999D01*
Y33001D02*
X259999Y32002D01*
Y30002D01*
X258999Y29003D01*
X258000D01*
X257000Y30002D01*
Y31002D01*
Y30002D01*
X256000Y29003D01*
X255001D01*
X254001Y30002D01*
Y32002D01*
X255001Y33001D01*
X-31999Y27003D02*
X-26001Y31001D01*
X-31999D02*
X-26001Y27003D01*
Y36999D02*
Y33001D01*
X-30000Y36999D01*
X-30999D01*
X-31999Y36000D01*
Y34000D01*
X-30999Y33001D01*
X-26001Y42997D02*
Y38999D01*
X-30000Y42997D01*
X-30999D01*
X-31999Y41998D01*
Y39998D01*
X-30999Y38999D01*
X-31999Y48002D02*
X-26001Y52001D01*
X-31999D02*
X-26001Y48002D01*
Y57999D02*
Y54000D01*
X-30000Y57999D01*
X-30999D01*
X-31999Y56999D01*
Y55000D01*
X-30999Y54000D01*
X-26001Y59998D02*
Y61998D01*
Y60998D01*
X-31999D01*
X-30999Y59998D01*
X-31999Y64003D02*
X-26001Y68001D01*
X-31999D02*
X-26001Y64003D01*
Y73999D02*
Y70001D01*
X-30000Y73999D01*
X-30999D01*
X-31999Y73000D01*
Y71000D01*
X-30999Y70001D01*
Y75999D02*
X-31999Y76998D01*
Y78998D01*
X-30999Y79997D01*
X-27001D01*
X-26001Y78998D01*
Y76998D01*
X-27001Y75999D01*
X-30999D01*
X-31999Y84502D02*
X-26001Y88501D01*
X-31999D02*
X-26001Y84502D01*
Y90500D02*
Y92500D01*
Y91500D01*
X-31999D01*
X-30999Y90500D01*
X-27001Y95499D02*
X-26001Y96499D01*
Y98498D01*
X-27001Y99498D01*
X-30999D01*
X-31999Y98498D01*
Y96499D01*
X-30999Y95499D01*
X-30000D01*
X-29000Y96499D01*
Y99498D01*
X259999Y200498D02*
X254001Y196499D01*
X259999D02*
X254001Y200498D01*
Y194500D02*
Y192500D01*
Y193500D01*
X259999D01*
X258999Y194500D01*
Y189501D02*
X259999Y188501D01*
Y186502D01*
X258999Y185502D01*
X258000D01*
X257000Y186502D01*
X256000Y185502D01*
X255001D01*
X254001Y186502D01*
Y188501D01*
X255001Y189501D01*
X256000D01*
X257000Y188501D01*
X258000Y189501D01*
X258999D01*
X257000Y188501D02*
Y186502D01*
X259999Y181498D02*
X254001Y177499D01*
X259999D02*
X254001Y181498D01*
Y175499D02*
Y173500D01*
Y174500D01*
X259999D01*
X258999Y175499D01*
X259999Y170501D02*
Y166502D01*
X258999D01*
X255001Y170501D01*
X254001D01*
X259999Y163498D02*
X254001Y159499D01*
X259999D02*
X254001Y163498D01*
Y157500D02*
Y155500D01*
Y156500D01*
X259999D01*
X258999Y157500D01*
X259999Y148502D02*
X258999Y150502D01*
X257000Y152501D01*
X255001D01*
X254001Y151501D01*
Y149502D01*
X255001Y148502D01*
X256000D01*
X257000Y149502D01*
Y152501D01*
X259999Y144498D02*
X254001Y140499D01*
X259999D02*
X254001Y144498D01*
Y138499D02*
Y136500D01*
Y137500D01*
X259999D01*
X258999Y138499D01*
X259999Y129502D02*
Y133501D01*
X257000D01*
X258000Y131502D01*
Y130502D01*
X257000Y129502D01*
X255001D01*
X254001Y130502D01*
Y132501D01*
X255001Y133501D01*
X-31999Y132502D02*
X-26001Y136501D01*
X-31999D02*
X-26001Y132502D01*
Y138500D02*
Y140500D01*
Y139500D01*
X-31999D01*
X-30999Y138500D01*
X-26001Y146498D02*
X-31999D01*
X-29000Y143499D01*
Y147498D01*
X-31999Y150502D02*
X-26001Y154501D01*
X-31999D02*
X-26001Y150502D01*
Y156500D02*
Y158500D01*
Y157500D01*
X-31999D01*
X-30999Y156500D01*
Y161499D02*
X-31999Y162499D01*
Y164498D01*
X-30999Y165498D01*
X-30000D01*
X-29000Y164498D01*
Y163498D01*
Y164498D01*
X-28000Y165498D01*
X-27001D01*
X-26001Y164498D01*
Y162499D01*
X-27001Y161499D01*
X-31999Y168502D02*
X-26001Y172501D01*
X-31999D02*
X-26001Y168502D01*
Y174501D02*
Y176500D01*
Y175500D01*
X-31999D01*
X-30999Y174501D01*
X-26001Y183498D02*
Y179499D01*
X-30000Y183498D01*
X-30999D01*
X-31999Y182498D01*
Y180499D01*
X-30999Y179499D01*
X-31999Y186502D02*
X-26001Y190501D01*
X-31999D02*
X-26001Y186502D01*
Y192500D02*
Y194500D01*
Y193500D01*
X-31999D01*
X-30999Y192500D01*
X-26001Y197499D02*
Y199498D01*
Y198498D01*
X-31999D01*
X-30999Y197499D01*
X237498Y121001D02*
X233499Y126999D01*
Y121001D02*
X237498Y126999D01*
X231500D02*
X229500D01*
X230500D01*
Y121001D01*
X231500Y122001D01*
X226501D02*
X225501Y121001D01*
X223502D01*
X222502Y122001D01*
Y125999D01*
X223502Y126999D01*
X225501D01*
X226501Y125999D01*
Y122001D01*
X235998Y107001D02*
X232000Y112999D01*
Y107001D02*
X235998Y112999D01*
X230000Y111999D02*
X229001Y112999D01*
X227001D01*
X226002Y111999D01*
Y108001D01*
X227001Y107001D01*
X229001D01*
X230000Y108001D01*
Y109000D01*
X229001Y110000D01*
X226002D01*
X-31999Y119002D02*
X-26001Y123000D01*
X-31999D02*
X-26001Y119002D01*
X-30999Y125000D02*
X-31999Y125999D01*
Y127999D01*
X-30999Y128998D01*
X-30000D01*
X-29000Y127999D01*
X-28000Y128998D01*
X-27001D01*
X-26001Y127999D01*
Y125999D01*
X-27001Y125000D01*
X-28000D01*
X-29000Y125999D01*
X-30000Y125000D01*
X-30999D01*
X-29000Y125999D02*
Y127999D01*
X-31999Y104002D02*
X-26001Y108000D01*
X-31999D02*
X-26001Y104002D01*
X-31999Y110000D02*
Y113998D01*
X-30999D01*
X-27001Y110000D01*
X-26001D01*
X67002Y-63001D02*
X71000Y-68999D01*
Y-63001D02*
X67002Y-68999D01*
X76998Y-63001D02*
X74999Y-64001D01*
X73000Y-66000D01*
Y-67999D01*
X73999Y-68999D01*
X75999D01*
X76998Y-67999D01*
Y-67000D01*
X75999Y-66000D01*
X73000D01*
X112002Y-63001D02*
X116000Y-68999D01*
Y-63001D02*
X112002Y-68999D01*
X121998Y-63001D02*
X118000D01*
Y-66000D01*
X119999Y-65000D01*
X120999D01*
X121998Y-66000D01*
Y-67999D01*
X120999Y-68999D01*
X118999D01*
X118000Y-67999D01*
X97002Y-63001D02*
X101000Y-68999D01*
Y-63001D02*
X97002Y-68999D01*
X105999D02*
Y-63001D01*
X103000Y-66000D01*
X106998D01*
X82002Y-63001D02*
X86000Y-68999D01*
Y-63001D02*
X82002Y-68999D01*
X88000Y-64001D02*
X88999Y-63001D01*
X90999D01*
X91998Y-64001D01*
Y-65000D01*
X90999Y-66000D01*
X89999D01*
X90999D01*
X91998Y-67000D01*
Y-67999D01*
X90999Y-68999D01*
X88999D01*
X88000Y-67999D01*
X156002Y47999D02*
X160000Y42001D01*
Y47999D02*
X156002Y42001D01*
X165998D02*
X162000D01*
X165998Y46000D01*
Y46999D01*
X164999Y47999D01*
X162999D01*
X162000Y46999D01*
X156639Y89378D02*
X160637Y83380D01*
Y89378D02*
X156639Y83380D01*
X162637D02*
X164636D01*
X163636D01*
Y89378D01*
X162637Y88378D01*
X241997Y35001D02*
Y39000D01*
X239998Y40999D01*
X237999Y39000D01*
Y35001D01*
X235999D02*
X232001D01*
X234000D01*
Y40999D01*
X227002D02*
Y35001D01*
X230001Y38000D01*
X226003D01*
X-14997Y99999D02*
Y96000D01*
X-12998Y94001D01*
X-10999Y96000D01*
Y99999D01*
X-8999D02*
X-5001D01*
X-7000D01*
Y94001D01*
X-3001Y98999D02*
X-2002Y99999D01*
X-2D01*
X997Y98999D01*
Y98000D01*
X-2Y97000D01*
X-1002D01*
X-2D01*
X997Y96000D01*
Y95001D01*
X-2Y94001D01*
X-2002D01*
X-3001Y95001D01*
X238997Y133001D02*
Y137000D01*
X236998Y138999D01*
X234999Y137000D01*
Y133001D01*
X232999D02*
X229001D01*
X231000D01*
Y138999D01*
X223003D02*
X227001D01*
X223003Y135000D01*
Y134001D01*
X224002Y133001D01*
X226002D01*
X227001Y134001D01*
X-7998Y198999D02*
Y195000D01*
X-5998Y193001D01*
X-3999Y195000D01*
Y198999D01*
X-2000D02*
X1999D01*
X-0D01*
Y193001D01*
X3998D02*
X5998D01*
X4998D01*
Y198999D01*
X3998Y197999D01*
X216999Y34997D02*
X213000D01*
X211001Y32998D01*
X213000Y30999D01*
X216999D01*
Y28999D02*
X211001D01*
Y26000D01*
X212001Y25001D01*
X215999D01*
X216999Y26000D01*
Y28999D01*
X211001Y20002D02*
X216999D01*
X214000Y23001D01*
Y19003D01*
X10001Y98896D02*
X14000D01*
X15999Y100896D01*
X14000Y102895D01*
X10001D01*
Y104894D02*
X15999D01*
Y107893D01*
X14999Y108893D01*
X11001D01*
X10001Y107893D01*
Y104894D01*
X11001Y110892D02*
X10001Y111892D01*
Y113891D01*
X11001Y114891D01*
X12000D01*
X13000Y113891D01*
Y112892D01*
Y113891D01*
X14000Y114891D01*
X14999D01*
X15999Y113891D01*
Y111892D01*
X14999Y110892D01*
X216999Y134104D02*
X213000D01*
X211001Y132104D01*
X213000Y130105D01*
X216999D01*
Y128106D02*
X211001D01*
Y125107D01*
X212001Y124107D01*
X215999D01*
X216999Y125107D01*
Y128106D01*
X211001Y118109D02*
Y122108D01*
X215000Y118109D01*
X215999D01*
X216999Y119109D01*
Y121108D01*
X215999Y122108D01*
X10001Y197896D02*
X14000D01*
X15999Y199895D01*
X14000Y201895D01*
X10001D01*
Y203894D02*
X15999D01*
Y206893D01*
X14999Y207893D01*
X11001D01*
X10001Y206893D01*
Y203894D01*
X15999Y209892D02*
Y211891D01*
Y210892D01*
X10001D01*
X11001Y209892D01*
X75503Y135999D02*
X79502D01*
X77503D01*
Y130001D01*
X81502D02*
Y135999D01*
X84500D01*
X85500Y134999D01*
Y133000D01*
X84500Y132000D01*
X81502D01*
X87499Y130001D02*
X89499D01*
X88499D01*
Y135999D01*
X87499Y134999D01*
X92498D02*
X93498Y135999D01*
X95497D01*
X96497Y134999D01*
Y131001D01*
X95497Y130001D01*
X93498D01*
X92498Y131001D01*
Y134999D01*
X190003Y126999D02*
X194001D01*
X192002D01*
Y121001D01*
X196001D02*
Y126999D01*
X199000D01*
X199999Y125999D01*
Y124000D01*
X199000Y123000D01*
X196001D01*
X201999Y122001D02*
X202998Y121001D01*
X204998D01*
X205997Y122001D01*
Y125999D01*
X204998Y126999D01*
X202998D01*
X201999Y125999D01*
Y125000D01*
X202998Y124000D01*
X205997D01*
X191003Y30999D02*
X195001D01*
X193002D01*
Y25001D01*
X197001D02*
Y30999D01*
X200000D01*
X200999Y29999D01*
Y28000D01*
X200000Y27000D01*
X197001D01*
X202999Y29999D02*
X203998Y30999D01*
X205998D01*
X206997Y29999D01*
Y29000D01*
X205998Y28000D01*
X206997Y27000D01*
Y26001D01*
X205998Y25001D01*
X203998D01*
X202999Y26001D01*
Y27000D01*
X203998Y28000D01*
X202999Y29000D01*
Y29999D01*
X203998Y28000D02*
X205998D01*
X14003Y49999D02*
X18001D01*
X16002D01*
Y44001D01*
X20001D02*
Y49999D01*
X23000D01*
X23999Y48999D01*
Y47000D01*
X23000Y46000D01*
X20001D01*
X25999Y49999D02*
X29997D01*
Y48999D01*
X25999Y45001D01*
Y44001D01*
X177003Y105999D02*
X181001D01*
X179002D01*
Y100001D01*
X183001D02*
Y105999D01*
X186000D01*
X186999Y104999D01*
Y103000D01*
X186000Y102000D01*
X183001D01*
X192997Y105999D02*
X190998Y104999D01*
X188999Y103000D01*
Y101001D01*
X189998Y100001D01*
X191998D01*
X192997Y101001D01*
Y102000D01*
X191998Y103000D01*
X188999D01*
X42003Y52999D02*
X46001D01*
X44002D01*
Y47001D01*
X48001D02*
Y52999D01*
X51000D01*
X51999Y51999D01*
Y50000D01*
X51000Y49000D01*
X48001D01*
X57997Y52999D02*
X53999D01*
Y50000D01*
X55998Y51000D01*
X56998D01*
X57997Y50000D01*
Y48001D01*
X56998Y47001D01*
X54998D01*
X53999Y48001D01*
X177003Y203999D02*
X181001D01*
X179002D01*
Y198001D01*
X183001D02*
Y203999D01*
X186000D01*
X186999Y202999D01*
Y201000D01*
X186000Y200000D01*
X183001D01*
X191998Y198001D02*
Y203999D01*
X188999Y201000D01*
X192997D01*
X35003Y151999D02*
X39001D01*
X37002D01*
Y146001D01*
X41001D02*
Y151999D01*
X44000D01*
X44999Y150999D01*
Y149000D01*
X44000Y148000D01*
X41001D01*
X46999Y150999D02*
X47998Y151999D01*
X49998D01*
X50997Y150999D01*
Y150000D01*
X49998Y149000D01*
X48998D01*
X49998D01*
X50997Y148000D01*
Y147001D01*
X49998Y146001D01*
X47998D01*
X46999Y147001D01*
X51003Y136999D02*
X55001D01*
X53002D01*
Y131001D01*
X57001D02*
Y136999D01*
X60000D01*
X60999Y135999D01*
Y134000D01*
X60000Y133000D01*
X57001D01*
X66997Y131001D02*
X62999D01*
X66997Y135000D01*
Y135999D01*
X65998Y136999D01*
X63998D01*
X62999Y135999D01*
X49998Y114001D02*
X45999D01*
X47998D01*
Y119999D01*
X44000D02*
Y114001D01*
X41001D01*
X40001Y115001D01*
Y117000D01*
X41001Y118000D01*
X44000D01*
X38002Y119999D02*
X36002D01*
X37002D01*
Y114001D01*
X38002Y115001D01*
X233499Y72565D02*
X227501D01*
Y75564D01*
X228501Y76564D01*
X230500D01*
X231500Y75564D01*
Y72565D01*
Y74565D02*
X233499Y76564D01*
Y78563D02*
Y80563D01*
Y79563D01*
X227501D01*
X228501Y78563D01*
X232499Y83562D02*
X233499Y84562D01*
Y86561D01*
X232499Y87561D01*
X228501D01*
X227501Y86561D01*
Y84562D01*
X228501Y83562D01*
X229500D01*
X230500Y84562D01*
Y87561D01*
X-5999Y60498D02*
X-1D01*
Y57499D01*
X-1001Y56499D01*
X-3000D01*
X-4000Y57499D01*
Y60498D01*
Y58498D02*
X-5999Y56499D01*
Y54500D02*
Y52500D01*
Y53500D01*
X-1D01*
X-1001Y54500D01*
Y49501D02*
X-1Y48501D01*
Y46502D01*
X-1001Y45502D01*
X-2000D01*
X-3000Y46502D01*
X-4000Y45502D01*
X-4999D01*
X-5999Y46502D01*
Y48501D01*
X-4999Y49501D01*
X-4000D01*
X-3000Y48501D01*
X-2000Y49501D01*
X-1001D01*
X-3000Y48501D02*
Y46502D01*
X232999Y172502D02*
X227001D01*
Y175502D01*
X228001Y176501D01*
X230000D01*
X231000Y175502D01*
Y172502D01*
Y174502D02*
X232999Y176501D01*
Y178500D02*
Y180500D01*
Y179500D01*
X227001D01*
X228001Y178500D01*
Y183499D02*
X227001Y184499D01*
Y186498D01*
X228001Y187498D01*
X229000D01*
X230000Y186498D01*
Y185498D01*
Y186498D01*
X231000Y187498D01*
X231999D01*
X232999Y186498D01*
Y184499D01*
X231999Y183499D01*
X-5999Y159998D02*
X-1D01*
Y156999D01*
X-1001Y156000D01*
X-3000D01*
X-4000Y156999D01*
Y159998D01*
Y157999D02*
X-5999Y156000D01*
X-1Y154000D02*
Y150002D01*
X-1001D01*
X-4999Y154000D01*
X-5999D01*
X147999Y98002D02*
X142001D01*
Y101001D01*
X143001Y102000D01*
X145000D01*
X146000Y101001D01*
Y98002D01*
Y100001D02*
X147999Y102000D01*
X142001Y107998D02*
X143001Y105999D01*
X145000Y104000D01*
X146999D01*
X147999Y104999D01*
Y106999D01*
X146999Y107998D01*
X146000D01*
X145000Y106999D01*
Y104000D01*
X64999Y89939D02*
X59001D01*
Y92938D01*
X60001Y93937D01*
X62000D01*
X63000Y92938D01*
Y89939D01*
Y91938D02*
X64999Y93937D01*
X59001Y99935D02*
Y95937D01*
X62000D01*
X61000Y97936D01*
Y98936D01*
X62000Y99935D01*
X63999D01*
X64999Y98936D01*
Y96936D01*
X63999Y95937D01*
X138001Y-85002D02*
X143999D01*
Y-88001D01*
X142999Y-89000D01*
X141000D01*
X140000Y-88001D01*
Y-85002D01*
Y-87001D02*
X138001Y-89000D01*
Y-93999D02*
X143999D01*
X141000Y-91000D01*
Y-94998D01*
X139001Y-68002D02*
X144999D01*
Y-71001D01*
X143999Y-72000D01*
X142000D01*
X141000Y-71001D01*
Y-68002D01*
Y-70001D02*
X139001Y-72000D01*
X143999Y-74000D02*
X144999Y-74999D01*
Y-76999D01*
X143999Y-77998D01*
X143000D01*
X142000Y-76999D01*
Y-75999D01*
Y-76999D01*
X141000Y-77998D01*
X140001D01*
X139001Y-76999D01*
Y-74999D01*
X140001Y-74000D01*
X79002Y112001D02*
Y117999D01*
X82001D01*
X83000Y116999D01*
Y115000D01*
X82001Y114000D01*
X79002D01*
X81001D02*
X83000Y112001D01*
X88998D02*
X85000D01*
X88998Y116000D01*
Y116999D01*
X87999Y117999D01*
X85999D01*
X85000Y116999D01*
X123001Y90001D02*
Y95999D01*
X126000D01*
X127000Y94999D01*
Y93000D01*
X126000Y92000D01*
X123001D01*
X125001D02*
X127000Y90001D01*
X128999D02*
X130999D01*
X129999D01*
Y95999D01*
X128999Y94999D01*
X84000Y83001D02*
X85000Y82001D01*
X86999D01*
X87999Y83001D01*
Y86999D01*
X86999Y87999D01*
X85000D01*
X84000Y86999D01*
Y85000D01*
X85999D01*
X82001Y87999D02*
X80001D01*
X81001D01*
Y82001D01*
X82001Y83001D01*
X159001Y-66997D02*
X164999D01*
Y-63998D01*
X163999Y-62999D01*
X160001D01*
X159001Y-63998D01*
Y-66997D01*
Y-60999D02*
X164999D01*
Y-58000D01*
X163999Y-57001D01*
X160001D01*
X159001Y-58000D01*
Y-60999D01*
X160001Y-55001D02*
X159001Y-54002D01*
Y-52002D01*
X160001Y-51003D01*
X161000D01*
X162000Y-52002D01*
Y-53002D01*
Y-52002D01*
X163000Y-51003D01*
X163999D01*
X164999Y-52002D01*
Y-54002D01*
X163999Y-55001D01*
X158773Y-36997D02*
X164771D01*
Y-33998D01*
X163771Y-32999D01*
X159772D01*
X158773Y-33998D01*
Y-36997D01*
Y-30999D02*
X164771D01*
Y-28000D01*
X163771Y-27001D01*
X159772D01*
X158773Y-28000D01*
Y-30999D01*
X164771Y-21003D02*
Y-25001D01*
X160772Y-21003D01*
X159772D01*
X158773Y-22002D01*
Y-24002D01*
X159772Y-25001D01*
X82025Y55031D02*
X88023D01*
Y58030D01*
X87024Y59030D01*
X83025D01*
X82025Y58030D01*
Y55031D01*
Y61029D02*
X88023D01*
Y64029D01*
X87024Y65028D01*
X83025D01*
X82025Y64029D01*
Y61029D01*
X88023Y67027D02*
Y69027D01*
Y68027D01*
X82025D01*
X83025Y67027D01*
X191503Y81999D02*
Y76001D01*
X194502D01*
X195502Y77001D01*
Y80999D01*
X194502Y81999D01*
X191503D01*
X197502Y76001D02*
Y80000D01*
X199501Y81999D01*
X201500Y80000D01*
Y76001D01*
Y79000D01*
X197502D01*
X203500Y76001D02*
X205499D01*
X204499D01*
Y81999D01*
X203500Y80999D01*
X208498D02*
X209498Y81999D01*
X211497D01*
X212497Y80999D01*
Y80000D01*
X211497Y79000D01*
X210497D01*
X211497D01*
X212497Y78000D01*
Y77001D01*
X211497Y76001D01*
X209498D01*
X208498Y77001D01*
X36497Y53001D02*
Y58999D01*
X33498D01*
X32498Y57999D01*
Y54001D01*
X33498Y53001D01*
X36497D01*
X30498Y58999D02*
Y55000D01*
X28499Y53001D01*
X26500Y55000D01*
Y58999D01*
Y56000D01*
X30498D01*
X24500Y58999D02*
X22501D01*
X23501D01*
Y53001D01*
X24500Y54001D01*
X15503Y58999D02*
X19502D01*
X15503Y55000D01*
Y54001D01*
X16503Y53001D01*
X18502D01*
X19502Y54001D01*
X194003Y180999D02*
Y175001D01*
X197002D01*
X198001Y176001D01*
Y179999D01*
X197002Y180999D01*
X194003D01*
X200001Y175001D02*
Y179000D01*
X202000Y180999D01*
X203999Y179000D01*
Y175001D01*
Y178000D01*
X200001D01*
X205999Y176001D02*
X206998Y175001D01*
X208998D01*
X209997Y176001D01*
Y179999D01*
X208998Y180999D01*
X206998D01*
X205999Y179999D01*
Y179000D01*
X206998Y178000D01*
X209997D01*
X32997Y151001D02*
Y156999D01*
X29998D01*
X28999Y155999D01*
Y152001D01*
X29998Y151001D01*
X32997D01*
X26999Y156999D02*
Y153000D01*
X25000Y151001D01*
X23001Y153000D01*
Y156999D01*
Y154000D01*
X26999D01*
X17003Y151001D02*
X19002Y152001D01*
X21001Y154000D01*
Y155999D01*
X20002Y156999D01*
X18002D01*
X17003Y155999D01*
Y155000D01*
X18002Y154000D01*
X21001D01*
X121939Y28478D02*
Y22479D01*
X124938D01*
X125937Y23479D01*
Y27478D01*
X124938Y28478D01*
X121939D01*
X127937Y22479D02*
Y26478D01*
X129936Y28478D01*
X131935Y26478D01*
Y22479D01*
Y25479D01*
X127937D01*
X137933Y22479D02*
X133935D01*
X137933Y26478D01*
Y27478D01*
X136934Y28478D01*
X134934D01*
X133935Y27478D01*
X125002Y-2001D02*
Y-7999D01*
X128001D01*
X129001Y-6999D01*
Y-3001D01*
X128001Y-2001D01*
X125002D01*
X131000Y-7999D02*
Y-4000D01*
X133000Y-2001D01*
X134999Y-4000D01*
Y-7999D01*
Y-5000D01*
X131000D01*
X136998Y-7999D02*
X138998D01*
X137998D01*
Y-2001D01*
X136998Y-3001D01*
X176999Y34999D02*
X177999Y35998D01*
Y37998D01*
X176999Y38997D01*
X173001D01*
X172001Y37998D01*
Y35998D01*
X173001Y34999D01*
X172001Y30000D02*
X177999D01*
X175000Y32999D01*
Y29001D01*
X173001Y27001D02*
X172001Y26002D01*
Y24002D01*
X173001Y23003D01*
X176999D01*
X177999Y24002D01*
Y26002D01*
X176999Y27001D01*
X176000D01*
X175000Y26002D01*
Y23003D01*
X185999Y37999D02*
X186999Y38998D01*
Y40998D01*
X185999Y41997D01*
X182001D01*
X181001Y40998D01*
Y38998D01*
X182001Y37999D01*
X181001Y33000D02*
X186999D01*
X184000Y35999D01*
Y32001D01*
X185999Y30001D02*
X186999Y29002D01*
Y27002D01*
X185999Y26003D01*
X185000D01*
X184000Y27002D01*
X183000Y26003D01*
X182001D01*
X181001Y27002D01*
Y29002D01*
X182001Y30001D01*
X183000D01*
X184000Y29002D01*
X185000Y30001D01*
X185999D01*
X184000Y29002D02*
Y27002D01*
X51001Y100001D02*
X50001Y99002D01*
Y97002D01*
X51001Y96003D01*
X54999D01*
X55999Y97002D01*
Y99002D01*
X54999Y100001D01*
X55999Y105000D02*
X50001D01*
X53000Y102001D01*
Y105999D01*
X50001Y107999D02*
Y111997D01*
X51001D01*
X54999Y107999D01*
X55999D01*
X42001Y96001D02*
X41001Y95002D01*
Y93002D01*
X42001Y92003D01*
X45999D01*
X46999Y93002D01*
Y95002D01*
X45999Y96001D01*
X46999Y101000D02*
X41001D01*
X44000Y98001D01*
Y101999D01*
X41001Y107997D02*
X42001Y105998D01*
X44000Y103999D01*
X45999D01*
X46999Y104998D01*
Y106998D01*
X45999Y107997D01*
X45000D01*
X44000Y106998D01*
Y103999D01*
X203999Y37001D02*
X204998Y36001D01*
X206998D01*
X207997Y37001D01*
Y40999D01*
X206998Y41999D01*
X204998D01*
X203999Y40999D01*
X199000Y41999D02*
Y36001D01*
X201999Y39000D01*
X198001D01*
X192003Y41999D02*
X196001D01*
X192003Y38000D01*
Y37001D01*
X193002Y36001D01*
X195002D01*
X196001Y37001D01*
X22937Y97478D02*
X21938Y98478D01*
X19938D01*
X18939Y97478D01*
Y93479D01*
X19938Y92479D01*
X21938D01*
X22937Y93479D01*
X27936Y92479D02*
Y98478D01*
X24937Y95479D01*
X28935D01*
X30935Y92479D02*
X32934D01*
X31934D01*
Y98478D01*
X30935Y97478D01*
X220001Y77001D02*
X219001Y76002D01*
Y74002D01*
X220001Y73003D01*
X223999D01*
X224999Y74002D01*
Y76002D01*
X223999Y77001D01*
X220001Y79001D02*
X219001Y80000D01*
Y82000D01*
X220001Y82999D01*
X221000D01*
X222000Y82000D01*
Y81000D01*
Y82000D01*
X223000Y82999D01*
X223999D01*
X224999Y82000D01*
Y80000D01*
X223999Y79001D01*
Y84999D02*
X224999Y85998D01*
Y87998D01*
X223999Y88997D01*
X220001D01*
X219001Y87998D01*
Y85998D01*
X220001Y84999D01*
X221000D01*
X222000Y85998D01*
Y88997D01*
X7999Y56999D02*
X8999Y57998D01*
Y59998D01*
X7999Y60997D01*
X4001D01*
X3001Y59998D01*
Y57998D01*
X4001Y56999D01*
X7999Y54999D02*
X8999Y54000D01*
Y52000D01*
X7999Y51001D01*
X7000D01*
X6000Y52000D01*
Y53000D01*
Y52000D01*
X5000Y51001D01*
X4001D01*
X3001Y52000D01*
Y54000D01*
X4001Y54999D01*
X7999Y49001D02*
X8999Y48002D01*
Y46002D01*
X7999Y45003D01*
X7000D01*
X6000Y46002D01*
X5000Y45003D01*
X4001D01*
X3001Y46002D01*
Y48002D01*
X4001Y49001D01*
X5000D01*
X6000Y48002D01*
X7000Y49001D01*
X7999D01*
X6000Y48002D02*
Y46002D01*
X175999Y132999D02*
X176999Y133998D01*
Y135998D01*
X175999Y136997D01*
X172001D01*
X171001Y135998D01*
Y133998D01*
X172001Y132999D01*
X175999Y130999D02*
X176999Y130000D01*
Y128000D01*
X175999Y127001D01*
X175000D01*
X174000Y128000D01*
Y129000D01*
Y128000D01*
X173000Y127001D01*
X172001D01*
X171001Y128000D01*
Y130000D01*
X172001Y130999D01*
X175999Y125001D02*
X176999Y124002D01*
Y122002D01*
X175999Y121003D01*
X175000D01*
X174000Y122002D01*
Y123002D01*
Y122002D01*
X173000Y121003D01*
X172001D01*
X171001Y122002D01*
Y124002D01*
X172001Y125001D01*
X184999Y136999D02*
X185999Y137998D01*
Y139998D01*
X184999Y140997D01*
X181001D01*
X180001Y139998D01*
Y137998D01*
X181001Y136999D01*
X184999Y134999D02*
X185999Y134000D01*
Y132000D01*
X184999Y131001D01*
X184000D01*
X183000Y132000D01*
Y133000D01*
Y132000D01*
X182000Y131001D01*
X181001D01*
X180001Y132000D01*
Y134000D01*
X181001Y134999D01*
X180001Y125003D02*
Y129001D01*
X184000Y125003D01*
X184999D01*
X185999Y126002D01*
Y128002D01*
X184999Y129001D01*
X193937Y160478D02*
X192938Y161478D01*
X190938D01*
X189939Y160478D01*
Y156479D01*
X190938Y155480D01*
X192938D01*
X193937Y156479D01*
X195937Y160478D02*
X196936Y161478D01*
X198936D01*
X199935Y160478D01*
Y159478D01*
X198936Y158479D01*
X197936D01*
X198936D01*
X199935Y157479D01*
Y156479D01*
X198936Y155480D01*
X196936D01*
X195937Y156479D01*
X201935Y160478D02*
X202934Y161478D01*
X204934D01*
X205933Y160478D01*
Y156479D01*
X204934Y155480D01*
X202934D01*
X201935Y156479D01*
Y160478D01*
X220001Y176001D02*
X219001Y175002D01*
Y173002D01*
X220001Y172003D01*
X223999D01*
X224999Y173002D01*
Y175002D01*
X223999Y176001D01*
X224999Y181999D02*
Y178001D01*
X221000Y181999D01*
X220001D01*
X219001Y181000D01*
Y179000D01*
X220001Y178001D01*
X219001Y187997D02*
X220001Y185998D01*
X222000Y183999D01*
X223999D01*
X224999Y184998D01*
Y186998D01*
X223999Y187997D01*
X223000D01*
X222000Y186998D01*
Y183999D01*
X51001Y198001D02*
X50001Y197002D01*
Y195002D01*
X51001Y194003D01*
X54999D01*
X55999Y195002D01*
Y197002D01*
X54999Y198001D01*
X55999Y203999D02*
Y200001D01*
X52000Y203999D01*
X51001D01*
X50001Y203000D01*
Y201000D01*
X51001Y200001D01*
Y205999D02*
X50001Y206998D01*
Y208998D01*
X51001Y209997D01*
X52000D01*
X53000Y208998D01*
Y207998D01*
Y208998D01*
X54000Y209997D01*
X54999D01*
X55999Y208998D01*
Y206998D01*
X54999Y205999D01*
X42001Y195001D02*
X41001Y194002D01*
Y192002D01*
X42001Y191003D01*
X45999D01*
X46999Y192002D01*
Y194002D01*
X45999Y195001D01*
X46999Y200999D02*
Y197001D01*
X43000Y200999D01*
X42001D01*
X41001Y200000D01*
Y198000D01*
X42001Y197001D01*
X46999Y206997D02*
Y202999D01*
X43000Y206997D01*
X42001D01*
X41001Y205998D01*
Y203998D01*
X42001Y202999D01*
X22937Y196478D02*
X21938Y197478D01*
X19938D01*
X18939Y196478D01*
Y192479D01*
X19938Y191480D01*
X21938D01*
X22937Y192479D01*
X24937Y191480D02*
X26936D01*
X25936D01*
Y197478D01*
X24937Y196478D01*
X29935D02*
X30935Y197478D01*
X32934D01*
X33934Y196478D01*
Y195478D01*
X32934Y194479D01*
X33934Y193479D01*
Y192479D01*
X32934Y191480D01*
X30935D01*
X29935Y192479D01*
Y193479D01*
X30935Y194479D01*
X29935Y195478D01*
Y196478D01*
X30935Y194479D02*
X32934D01*
X7999Y156499D02*
X8999Y157499D01*
Y159498D01*
X7999Y160498D01*
X4001D01*
X3001Y159498D01*
Y157499D01*
X4001Y156499D01*
X3001Y154499D02*
Y152500D01*
Y153500D01*
X8999D01*
X7999Y154499D01*
X8999Y145502D02*
Y149501D01*
X6000D01*
X7000Y147502D01*
Y146502D01*
X6000Y145502D01*
X4001D01*
X3001Y146502D01*
Y148501D01*
X4001Y149501D01*
X112001Y18501D02*
X111001Y17502D01*
Y15502D01*
X112001Y14502D01*
X115999D01*
X116999Y15502D01*
Y17502D01*
X115999Y18501D01*
X116999Y20501D02*
Y22500D01*
Y21500D01*
X111001D01*
X112001Y20501D01*
Y25499D02*
X111001Y26499D01*
Y28498D01*
X112001Y29498D01*
X113000D01*
X114000Y28498D01*
Y27498D01*
Y28498D01*
X115000Y29498D01*
X115999D01*
X116999Y28498D01*
Y26499D01*
X115999Y25499D01*
X88237Y24578D02*
X87238Y25578D01*
X85238D01*
X84239Y24578D01*
Y20579D01*
X85238Y19579D01*
X87238D01*
X88237Y20579D01*
X90237Y19579D02*
X92236D01*
X91236D01*
Y25578D01*
X90237Y24578D01*
X99234Y19579D02*
X95235D01*
X99234Y23578D01*
Y24578D01*
X98234Y25578D01*
X96235D01*
X95235Y24578D01*
X79501Y-39499D02*
X78501Y-40499D01*
Y-42498D01*
X79501Y-43498D01*
X83499D01*
X84499Y-42498D01*
Y-40499D01*
X83499Y-39499D01*
X84499Y-37500D02*
Y-35500D01*
Y-36500D01*
X78501D01*
X79501Y-37500D01*
X84499Y-32501D02*
Y-30502D01*
Y-31502D01*
X78501D01*
X79501Y-32501D01*
X120063Y35999D02*
X119064Y36999D01*
X117064D01*
X116065Y35999D01*
Y32001D01*
X117064Y31001D01*
X119064D01*
X120063Y32001D01*
X122063D02*
X123062Y31001D01*
X125062D01*
X126061Y32001D01*
Y35999D01*
X125062Y36999D01*
X123062D01*
X122063Y35999D01*
Y35000D01*
X123062Y34000D01*
X126061D01*
X105001Y102000D02*
X104001Y101001D01*
Y99001D01*
X105001Y98002D01*
X108999D01*
X109999Y99001D01*
Y101001D01*
X108999Y102000D01*
X105001Y104000D02*
X104001Y104999D01*
Y106999D01*
X105001Y107998D01*
X106000D01*
X107000Y106999D01*
X108000Y107998D01*
X108999D01*
X109999Y106999D01*
Y104999D01*
X108999Y104000D01*
X108000D01*
X107000Y104999D01*
X106000Y104000D01*
X105001D01*
X107000Y104999D02*
Y106999D01*
X83000Y44999D02*
X82001Y45999D01*
X80001D01*
X79002Y44999D01*
Y41001D01*
X80001Y40001D01*
X82001D01*
X83000Y41001D01*
X85000Y45999D02*
X88998D01*
Y44999D01*
X85000Y41001D01*
Y40001D01*
X144937Y66678D02*
X143938Y67678D01*
X141938D01*
X140939Y66678D01*
Y62679D01*
X141938Y61680D01*
X143938D01*
X144937Y62679D01*
X150935Y67678D02*
X146937D01*
Y64679D01*
X148936Y65678D01*
X149936D01*
X150935Y64679D01*
Y62679D01*
X149936Y61680D01*
X147936D01*
X146937Y62679D01*
X135001Y102000D02*
X134001Y101001D01*
Y99001D01*
X135001Y98002D01*
X138999D01*
X139999Y99001D01*
Y101001D01*
X138999Y102000D01*
X135001Y104000D02*
X134001Y104999D01*
Y106999D01*
X135001Y107998D01*
X136000D01*
X137000Y106999D01*
Y105999D01*
Y106999D01*
X138000Y107998D01*
X138999D01*
X139999Y106999D01*
Y104999D01*
X138999Y104000D01*
X68001Y109000D02*
X67001Y108001D01*
Y106001D01*
X68001Y105002D01*
X71999D01*
X72999Y106001D01*
Y108001D01*
X71999Y109000D01*
X72999Y114998D02*
Y111000D01*
X69000Y114998D01*
X68001D01*
X67001Y113999D01*
Y111999D01*
X68001Y111000D01*
X97001Y109000D02*
X96001Y108000D01*
Y106001D01*
X97001Y105001D01*
X100999D01*
X101999Y106001D01*
Y108000D01*
X100999Y109000D01*
X101999Y110999D02*
Y112999D01*
Y111999D01*
X96001D01*
X97001Y110999D01*
D11*
X211744Y61701D02*
X211006Y62127D01*
Y61275D01*
X211744Y61701D01*
X17240Y72299D02*
X16502Y72725D01*
Y71873D01*
X17240Y72299D01*
X211744Y160701D02*
X211006Y161127D01*
Y160275D01*
X211744Y160701D01*
X16240Y171299D02*
X15502Y171725D01*
Y170873D01*
X16240Y171299D01*
X124788Y76663D02*
X124050Y77089D01*
Y76237D01*
X124788Y76663D01*
X193102Y-70630D02*
X192364Y-70204D01*
Y-71056D01*
X193102Y-70630D01*
D12*
X93843Y101906D02*
D03*
D13*
X194000Y-48150D02*
D03*
D14*
X111752Y95693D02*
X118248D01*
X111752Y82307D02*
X118248D01*
Y95693D01*
X111752Y82307D02*
Y95693D01*
X190551Y52937D02*
X209449D01*
Y45063D02*
Y52937D01*
X190551Y45063D02*
X209449D01*
X190551D02*
Y52937D01*
X197244Y45063D02*
Y52937D01*
X178937Y40551D02*
Y59449D01*
X171063Y40551D02*
X178937D01*
X171063D02*
Y59449D01*
X178937D01*
X171063Y52756D02*
X178937D01*
X141752Y82307D02*
X148248D01*
X141752Y95693D02*
X148248D01*
X141752Y82307D02*
Y95693D01*
X148248Y82307D02*
Y95693D01*
X58752Y87630D02*
X65248D01*
X58752Y74244D02*
X65248D01*
Y87630D01*
X58752Y74244D02*
Y87630D01*
X180752Y44307D02*
Y57693D01*
X187248Y44307D02*
Y57693D01*
X180752Y44307D02*
X187248D01*
X180752Y57693D02*
X187248D01*
X226819Y54905D02*
X230756D01*
Y51756D02*
Y54905D01*
X226819Y43095D02*
X230756D01*
Y46244D01*
X211457Y43551D02*
X218543D01*
X211457Y37547D02*
Y55559D01*
Y37547D02*
X218543D01*
Y55559D01*
X211457D02*
X218543D01*
X225248Y57244D02*
Y70630D01*
X218752Y57244D02*
Y70630D01*
X225248D01*
X218752Y57244D02*
X225248D01*
X226957Y56913D02*
Y70693D01*
X232665Y56913D02*
X234043D01*
Y70693D01*
X226957D02*
X234043D01*
X226957Y56913D02*
X232665D01*
X207512Y62488D02*
Y73512D01*
X196488Y62488D02*
Y73512D01*
Y62488D02*
X207512D01*
X196488Y73512D02*
X207512D01*
X2752Y63307D02*
Y76693D01*
X9248Y63307D02*
Y76693D01*
X2752Y63307D02*
X9248D01*
X2752Y76693D02*
X9248D01*
X1043Y63307D02*
Y77087D01*
X-6043D02*
X-4665D01*
X-6043Y63307D02*
Y77087D01*
Y63307D02*
X1043D01*
X-4665Y77087D02*
X1043D01*
X49063Y74551D02*
Y93449D01*
X56937D01*
Y74551D02*
Y93449D01*
X49063Y74551D02*
X56937D01*
X49063Y81244D02*
X56937D01*
X47248Y76307D02*
Y89693D01*
X40752Y76307D02*
Y89693D01*
X47248D01*
X40752Y76307D02*
X47248D01*
X9457Y90449D02*
X16543D01*
Y78441D02*
Y96453D01*
X9457D02*
X16543D01*
X9457Y78441D02*
Y96453D01*
Y78441D02*
X16543D01*
X-2756Y79094D02*
X1181D01*
X-2756D02*
Y82244D01*
Y90905D02*
X1181D01*
X-2756Y87756D02*
Y90905D01*
X20488Y60488D02*
Y71512D01*
X31512Y60488D02*
Y71512D01*
X20488D02*
X31512D01*
X20488Y60488D02*
X31512D01*
X177937Y139551D02*
Y158449D01*
X170063Y139551D02*
X177937D01*
X170063D02*
Y158449D01*
X177937D01*
X170063Y151756D02*
X177937D01*
X179752Y143307D02*
Y156693D01*
X186248Y143307D02*
Y156693D01*
X179752Y143307D02*
X186248D01*
X179752Y156693D02*
X186248D01*
X225248Y156307D02*
Y169693D01*
X218752Y156307D02*
Y169693D01*
X225248D01*
X218752Y156307D02*
X225248D01*
X226957Y155913D02*
Y169693D01*
X232665Y155913D02*
X234043D01*
Y169693D01*
X226957D02*
X234043D01*
X226957Y155913D02*
X232665D01*
X226819Y153905D02*
X230756D01*
Y150756D02*
Y153905D01*
X226819Y142095D02*
X230756D01*
Y145244D01*
X211457Y142551D02*
X218543D01*
X211457Y136547D02*
Y154559D01*
Y136547D02*
X218543D01*
Y154559D01*
X211457D02*
X218543D01*
X207512Y161488D02*
Y172512D01*
X196488Y161488D02*
Y172512D01*
Y161488D02*
X207512D01*
X196488Y172512D02*
X207512D01*
X43Y162307D02*
Y176087D01*
X-7043D02*
X-5665D01*
X-7043Y162307D02*
Y176087D01*
Y162307D02*
X43D01*
X-5665Y176087D02*
X43D01*
X49063Y172551D02*
Y191449D01*
X56937D01*
Y172551D02*
Y191449D01*
X49063Y172551D02*
X56937D01*
X49063Y179244D02*
X56937D01*
X47248Y175307D02*
Y188693D01*
X40752Y175307D02*
Y188693D01*
X47248D01*
X40752Y175307D02*
X47248D01*
X-3756Y178094D02*
X181D01*
X-3756D02*
Y181244D01*
Y189906D02*
X181D01*
X-3756Y186756D02*
Y189906D01*
X8457Y189449D02*
X15543D01*
Y177441D02*
Y195453D01*
X8457D02*
X15543D01*
X8457Y177441D02*
Y195453D01*
Y177441D02*
X15543D01*
X2752Y162307D02*
Y175693D01*
X9248Y162307D02*
Y175693D01*
X2752Y162307D02*
X9248D01*
X2752Y175693D02*
X9248D01*
X19488Y159488D02*
Y170512D01*
X30512Y159488D02*
Y170512D01*
X19488D02*
X30512D01*
X19488Y159488D02*
X30512D01*
X77307Y103752D02*
Y110248D01*
X90693Y103752D02*
Y110248D01*
X77307D02*
X90693D01*
X77307Y103752D02*
X90693D01*
X102248Y89307D02*
Y102693D01*
X95752Y89307D02*
Y102693D01*
X102248D01*
X95752Y89307D02*
X102248D01*
X76126Y89504D02*
X91874D01*
X76126D02*
Y102496D01*
X91874D01*
Y89504D02*
Y102496D01*
X66752Y89370D02*
Y102756D01*
X73248Y89370D02*
Y102756D01*
X66752Y89370D02*
X73248D01*
X66752Y102756D02*
X73248D01*
X133752Y82244D02*
Y95630D01*
X140248Y82244D02*
Y95630D01*
X133752Y82244D02*
X140248D01*
X133752Y95630D02*
X140248D01*
X132693Y81752D02*
Y88248D01*
X119307Y81752D02*
Y88248D01*
Y81752D02*
X132693D01*
X119307Y88248D02*
X132693D01*
X156000Y10000D02*
Y20000D01*
X166000D01*
X156000Y10000D02*
X166000D01*
X156000Y22500D02*
X158500Y20000D01*
X156000Y22500D02*
Y27500D01*
X158500Y30000D01*
X163500D01*
X166000Y27500D01*
Y22500D02*
Y27500D01*
X163500Y20000D02*
X166000Y22500D01*
Y10000D02*
Y20000D01*
X163500Y30000D02*
X166000Y32500D01*
Y37500D01*
X163500Y40000D02*
X166000Y37500D01*
X158500Y40000D02*
X163500D01*
X156000Y37500D02*
X158500Y40000D01*
X156000Y32500D02*
Y37500D01*
Y32500D02*
X158500Y30000D01*
X78551Y30063D02*
X97449D01*
X78551D02*
Y37937D01*
X97449D01*
Y30063D02*
Y37937D01*
X90756Y30063D02*
Y37937D01*
X110063Y-6150D02*
Y12748D01*
X117937D01*
Y-6150D02*
Y12748D01*
X110063Y-6150D02*
X117937D01*
X110063Y543D02*
X117937D01*
X97820Y72234D02*
X122229D01*
X97820Y47824D02*
X122229D01*
Y72234D01*
X97820Y47824D02*
Y72234D01*
X103752Y82307D02*
Y95693D01*
X110248Y82307D02*
Y95693D01*
X103752Y82307D02*
X110248D01*
X103752Y95693D02*
X110248D01*
X100370Y37248D02*
X113756D01*
X100370Y30752D02*
X113756D01*
X100370D02*
Y37248D01*
X113756Y30752D02*
Y37248D01*
X175681Y-50945D02*
X188279D01*
X175681Y-69153D02*
Y-50945D01*
Y-69153D02*
X188279D01*
Y-50945D01*
X189276Y-46772D02*
Y-13307D01*
X175496D02*
X189276D01*
X175496Y-46772D02*
Y-13307D01*
Y-46772D02*
X189276D01*
X129752Y-79756D02*
X136248D01*
X129752Y-66370D02*
X136248D01*
X129752Y-79756D02*
Y-66370D01*
X136248Y-79756D02*
Y-66370D01*
X129752Y-83244D02*
X136248D01*
X129752Y-96630D02*
X136248D01*
Y-83244D01*
X129752Y-96630D02*
Y-83244D01*
X152000Y-61000D02*
Y-11000D01*
X112000Y-61000D02*
X152000D01*
X112000D02*
Y-11000D01*
X152000D01*
X156000Y72500D02*
X158500Y70000D01*
X156000Y72500D02*
Y77500D01*
X158500Y80000D01*
X163500D01*
X166000Y77500D01*
Y72500D02*
Y77500D01*
X163500Y70000D02*
X166000Y72500D01*
Y50000D02*
Y60000D01*
X163500D02*
X166000Y62500D01*
Y67500D01*
X163500Y70000D02*
X166000Y67500D01*
X158500Y70000D02*
X163500D01*
X156000Y67500D02*
X158500Y70000D01*
X156000Y62500D02*
Y67500D01*
Y62500D02*
X158500Y60000D01*
X156000Y50000D02*
X166000D01*
X156000Y60000D02*
X166000D01*
X156000Y50000D02*
Y60000D01*
X140370Y51752D02*
Y58248D01*
X153756Y51752D02*
Y58248D01*
X140370D02*
X153756D01*
X140370Y51752D02*
X153756D01*
X30756Y180063D02*
Y187937D01*
X37449Y180063D02*
Y187937D01*
X18551D02*
X37449D01*
X18551Y180063D02*
Y187937D01*
Y180063D02*
X37449D01*
X196244Y144063D02*
Y151937D01*
X189551Y144063D02*
Y151937D01*
Y144063D02*
X208449D01*
Y151937D01*
X189551D02*
X208449D01*
X30756Y81063D02*
Y88937D01*
X37449Y81063D02*
Y88937D01*
X18551D02*
X37449D01*
X18551Y81063D02*
Y88937D01*
Y81063D02*
X37449D01*
D15*
X91216Y-47327D02*
X94169D01*
X87083Y-43193D02*
X91216Y-47327D01*
X105783D02*
X109917Y-43193D01*
X102831Y-47327D02*
X105783D01*
X87083Y-43193D02*
Y-25673D01*
X94169D01*
X102831D02*
X109917D01*
Y-43193D02*
Y-25673D01*
X87717Y-7827D02*
X90669D01*
X83583Y-3693D02*
X87717Y-7827D01*
X102284D02*
X106417Y-3693D01*
X99331Y-7827D02*
X102284D01*
X83583Y-3693D02*
Y13827D01*
X90669D01*
X99331D02*
X106417D01*
Y-3693D02*
Y13827D01*
D16*
X-54400Y46404D02*
X-55399Y47404D01*
Y49404D01*
X-54400Y50403D01*
X-53400D01*
X-52400Y49404D01*
X-51401Y50403D01*
X-50401D01*
X-49401Y49404D01*
Y47404D01*
X-50401Y46404D01*
X-51401D01*
X-52400Y47404D01*
X-53400Y46404D01*
X-54400D01*
X-52400Y47404D02*
Y49404D01*
X-49401Y56401D02*
Y52403D01*
X-53400Y56401D01*
X-54400D01*
X-55399Y55402D01*
Y53402D01*
X-54400Y52403D01*
X-48402Y59400D02*
X-49401Y60400D01*
X-50401D01*
Y59400D01*
X-49401D01*
Y60400D01*
X-48402Y59400D01*
X-47402Y58401D01*
X-54400Y64399D02*
X-55399Y65398D01*
Y67398D01*
X-54400Y68397D01*
X-53400D01*
X-52400Y67398D01*
Y66398D01*
Y67398D01*
X-51401Y68397D01*
X-50401D01*
X-49401Y67398D01*
Y65398D01*
X-50401Y64399D01*
X-54400Y70397D02*
X-55399Y71396D01*
Y73396D01*
X-54400Y74396D01*
X-50401D01*
X-49401Y73396D01*
Y71396D01*
X-50401Y70397D01*
X-54400D01*
X99404Y253399D02*
X103403D01*
Y252400D01*
X99404Y248401D01*
Y247401D01*
X109401Y253399D02*
X107402Y252400D01*
X105402Y250400D01*
Y248401D01*
X106402Y247401D01*
X108401D01*
X109401Y248401D01*
Y249401D01*
X108401Y250400D01*
X105402D01*
X112400Y246402D02*
X113400Y247401D01*
Y248401D01*
X112400D01*
Y247401D01*
X113400D01*
X112400Y246402D01*
X111400Y245402D01*
X117398Y253399D02*
X121397D01*
Y252400D01*
X117398Y248401D01*
Y247401D01*
X123396D02*
X125396D01*
X124396D01*
Y253399D01*
X123396Y252400D01*
M02*
